<?xml version="1.0" encoding="UTF-8" standalone="no"?>
<svg
   width="145.12495"
   height="36"
   viewBox="0 0 145.12495 36"
   version="1.1"
   id="svg2"
   xmlns="http://www.w3.org/2000/svg"
   xmlns:svg="http://www.w3.org/2000/svg">
  <defs
     id="defs2" />
  <path
     d="M 17.586819,1.4670521 C 11.522493,2.4572592 6.490238,6.695954 4.6270494,12.383171 c -0.5939801,1.813247 -0.6524798,2.273356 -0.6524798,5.141393 0,2.860803 0.057599,3.317765 0.6279599,4.978462 1.7959198,5.228905 5.7754205,8.986562 11.1843235,10.560859 2.046555,0.595775 6.503268,0.595775 8.549833,0 5.40888,-1.574297 9.388381,-5.331954 11.184309,-10.560859 0.570361,-1.660697 0.627957,-2.117659 0.627957,-4.978462 0,-2.868037 -0.05851,-3.328146 -0.652476,-5.141393 C 33.066743,4.9664116 25.267486,0.21292699 17.586819,1.4670521 M 57.186046,8.412222 v 6.524872 h 0.899991 0.899987 v -3.247811 c 0,-1.7862397 0.09669,-3.5022819 0.21487,-3.8132266 0.503999,-1.3254509 2.821452,-1.8436143 3.653032,-0.8165112 0.355726,0.4391936 0.407008,0.9677069 0.407008,4.1900918 v 3.687457 h 0.801447 0.801427 l -0.0702,-4.157924 c -0.07,-4.1495907 -0.0713,-4.1590395 -0.662373,-4.7494286 -0.406139,-0.4056675 -0.914837,-0.6281885 -1.617944,-0.7073855 -1.349315,-0.1520971 -2.013722,0.034867 -2.90448,0.817635 l -0.735275,0.6461856 0.07612,-2.4495283 0.07632,-2.4493037 H 58.105975 57.186197 V 8.412222 m 44.999203,0 v 6.524872 h 0.89999 0.89997 v -3.247811 c 0,-1.7862397 0.0966,-3.5022819 0.21486,-3.8132266 0.50399,-1.3254509 2.82147,-1.8436143 3.65302,-0.8165112 0.35573,0.4391936 0.40699,0.9677069 0.40699,4.1900918 v 3.687457 h 0.80148 0.80142 l -0.0704,-4.157924 c -0.0705,-4.1495907 -0.0715,-4.1590395 -0.66244,-4.7494286 -0.40614,-0.4056675 -0.91485,-0.6281885 -1.61792,-0.7073855 -1.34928,-0.1520965 -2.01378,0.03487 -2.9045,0.817635 l -0.73522,0.6461856 0.0756,-2.4495283 0.076,-2.4493037 h -0.91997 -0.91976 V 8.412222 m 15.975,-4.1203485 V 6.6964041 L 117.48958,6.054491 c -0.52356,-0.5015153 -0.92923,-0.6610368 -1.8562,-0.7294369 -2.61065,-0.1928209 -3.89269,1.4604483 -3.87736,4.9996329 0.008,1.543245 0.11379,2.238255 0.44998,2.922013 1.04965,2.133863 3.64881,2.586326 5.44739,0.948139 l 0.50627,-0.461238 v 0.601862 c 0,0.53752 0.0836,0.601631 0.78746,0.601631 h 0.78753 V 8.412222 1.8873445 h -0.78753 -0.78746 v 2.404529 M 16.686829,2.6854043 C 11.539368,3.7847344 6.5460393,8.6891914 5.3324187,13.837769 c -0.4342483,1.842256 -0.4342483,5.306302 0,7.148559 0.9256291,3.926622 4.2674899,8.059796 7.9938673,9.886774 5.344107,2.62007 11.208381,2.033955 16.120496,-1.610533 2.406547,-1.78578 4.557514,-5.00098 5.368623,-8.025595 0.526485,-1.962626 0.526485,-5.687216 0,-7.64985 C 33.045812,6.9891242 26.844697,2.3056118 19.94927,2.3591605 c -0.989982,0.00764 -2.458085,0.1545726 -3.262441,0.3262438 m 31.324343,-0.030823 c -2.283466,0.7449613 -3.599919,2.6124255 -3.811191,5.4064241 -0.222058,2.9359666 0.934618,5.4390486 2.967915,6.4233996 2.87117,1.389809 6.634452,0.461248 8.056663,-1.987836 l 0.400701,-0.690505 -0.728302,-0.376648 c -0.519081,-0.268424 -0.753738,-0.301039 -0.816293,-0.113619 -0.205639,0.617378 -1.330626,1.69084 -2.172789,2.073331 -2.275378,1.033632 -4.945175,-0.18607 -5.750886,-2.627497 -0.369889,-1.1207043 -0.186966,-3.8359515 0.330076,-4.9006311 1.181437,-2.4326541 4.940001,-2.8907456 6.714092,-0.8183094 0.725611,0.8477835 0.803674,0.8819827 1.475523,0.6477615 0.390141,-0.1358943 0.709408,-0.3149928 0.709408,-0.3980171 0,-0.5181659 -1.262223,-1.8564393 -2.161979,-2.2920321 C 51.914178,2.3663643 49.404799,2.199869 48.011172,2.6545847 m 39.637512,1.7639662 c -0.171218,0.8160608 -0.291378,0.9665826 -0.819442,1.0273323 -0.485999,0.056012 -0.618735,0.1887708 -0.618735,0.618737 0,0.430192 0.117448,0.5476395 0.547632,0.5476395 h 0.547649 l 0.07104,3.8451753 c 0.06878,3.729084 0.08711,3.85845 0.602315,4.274925 0.523566,0.423667 1.865886,0.575083 2.600266,0.293152 0.195751,-0.07514 0.355955,-0.378875 0.355955,-0.674972 0,-0.459217 -0.109326,-0.538413 -0.742483,-0.538413 -1.212741,0 -1.282477,-0.210373 -1.282477,-3.8699307 V 6.6122589 h 0.899979 c 0.809988,0 0.899983,-0.056247 0.899983,-0.5624894 0,-0.5062394 -0.0901,-0.5624888 -0.899983,-0.5624888 H 88.910435 V 4.4747999 c 0,-0.9137075 -0.05174,-1.0124814 -0.530539,-1.0124814 -0.442571,0 -0.563843,0.1583972 -0.731243,0.956232 M 69.108348,5.7685247 c -1.449192,0.7352874 -2.129132,2.1543355 -2.129132,4.4436663 0,2.289332 0.67994,3.708381 2.129132,4.443666 1.808074,0.917304 4.219363,0.581608 5.388877,-0.750143 0.776008,-0.883773 0.752841,-1.11079 -0.130733,-1.279772 -0.463931,-0.08869 -0.722219,0.0293 -1.132402,0.516597 -0.653159,0.776463 -2.01054,1.069622 -2.922013,0.631105 -0.84598,-0.406786 -1.651247,-1.666089 -1.651247,-2.582275 v -0.754186 h 3.374949 3.374925 V 9.8031442 c 0,-1.1171025 -0.645282,-2.8533953 -1.288322,-3.466958 C 72.861279,5.1333576 70.816745,4.9018375 69.108351,5.76852 m 9.899819,0 c -1.449203,0.7352879 -2.12913,2.1543359 -2.12913,4.443666 0,2.289334 0.679927,3.708381 2.12913,4.443666 1.80807,0.917309 4.21934,0.581613 5.388869,-0.750144 0.776024,-0.883772 0.752849,-1.11079 -0.130717,-1.279769 -0.463953,-0.0887 -0.722239,0.02928 -1.132405,0.516597 -0.65316,0.77646 -2.010567,1.069621 -2.922027,0.631106 -0.845981,-0.406789 -1.651236,-1.666092 -1.651236,-2.582277 v -0.754182 h 3.37492 3.374947 V 9.8031442 c 0,-1.1171025 -0.645297,-2.8533953 -1.288316,-3.466958 C 82.761101,5.1333576 80.716559,4.9018375 79.00817,5.76852 M 93.734354,5.687069 c -1.008652,0.4580914 -1.878037,1.7808421 -1.379008,2.0980853 0.556433,0.353918 1.39521,0.1840461 1.620436,-0.3282699 0.312968,-0.7118846 1.331532,-1.1436523 2.278765,-0.9661308 1.051851,0.1973217 1.655754,0.8457587 1.655754,1.7776908 V 9.0248801 L 95.93414,9.1373769 c -2.11518,0.1205998 -3.197399,0.5141142 -3.742576,1.3607721 -0.932603,1.448525 -0.481937,3.664511 0.876584,4.309117 1.46157,0.693665 3.42175,0.299921 4.34423,-0.872755 l 0.477428,-0.607032 0.332985,0.79671 c 0.354377,0.848678 0.938911,1.129467 2.078979,0.999204 0.47045,-0.05368 0.66555,-0.2115 0.71795,-0.580044 0.0587,-0.410841 -0.036,-0.506234 -0.49838,-0.506234 -0.869357,0 -1.03608,-0.60322 -1.036995,-3.753835 C 99.483459,6.9861963 99.189605,6.1667613 97.800043,5.5862724 96.73222,5.1401069 94.835046,5.1871283 93.734354,5.6870732 m 30.047956,0.081451 c -1.44923,0.7352867 -2.12916,2.1543354 -2.12916,4.4436648 0,2.289336 0.67993,3.708384 2.12916,4.44367 1.80811,0.917307 4.21939,0.581608 5.38887,-0.750143 0.77605,-0.883779 0.75282,-1.110796 -0.13068,-1.279773 -0.46403,-0.0887 -0.72225,0.02928 -1.13248,0.516596 -0.65314,0.776459 -2.01048,1.069621 -2.92194,0.631107 -0.84597,-0.406793 -1.65132,-1.666095 -1.65132,-2.582283 v -0.75418 h 3.37496 3.37492 V 9.8031442 c 0,-1.1171041 -0.64527,-2.8533953 -1.28829,-3.4669586 -1.26113,-1.202828 -3.30564,-1.4343491 -5.01404,-0.5676656 m 7.99418,0.3192684 c 0.21637,0.3302942 0.93118,1.3596519 1.58863,2.2875337 l 1.19518,1.6870179 -1.68928,2.437376 -1.68905,2.437378 h 0.89479 c 0.87814,0 0.91757,-0.03577 2.13118,-1.940576 l 1.2364,-1.940593 1.29123,1.940593 c 1.25519,1.886128 1.31614,1.940576 2.17085,1.940576 h 0.87943 l -1.41926,-2.031484 c -0.78087,-1.117328 -1.54803,-2.215306 -1.70504,-2.439856 -0.24866,-0.355941 -0.10232,-0.6666603 1.13577,-2.4164524 0.78164,-1.1042773 1.49819,-2.1325081 1.59251,-2.2850553 0.12438,-0.2013719 -0.0697,-0.2769714 -0.71124,-0.2769714 -0.85927,0 -0.91322,0.04861 -2.0533,1.839567 l -1.17111,1.839789 -1.16477,-1.839789 c -1.13037,-1.7853413 -1.19042,-1.839567 -2.03551,-1.839567 h -0.87101 l 0.3936,0.6005135 M 69.871547,6.8041765 c -0.640134,0.4018424 -1.210717,1.4406474 -1.210717,2.2040593 0,0.2375954 0.5607,0.3039675 2.563838,0.3039675 H 73.78826 L 73.60264,8.4893942 C 73.209351,6.7445533 71.323215,5.8927194 69.871547,6.8041765 m 9.899811,0 c -0.640109,0.4018424 -1.210701,1.4406474 -1.210701,2.2040593 0,0.2375954 0.560698,0.3039675 2.563822,0.3039675 h 2.563608 L 83.502465,8.4893942 C 83.109167,6.7445533 81.223017,5.8927194 79.771358,6.8041765 M 114.62925,6.6561297 c -1.48856,0.7193111 -1.64263,5.7196113 -0.21284,6.9053423 0.61042,0.506233 2.10059,0.393065 2.74048,-0.208119 0.94652,-0.889408 1.29868,-3.304964 0.76301,-5.2340777 -0.38569,-1.388897 -1.97868,-2.0971833 -3.29065,-1.4631456 m 9.91628,0.1480468 c -0.64014,0.4018424 -1.21077,1.4406474 -1.21077,2.2040593 0,0.2375954 0.56076,0.3039675 2.56388,0.3039675 h 2.56356 L 128.27662,8.4893942 C 127.88335,6.7445533 125.99715,5.8927194 124.54553,6.8041765 M 9.3292384,8.1782248 C 7.8231181,9.0964337 7.3866287,11.578365 8.4987772,12.899985 9.275918,13.823366 9.9034273,14.161535 10.063845,13.74304 10.131147,13.567997 9.8314275,13.076609 9.3857185,12.630892 8.4427583,11.687928 8.3397076,10.777603 9.0464187,9.6343982 9.8829574,8.2810473 11.713757,8.1278258 12.968098,9.3063552 c 0.314765,0.2956436 0.567441,0.3707932 0.788376,0.2342203 0.274725,-0.1698731 0.256722,-0.276296 -0.11542,-0.687588 C 12.58133,7.6818855 10.64097,7.3783661 9.3292384,8.1782248 M 27.374128,8.1516754 c -0.371258,0.2267958 -0.820343,0.588589 -0.998088,0.8036847 -0.278771,0.337495 -0.279212,0.4182674 -0.0033,0.5885885 0.213968,0.1322982 0.47271,0.053767 0.782754,-0.2375934 1.254357,-1.1785294 3.085137,-1.0253079 3.921674,0.3280432 0.706722,1.1432046 0.60367,2.0535306 -0.339285,2.9964936 -0.445721,0.445718 -0.745421,0.937106 -0.678145,1.112148 0.160411,0.418495 0.787938,0.0803 1.565071,-0.843055 0.694852,-0.825736 0.806213,-2.510954 0.238323,-3.6089306 -0.74838,-1.447849 -3.035005,-2.0283386 -4.488713,-1.139379 m -9.337331,0.0576 c -1.739496,0.3397391 -3.83579,1.5301922 -5.345963,3.0360906 -2.295394,2.289104 -3.619277,5.719153 -3.2642367,8.45714 0.1084442,0.836757 1.0302577,3.336462 1.2291587,3.33331 0.03775,-4.52e-4 0.676109,-0.251093 1.418592,-0.557081 1.427378,-0.587918 4.152742,-0.78186 4.83741,-0.344022 0.227706,0.145583 -0.02832,0.173457 -0.787487,0.08572 -1.305876,-0.151007 -3.378535,0.186974 -4.546485,0.741133 l -0.814038,0.386315 1.088976,0.985942 c 2.118344,1.917856 4.594863,2.746288 8.208975,2.746288 3.614109,0 6.09063,-0.828432 8.208974,-2.746288 L 29.359939,23.34788 28.545907,22.961565 C 27.378,22.407404 25.305337,22.069459 23.999463,22.22043 c -0.759131,0.08777 -1.015189,0.05986 -0.787483,-0.08572 0.684667,-0.437837 3.410036,-0.243897 4.837406,0.344021 0.742493,0.305988 1.37179,0.556631 1.398351,0.557082 0.02657,6.68e-4 0.164921,-0.216675 0.307347,-0.483063 0.215533,-0.402749 0.202708,-0.462377 -0.07724,-0.355049 -0.421872,0.162004 -0.844864,-0.238721 -0.68692,-0.650682 0.159743,-0.41603 0.676781,-0.393295 0.91956,0.04004 0.151643,0.271341 0.252895,0.157276 0.449321,-0.50624 0.981009,-3.316655 -0.128448,-7.044594 -2.926937,-9.835444 C 24.790578,8.6104428 21.47279,7.538337 18.037099,8.2092749 m 1.650577,0.3305202 c -0.187651,0.4886889 0.288435,0.9483564 0.629301,0.6074874 0.288004,-0.2879941 0.109559,-0.9600573 -0.25491,-0.9600573 -0.131616,0 -0.299913,0.1586217 -0.374391,0.3525699 m -1.306995,0.087525 c -0.07312,0.1183475 -0.281705,0.1581729 -0.46327,0.08842 -0.205872,-0.078971 -0.330308,0.00944 -0.330308,0.2348957 0,0.396442 0.345602,0.4875652 0.55643,0.1464704 0.0731,-0.1183429 0.281687,-0.1581717 0.463265,-0.088419 0.205868,0.078971 0.33029,-0.00933 0.33029,-0.2348961 0,-0.3964425 -0.345594,-0.487565 -0.556407,-0.146472 m 2.806367,0.146472 c 0,0.214646 0.125974,0.3131941 0.310039,0.2425457 0.170557,-0.065473 0.414879,-0.014183 0.542917,0.1138492 0.279223,0.2792198 0.788387,0.021596 0.590391,-0.298794 C 22.554101,8.707644 22.353223,8.6597237 22.18403,8.7245242 22.014827,8.7895387 21.816612,8.7456702 21.74348,8.6273227 21.532705,8.2862249 21.187111,8.3773475 21.187111,8.7737884 m -4.869145,0.8774825 c -0.07943,0.2069966 0.01256,0.5258121 0.208578,0.7215571 0.477907,0.477895 1.111706,0.20408 1.020133,-0.4409855 -0.08873,-0.6248192 -1.015405,-0.8363159 -1.228708,-0.2805767 m 6.299892,0 c -0.07843,0.2040708 0.0053,0.5186132 0.18607,0.6990622 0.450203,0.450216 1.12542,0.159069 1.038808,-0.4479648 C 23.75743,9.304323 22.8244,9.1130756 22.617861,9.6512648 m -8.098732,0.4468432 c -0.07791,0.203172 -0.03374,0.477213 0.09811,0.609062 0.342904,0.342894 0.992234,0.02949 0.902693,-0.435365 -0.09967,-0.5179387 -0.820536,-0.6430352 -1.000765,-0.173695 m 10.282305,-0.01575 c -0.349189,0.420746 -0.12757,0.804813 0.46462,0.804813 0.336369,0 0.433788,-0.125326 0.380475,-0.488691 -0.09007,-0.6104176 -0.479716,-0.7564408 -0.8451,-0.316125 m 69.959272,0.288674 c -0.774192,0.283047 -1.349983,1.054099 -1.349983,1.807612 0,1.684552 1.095068,2.239838 2.794689,1.417029 1.084475,-0.524923 1.705245,-1.502749 1.705245,-2.686226 v -0.697261 l -1.406226,0.01779 c -0.773316,0.0097 -1.558105,0.07335 -1.743725,0.141078 m -79.740533,1.106744 c -0.08351,0.217114 -0.01432,0.52447 0.156364,0.695011 0.43019,0.430427 1.100459,0.119928 1.01631,-0.470466 -0.08637,-0.605014 -0.962514,-0.77286 -1.17266,-0.224544 m 8.94156,-0.01042 c -0.07493,0.195079 0.02953,0.520646 0.231968,0.72314 0.341093,0.340865 0.395529,0.340865 0.73662,0 0.459914,-0.460118 0.248858,-1.078182 -0.368304,-1.078182 -0.255375,0 -0.525371,0.159747 -0.600284,0.355042 m -11.018721,0.433921 c -0.07939,0.206999 0.01275,0.52582 0.208573,0.721564 0.477886,0.477896 1.111697,0.204072 1.020127,-0.440989 -0.08873,-0.624804 -1.01541,-0.836306 -1.2287,-0.280571 m 13.056507,-0.01735 c -0.224096,0.583862 0.08981,1.066258 0.642811,0.987732 0.371698,-0.05284 0.507139,-0.222072 0.507139,-0.63449 0,-0.412417 -0.135461,-0.581607 -0.507139,-0.634483 -0.304413,-0.04318 -0.561589,0.06929 -0.642811,0.281241 M 13.870264,14.26937 c -0.08735,0.141292 -0.05287,0.362921 0.0765,0.492291 0.302395,0.302396 1.00731,0.03867 0.884245,-0.330972 -0.125122,-0.375972 -0.761853,-0.483068 -0.960742,-0.161322 m 11.474795,0 c -0.08728,0.141295 -0.05283,0.362921 0.07656,0.492292 0.302394,0.302396 1.007295,0.03866 0.88422,-0.33097 -0.125134,-0.375973 -0.76186,-0.483071 -0.960762,-0.161326 m -14.379249,0.34618 c -0.194392,0.194623 -0.353464,0.491168 -0.353464,0.659017 0,0.439407 0.636729,1.012465 1.124969,1.012465 0.488242,0 1.124983,-0.573058 1.124983,-1.012465 0,-0.439426 -0.636741,-1.012485 -1.124983,-1.012485 -0.229717,0 -0.576889,0.159064 -0.771505,0.353468 m 16.668576,0.05805 c -0.477213,0.527165 -0.46912,0.780956 0.03908,1.241077 0.553039,0.50061 1.320061,0.470677 1.605576,-0.06281 0.316351,-0.591278 0.293838,-0.821672 -0.120564,-1.236336 -0.469788,-0.469561 -1.067156,-0.447067 -1.524123,0.05805 M 14.70794,15.444642 c -0.511637,0.61649 -0.550555,1.499591 -0.09989,2.263685 l 0.44348,0.751483 -1.483395,-0.411499 c -1.694864,-0.47003 -2.055756,-0.502651 -2.055756,-0.186307 0,0.123757 0.306221,0.224998 0.680611,0.224998 0.924734,0 3.034513,0.764761 3.899186,1.413422 1.117099,0.838107 1.448504,0.937331 0.669804,0.200473 L 16.049409,19.02637 16.59052,18.890646 c 1.272143,-0.319256 1.551111,-2.096942 0.503992,-3.21158 -0.543598,-0.578663 -1.983556,-0.72019 -2.386536,-0.234425 m 8.321927,0.234443 c -1.047123,1.114639 -0.768145,2.892325 0.503995,3.211596 l 0.541111,0.135724 -0.71257,0.674533 c -0.778715,0.736858 -0.447292,0.637626 0.669813,-0.200473 0.864659,-0.648661 2.974454,-1.413422 3.899187,-1.413422 0.374395,0 0.680618,-0.101234 0.680618,-0.224998 0,-0.316344 -0.360916,-0.283722 -2.055803,0.186313 l -1.483399,0.411496 0.443472,-0.751479 c 0.450666,-0.764106 0.411738,-1.647208 -0.0999,-2.263695 -0.40298,-0.485783 -1.842957,-0.344257 -2.386539,0.234429 m -8.097585,-0.02206 c -0.14851,0.148527 -0.254925,0.629549 -0.236245,1.068738 0.02899,0.687808 0.04685,0.712102 0.127791,0.17504 0.111642,-0.738441 0.951517,-1.365502 1.531099,-1.143203 0.279444,0.107419 0.355486,0.07378 0.243445,-0.107398 -0.212394,-0.343564 -1.320272,-0.339063 -1.666088,0.007 m 8.5937,-0.007 c -0.112023,0.181122 -0.03598,0.214645 0.24345,0.107398 0.579595,-0.222299 1.419502,0.404762 1.531097,1.143203 0.08102,0.537062 0.09875,0.512768 0.127772,-0.17504 0.01877,-0.43942 -0.08772,-0.920235 -0.236232,-1.068738 -0.345824,-0.345808 -1.453698,-0.350311 -1.666104,-0.007 M 10.17836,16.951943 c -0.3725973,0.230399 -0.155696,0.909879 0.290463,0.909879 0.176178,0 0.37575,-0.144435 0.443698,-0.321069 0.163127,-0.425407 -0.342439,-0.830839 -0.734155,-0.588745 m 19.263459,-0.06971 c -0.33119,0.330964 -0.157051,1.01315 0.238938,0.93687 0.21668,-0.04185 0.393757,-0.268628 0.393757,-0.50398 0,-0.447747 -0.366974,-0.698848 -0.632695,-0.43289 m -12.172052,0.473626 c -0.196865,0.611988 -0.921358,1.037449 -1.50588,0.884682 -0.234905,-0.06144 -0.370576,-0.01987 -0.301058,0.09232 0.06927,0.11224 0.421419,0.204074 0.782541,0.204074 0.695679,0 1.474166,-0.846899 1.28585,-1.399028 -0.0583,-0.170323 -0.165144,-0.08119 -0.261453,0.218022 m 5.276376,-0.162906 c -0.01734,0.657901 0.667116,1.343909 1.340538,1.343909 0.356837,0 0.721097,-0.116984 0.809292,-0.259875 0.102367,-0.165144 0.06143,-0.198438 -0.11176,-0.09116 -0.472272,0.291595 -1.347503,-0.08028 -1.694887,-0.720667 -0.189232,-0.34896 -0.337948,-0.466862 -0.343138,-0.272241 m -3.659544,0.569727 c -1.374963,0.746089 -1.342321,1.958369 0.06411,2.379794 0.78748,0.236017 0.88648,0.34446 0.88648,0.972415 0,1.212514 -0.968392,1.654396 -1.870386,0.853198 -0.434704,-0.386315 -0.4401,-0.376652 -0.279897,0.506241 0.264359,1.455943 1.250288,2.282806 1.250288,1.048697 0,-0.831579 0.844194,-1.279545 1.687473,-0.895257 0.407688,0.185852 0.562498,0.431989 0.562498,0.895257 0,1.234109 0.985921,0.407246 1.250296,-1.048697 0.160205,-0.882893 0.154805,-0.892556 -0.27989,-0.506241 -0.902,0.801198 -1.870386,0.359316 -1.870386,-0.853198 0,-0.627955 0.09899,-0.736398 0.886476,-0.972415 1.427815,-0.427727 1.437054,-1.656876 0.01804,-2.39081 -0.817185,-0.422548 -1.512199,-0.419166 -2.305086,0.01131 m -8.856962,0.858593 c -0.2697701,0.702656 0.003,1.153099 0.698392,1.153099 0.596461,0 0.671831,-0.07563 0.671831,-0.674989 0,-0.569463 -0.09698,-0.686231 -0.620081,-0.746309 -0.395549,-0.04548 -0.667121,0.05149 -0.750142,0.268199 m 18.674646,0 c -0.269763,0.702656 0.0033,1.153099 0.698393,1.153099 0.596458,0 0.671831,-0.07563 0.671831,-0.674989 0,-0.569463 -0.09699,-0.686231 -0.620088,-0.746309 -0.395537,-0.04551 -0.667105,0.05143 -0.750131,0.268138 M 10.98657,20.277813 c -0.08256,0.133646 0.494538,0.175491 1.517136,0.109806 1.206432,-0.07746 1.976143,0.0017 2.860827,0.292041 1.866792,0.614017 1.950265,0.620542 0.985253,0.07746 -0.710988,-0.400037 -1.3547,-0.526257 -3.064891,-0.600738 -1.248046,-0.05421 -2.221606,-0.0028 -2.298325,0.121541 m 13.575564,0.137568 c -0.814042,0.292712 -1.948233,0.930575 -1.349985,0.759125 0.18563,-0.05307 0.882225,-0.275841 1.54776,-0.494758 0.884669,-0.290926 1.654387,-0.369447 2.860821,-0.292043 0.907856,0.05828 1.597467,0.02038 1.532677,-0.08459 -0.181133,-0.293164 -3.703655,-0.206993 -4.591273,0.11224 m -13.049788,0.709211 c 0,0.18562 0.151875,0.337487 0.337508,0.337487 0.185621,0 0.337486,-0.151814 0.337486,-0.337487 0,-0.185619 -0.151862,-0.337505 -0.337486,-0.337505 -0.185629,0 -0.337508,0.151922 -0.337508,0.337505 m 16.476214,-0.07022 c 0.13901,0.417149 0.623469,0.486219 0.623469,0.08888 0,-0.195744 -0.160434,-0.356176 -0.356175,-0.356176 -0.195971,0 -0.316346,0.120192 -0.267294,0.267297 m -17.676338,0.503599 c -0.19124,0.49837 0.403868,0.883783 0.739572,0.479014 0.150975,-0.181803 0.209025,-0.436029 0.129141,-0.565182 -0.209694,-0.33953 -0.724932,-0.288455 -0.868713,0.08618 m 33.521901,1.760143 c 2.03845,6.744474 1.83438,6.243629 2.545372,6.243629 0.718417,0 0.768811,-0.117712 1.85509,-4.331156 0.279213,-1.082686 0.560459,-1.968724 0.62481,-1.968724 0.06457,0 0.508276,1.423091 0.986152,3.162315 l 0.869154,3.162087 0.694802,-0.06834 0.694777,-0.06857 1.161207,-3.937432 c 1.101358,-3.735159 1.138251,-3.94126 0.71503,-4.012796 -0.245231,-0.0414 -0.527833,0.0091 -0.628183,0.112488 -0.100382,0.10325 -0.579822,1.64518 -1.065807,3.426459 -0.485761,1.781299 -0.931255,3.148144 -0.989756,3.037439 -0.05851,-0.110691 -0.502633,-1.643807 -0.986828,-3.40733 -0.806611,-2.936634 -0.924056,-3.206191 -1.396543,-3.206191 -0.610867,0 -0.564741,-0.107125 -1.624471,3.762612 -0.459893,1.67846 -0.883787,2.96116 -0.942068,2.850684 -0.05851,-0.110427 -0.502623,-1.64358 -0.986825,-3.407103 -0.853844,-3.108546 -0.899077,-3.206196 -1.483827,-3.206196 h -0.603018 l 0.560928,1.856215 M 57.3354,21.630805 c -0.05644,0.09282 -0.663279,1.535593 -1.348606,3.206186 -0.68511,1.67059 -1.405559,3.41723 -1.601071,3.881166 l -0.355263,0.843741 h 0.633581 c 0.556408,0 0.682855,-0.137072 1.038126,-1.124979 l 0.404537,-1.124981 h 1.88367 1.883441 l 0.48396,1.124981 c 0.395096,0.918221 0.586785,1.124979 1.042858,1.124979 0.439199,0 0.526942,-0.08437 0.409497,-0.393746 -0.08186,-0.216665 -0.814498,-2.038911 -1.627615,-4.049918 -1.41861,-3.508137 -1.504111,-3.656187 -2.111591,-3.656187 -0.348069,0 -0.679047,0.07609 -0.735524,0.168759 m 5.475956,3.881178 v 4.049914 h 2.699949 c 2.549885,0 2.699946,-0.02494 2.699946,-0.449993 0,-0.41849 -0.150093,-0.449995 -2.137458,-0.449995 h -2.137461 v -3.599998 -3.599944 h -0.562483 -0.562494 v 4.049937 m 6.749862,0 v 4.049919 h 2.699963 c 2.549867,0 2.69994,-0.02494 2.69994,-0.449994 0,-0.418479 -0.150109,-0.449985 -2.137457,-0.449985 H 70.686209 V 25.0619 21.461957 H 70.12371 69.561222 v 4.049937 m 6.524878,0 v 4.049918 h 3.262443 c 3.112363,0 3.262442,-0.02075 3.262442,-0.449993 0,-0.425014 -0.150109,-0.449986 -2.699968,-0.449986 h -2.699942 v -1.350007 -1.349971 h 2.474944 c 2.324884,0 2.474961,-0.0272 2.474961,-0.449988 0,-0.422768 -0.150108,-0.449988 -2.474961,-0.449988 h -2.474944 v -1.349983 -1.349974 h 2.587449 c 2.43738,0 2.587444,-0.02599 2.587444,-0.44999 0,-0.428608 -0.150093,-0.449995 -3.149921,-0.449995 h -3.149956 v 4.04993 m 7.199873,-3.599935 c 0,0.403868 0.150108,0.44999 1.462466,0.44999 h 1.462459 v 3.599933 3.599929 h 0.56251 0.562484 v -3.599929 -3.599933 h 1.349982 c 1.199894,0 1.349966,-0.0499 1.349966,-0.44999 0,-0.429955 -0.150108,-0.449995 -3.374942,-0.449995 -3.22486,0 -3.374925,0.02007 -3.374925,0.449995 m -26.015822,2.535697 -0.690051,1.851719 1.341639,0.06766 c 0.738,0.03714 1.391837,0.01758 1.45303,-0.0437 0.109326,-0.109311 -1.015402,-3.241752 -1.279547,-3.563265 -0.07405,-0.09023 -0.445257,0.669142 -0.825071,1.687467 M 12.435929,23.570842 c -0.374839,0.451798 -0.05503,1.077511 0.508936,0.996725 0.552591,-0.07919 0.777145,-0.825285 0.33322,-1.106515 -0.416914,-0.264377 -0.545606,-0.247505 -0.842156,0.109767 m 14.410293,-0.109745 c -0.455608,0.288667 -0.213736,1.028216 0.362928,1.110356 0.604567,0.08618 0.901335,-0.491836 0.500387,-0.974907 -0.318137,-0.383394 -0.441657,-0.40275 -0.863315,-0.13546 M 14.062877,24.06449 c -0.187651,0.488683 0.288442,0.948366 0.629313,0.607479 0.287999,-0.287987 0.109569,-0.960049 -0.254919,-0.960049 -0.131626,0 -0.299924,0.158629 -0.374394,0.35257 m 11.249787,0 c -0.18765,0.488683 0.288438,0.948366 0.6293,0.607479 0.288,-0.287987 0.10959,-0.960049 -0.254914,-0.960049 -0.131616,0 -0.299904,0.158629 -0.374386,0.35257 m -10.525299,1.202154 c -0.217127,0.351219 0.138581,0.945658 0.521984,0.872748 0.200922,-0.03818 0.397799,-0.296303 0.437405,-0.573494 0.05397,-0.378689 -0.04063,-0.504004 -0.38048,-0.504004 -0.24885,0 -0.509387,0.09207 -0.578909,0.20475 m 9.587961,0.283481 c 0.09575,0.677478 0.974239,0.744303 0.974239,0.07425 0,-0.299915 -0.174829,-0.474741 -0.524237,-0.52425 -0.436282,-0.06188 -0.511862,0.0138 -0.450002,0.449997 m -7.538034,0.561814 c -0.258951,0.258754 -0.164012,0.524928 0.187423,0.524928 0.185621,0 0.337493,-0.151922 0.337493,-0.337507 0,-0.351438 -0.266157,-0.446377 -0.524916,-0.187421 m 5.924831,0.168754 c 0,0.195744 0.160416,0.356174 0.356155,0.356174 0.39734,0 0.328272,-0.48443 -0.08893,-0.623477 -0.147148,-0.04911 -0.267279,0.07133 -0.267279,0.267303 m -4.724922,0.262336 c 0,0.195978 0.120177,0.31635 0.267289,0.267301 0.417149,-0.13901 0.48623,-0.623456 0.08893,-0.623456 -0.195746,0 -0.356176,0.160417 -0.356176,0.356155 m 3.531086,-0.212382 c -0.179778,0.179769 0.02328,0.53122 0.307132,0.53122 0.116549,0 0.211722,-0.151922 0.211722,-0.337507 0,-0.347839 -0.265503,-0.44707 -0.518854,-0.193713"
     stroke="none"
     fill="#efe1a1"
     fill-rule="evenodd"
     id="path1"
     style="fill:#d4aa00;fill-opacity:1;stroke-width:0.224997" />
  <path
     d="M 0,18.000109 V 36 l 72.504877,-0.05641 72.504863,-0.0567 0.0582,-17.943415 L 145.12495,0 H 72.562476 0 v 18.000109 m 0.10732001,0.112038 c 0,9.899804 0.0276997,13.916876 0.0613999,8.926919 0.0337003,-4.990181 0.0337003,-13.090027 0,-17.9996556 -0.0339999,-4.9098377 -0.0616,-0.827066 -0.0613999,9.0727566 M 18.674646,1.8296645 C 12.610344,2.8198709 7.5780774,7.0585664 5.7148888,12.745782 c -0.59399,1.813241 -0.6524897,2.273363 -0.6524897,5.141386 0,2.860805 0.057599,3.317764 0.62797,4.978473 1.7959091,5.2289 5.7754059,8.986554 11.1843059,10.560849 2.046556,0.595796 6.503278,0.595796 8.549835,0 5.408907,-1.574295 9.388404,-5.331949 11.184319,-10.560849 0.570358,-1.660709 0.627967,-2.117668 0.627967,-4.978473 0,-2.868023 -0.05851,-3.328145 -0.652494,-5.141386 C 34.15457,5.329024 26.355328,0.57553893 18.674646,1.8296645 m 39.599263,6.9451693 v 6.5248792 h 0.899973 0.899969 v -3.247812 c 0,-1.786247 0.09666,-3.5022879 0.21487,-3.8132301 0.503998,-1.3254524 2.821458,-1.8436174 3.653038,-0.8165112 0.35572,0.4391906 0.407024,0.9677069 0.407024,4.1900903 v 3.687463 h 0.801436 0.801424 l -0.07018,-4.157921 C 65.811458,6.9921927 65.810152,6.9827433 65.219076,6.392354 64.812961,5.9866872 64.30423,5.7641656 63.601126,5.6849673 62.251829,5.5328698 61.587402,5.7198376 60.69665,6.5026018 l -0.735274,0.6461874 0.07611,-2.4495286 0.07631,-2.4493027 h -0.919982 -0.919771 v 6.5248759 m 44.999157,0 v 6.5248792 h 0.89998 0.89999 v -3.247812 c 0,-1.786247 0.0967,-3.5022879 0.21485,-3.8132301 0.50397,-1.3254524 2.82151,-1.8436174 3.65298,-0.8165112 0.3558,0.4391906 0.40705,0.9677069 0.40705,4.1900903 v 3.687463 h 0.80142 0.80148 l -0.0706,-4.157921 c -0.0707,-4.1495993 -0.0717,-4.1590487 -0.66248,-4.749438 -0.40606,-0.4056668 -0.91477,-0.6281884 -1.61783,-0.7073867 -1.34934,-0.1520972 -2.01372,0.034872 -2.90451,0.8176345 l -0.73523,0.6461874 0.0756,-2.4495286 0.0762,-2.4493027 h -0.92 -0.91973 V 8.7748338 M 119.24731,4.6544876 V 7.0590161 L 118.57718,6.4171037 C 118.05363,5.915588 117.648,5.7560656 116.72097,5.6876655 c -2.61056,-0.1928194 -3.89264,1.4604484 -3.87734,4.9996355 0.008,1.54324 0.11387,2.238253 0.45001,2.922014 1.04961,2.133861 3.64877,2.586324 5.44737,0.948136 l 0.50624,-0.461244 v 0.601862 c 0,0.537519 0.0836,0.601644 0.78749,0.601644 h 0.78757 V 8.7748338 2.2499579 h -0.78757 -0.78749 V 4.6544876 M 17.774741,3.0480166 C 12.627288,4.1473457 7.6339584,9.0518043 6.4203292,14.20038 c -0.4342408,1.842275 -0.4342408,5.306311 0,7.148563 0.9256395,3.926632 4.2674978,8.059808 7.9938788,9.886764 5.344094,2.620071 11.208379,2.03396 16.1205,-1.610523 2.406542,-1.78579 4.557503,-5.000971 5.368616,-8.025583 0.526494,-1.962646 0.526494,-5.687238 0,-7.649862 C 34.133736,7.3517355 27.932635,2.6682233 21.037189,2.7217734 20.047191,2.7293377 18.579108,2.876346 17.774741,3.0480166 m 31.32437,-0.03082 c -2.283494,0.7449594 -3.599942,2.6124237 -3.811207,5.406422 -0.222083,2.9359704 0.934629,5.4390464 2.967905,6.4233934 2.871173,1.389812 6.634459,0.461256 8.056643,-1.987825 l 0.400728,-0.690514 -0.728306,-0.376639 c -0.519074,-0.268418 -0.753749,-0.301047 -0.81629,-0.113626 -0.205647,0.617386 -1.330626,1.690847 -2.172782,2.07333 -2.275369,1.03364 -4.945184,-0.186061 -5.750895,-2.62749 -0.369886,-1.120709 -0.186969,-3.8359561 0.330073,-4.9006347 1.181454,-2.4326535 4.940004,-2.8907444 6.714087,-0.8183094 0.725625,0.8477836 0.803702,0.8819835 1.475535,0.6477632 0.390136,-0.1358959 0.709408,-0.3149949 0.709408,-0.3980184 0,-0.5181642 -1.262227,-1.856439 -2.16198,-2.2920307 C 53.002089,2.728977 50.492718,2.5624798 49.099111,3.017196 m 39.637487,1.7639663 c -0.171226,0.8160612 -0.291359,0.9665833 -0.819434,1.0273307 -0.48598,0.056012 -0.61874,0.1887717 -0.61874,0.6187385 0,0.4301915 0.117433,0.5476395 0.547641,0.5476395 h 0.547634 l 0.07104,3.845178 c 0.06878,3.729079 0.08711,3.85846 0.602316,4.274919 0.523577,0.423674 1.8659,0.575081 2.600282,0.293169 0.195744,-0.07514 0.355938,-0.378886 0.355938,-0.674988 0,-0.459219 -0.10928,-0.538415 -0.742484,-0.538415 -1.212722,0 -1.282469,-0.210365 -1.282469,-3.869927 V 6.9748715 h 0.899976 c 0.809981,0 0.899978,-0.056247 0.899978,-0.5624881 0,-0.5062415 -0.09009,-0.5624899 -0.899978,-0.5624899 H 89.998372 V 4.8374118 c 0,-0.9137081 -0.0518,-1.0124804 -0.530556,-1.0124804 -0.442563,0 -0.563828,0.1583961 -0.731235,0.9562313 M 70.196264,6.1311383 C 68.74707,6.8664234 68.067139,8.285472 68.067139,10.5748 c 0,2.289334 0.679931,3.708378 2.129125,4.443665 1.808068,0.917304 4.219347,0.581616 5.388869,-0.750132 C 76.361141,13.384547 76.33797,13.157531 75.4544,12.98856 74.990471,12.89985 74.732172,13.01783 74.322013,13.505148 73.668854,14.281607 72.31145,14.574782 71.4,14.136261 70.554013,13.729474 69.748754,12.470164 69.748754,11.553988 v -0.75419 h 3.374931 3.374951 V 10.16576 c 0,-1.1171036 -0.645309,-2.8533948 -1.28835,-3.4669586 -1.26109,-1.2028267 -3.305627,-1.4343476 -5.014019,-0.5676631 m 9.899816,0 C 78.646875,6.8664234 77.966952,8.285472 77.966952,10.5748 c 0,2.289334 0.679923,3.708378 2.129131,4.443665 1.808064,0.917304 4.219337,0.581616 5.388887,-0.750132 0.77601,-0.883786 0.752825,-1.110802 -0.130732,-1.279773 -0.463955,-0.08871 -0.722246,0.02927 -1.132408,0.516588 -0.653152,0.776459 -2.010566,1.069634 -2.92202,0.631113 -0.84598,-0.406787 -1.651236,-1.666097 -1.651236,-2.582273 v -0.75419 h 3.374937 3.374932 V 10.16576 c 0,-1.1171036 -0.64529,-2.8533948 -1.28833,-3.4669586 -1.2611,-1.2028267 -3.305631,-1.4343476 -5.01403,-0.5676631 M 94.822284,6.049687 c -1.008645,0.4580914 -1.878039,1.7808421 -1.379001,2.098086 0.556412,0.3539181 1.395188,0.1840463 1.620414,-0.3282692 0.312977,-0.7118865 1.331534,-1.1436544 2.278757,-0.9661313 1.051854,0.1973199 1.655739,0.8457581 1.655739,1.7776919 v 0.7564348 l -1.976122,0.1125007 c -2.115198,0.1205998 -3.197421,0.5141141 -3.74257,1.3607751 -0.932625,1.448522 -0.481951,3.664502 0.876571,4.309115 1.461574,0.693655 3.421726,0.299918 4.344212,-0.872764 l 0.477439,-0.60703 0.332996,0.796717 c 0.354375,0.848672 0.938911,1.129463 2.078981,0.999198 0.47043,-0.05368 0.66553,-0.211497 0.71795,-0.580037 0.0587,-0.410844 -0.036,-0.506232 -0.49841,-0.506232 -0.86937,0 -1.03607,-0.603229 -1.03697,-3.753837 C 100.57136,7.348813 100.27753,6.52938 98.887959,5.9488895 97.820129,5.502724 95.922957,5.549748 94.822286,6.0496872 m 30.047934,0.081451 c -1.44915,0.7352846 -2.12917,2.1543329 -2.12917,4.4436598 0,2.289336 0.68002,3.708381 2.12917,4.443667 1.80811,0.917304 4.21938,0.581615 5.38886,-0.750131 0.77605,-0.883787 0.75283,-1.110803 -0.13074,-1.279773 -0.4639,-0.08871 -0.72219,0.02927 -1.13242,0.516586 -0.65319,0.776459 -2.01053,1.069634 -2.92196,0.631113 -0.84599,-0.406787 -1.65114,-1.666096 -1.65114,-2.582273 v -0.754189 h 3.37489 3.37488 V 10.16576 c 0,-1.1171036 -0.64524,-2.8533948 -1.28832,-3.4669586 -1.26107,-1.2028267 -3.30561,-1.4343476 -5.01405,-0.5676631 m 7.99409,0.3192686 c 0.21644,0.330294 0.9313,1.3596486 1.58871,2.2875312 l 1.19517,1.6870219 -1.68924,2.437376 -1.68901,2.437383 h 0.89473 c 0.8782,0 0.91756,-0.0358 2.13117,-1.940588 l 1.23639,-1.940596 1.29123,1.940596 c 1.25528,1.886134 1.31623,1.940588 2.17103,1.940588 h 0.87925 l -1.41926,-2.031494 c -0.78075,-1.117329 -1.5481,-2.215307 -1.70504,-2.439851 -0.24865,-0.355943 -0.1023,-0.666663 1.13583,-2.4164541 0.78158,-1.1042788 1.49822,-2.1325106 1.59245,-2.2850573 0.12441,-0.2013706 -0.0693,-0.2769691 -0.71116,-0.2769691 -0.85929,0 -0.91329,0.048609 -2.0533,1.8395639 l -1.1711,1.8397915 -1.16484,-1.8397915 c -1.13038,-1.785341 -1.19036,-1.8395639 -2.03552,-1.8395639 h -0.87102 l 0.39353,0.6005134 M 70.959461,7.166792 c -0.640109,0.401843 -1.210701,1.4406481 -1.210701,2.2040593 0,0.2375962 0.560679,0.3039703 2.563823,0.3039703 h 2.563608 L 74.690574,8.8520108 C 74.297283,7.1071692 72.411133,6.2553366 70.959461,7.166792 m 9.899815,0 c -0.640113,0.401843 -1.210702,1.4406481 -1.210702,2.2040593 0,0.2375962 0.560696,0.3039703 2.56383,0.3039703 h 2.563589 L 84.59037,8.8520108 C 84.197079,7.1071692 82.310954,6.2553366 80.859276,7.166792 M 115.71716,7.0187453 c -1.48856,0.7193107 -1.64264,5.7196077 -0.21285,6.9053377 0.6105,0.506251 2.10052,0.393077 2.74041,-0.208114 0.94666,-0.889405 1.29875,-3.304964 0.76303,-5.2340765 -0.38571,-1.3888992 -1.97862,-2.0971869 -3.29059,-1.4631472 m 9.91629,0.1480469 c -0.64016,0.4018428 -1.21063,1.4406479 -1.21063,2.2040591 0,0.2375962 0.56061,0.3039703 2.56372,0.3039703 h 2.56356 L 129.36457,8.8520108 C 128.97125,7.1071692 127.08512,6.2553366 125.63345,7.166792 M 10.417155,8.5408415 C 8.9110375,9.4590498 8.4745482,11.940979 9.5866982,13.2626 c 0.7771408,0.923387 1.4046468,1.261557 1.5650698,0.843058 0.06728,-0.175044 -0.232419,-0.666431 -0.678143,-1.112152 C 9.5306787,12.050547 9.4276282,11.140222 10.134339,9.9970148 10.970862,8.6436655 12.80166,8.4904441 14.05602,9.6689711 14.37079,9.9646154 14.623461,10.039764 14.844388,9.9031912 15.119117,9.7333194 15.101119,9.6268973 14.728976,9.2156043 13.669248,8.0445004 11.72888,7.7409824 10.417155,8.5408415 m 18.044891,-0.02655 c -0.37125,0.2267972 -0.820341,0.5885898 -0.998084,0.8036846 -0.278773,0.3374948 -0.279227,0.4182675 -0.0033,0.5885897 0.213969,0.1322962 0.472714,0.053769 0.782757,-0.237596 1.254355,-1.1785271 3.085149,-1.0253062 3.921677,0.3280427 0.706708,1.1432095 0.603667,2.0535355 -0.339288,2.9964935 -0.44572,0.445721 -0.745404,0.937108 -0.678142,1.112152 0.160429,0.418499 0.787939,0.0803 1.565074,-0.843058 0.694673,-0.825731 0.806038,-2.510952 0.23816,-3.6089298 C 32.20259,8.2058236 29.915961,7.6253346 28.462281,8.5142915 m -9.337325,0.057597 c -1.739484,0.3397489 -3.835775,1.5302005 -5.345945,3.0360935 -2.295408,2.289112 -3.619277,5.719176 -3.264233,8.45715 0.108446,0.836752 1.030261,3.336458 1.229147,3.333296 0.03772,-4.48e-4 0.676124,-0.251087 1.418601,-0.557083 1.427381,-0.587911 4.152751,-0.781858 4.837407,-0.344011 0.227699,0.145582 -0.02832,0.173462 -0.787475,0.08572 -1.305892,-0.151008 -3.378549,0.186963 -4.546491,0.741125 l -0.814042,0.386316 1.088985,0.985946 c 2.118328,1.917858 4.594867,2.746288 8.208956,2.746288 3.614121,0 6.090641,-0.82843 8.208981,-2.746288 l 1.08903,-0.985946 -0.814042,-0.386317 c -1.167937,-0.554161 -3.240614,-0.892097 -4.546483,-0.741124 -0.759143,0.08778 -1.015169,0.05986 -0.787481,-0.08572 0.684664,-0.437842 3.410031,-0.243898 4.837408,0.344016 0.742484,0.305994 1.37179,0.556632 1.398347,0.557083 0.02658,6.88e-4 0.164921,-0.216667 0.307342,-0.483057 0.215551,-0.402747 0.20274,-0.462369 -0.07722,-0.355042 -0.421861,0.161994 -0.844848,-0.238729 -0.68691,-0.650693 0.159753,-0.41601 0.676785,-0.393291 0.919556,0.04004 0.15169,0.271339 0.252905,0.157273 0.44932,-0.506239 0.981078,-3.316651 -0.12836,-7.044613 -2.926883,-9.835466 C 25.878548,8.9730521 22.560755,7.9009485 19.125074,8.5718836 m 1.650555,0.3305197 C 20.588,9.391095 21.064101,9.8507597 21.404965,9.5098924 21.692952,9.2218973 21.514478,8.5498352 21.150038,8.5498352 c -0.131631,0 -0.299919,0.1586218 -0.374409,0.3525681 m -1.30698,0.087523 c -0.07312,0.118346 -0.281697,0.1581721 -0.463268,0.08842 -0.205868,-0.078971 -0.330292,0.00944 -0.330292,0.2348952 0,0.3964414 0.3456,0.4875651 0.556409,0.1464719 0.07312,-0.1183522 0.281686,-0.1581717 0.463268,-0.088419 0.205873,0.078971 0.33029,-0.00944 0.33029,-0.2348952 0,-0.3964434 -0.345586,-0.4875656 -0.556407,-0.146472 m 2.80637,0.146472 c 0,0.2146463 0.125974,0.3131935 0.310041,0.2425446 0.170551,-0.06547 0.414905,-0.014168 0.542902,0.1138539 0.279232,0.2792199 0.788402,0.0216 0.590403,-0.2987948 C 23.642005,9.0702503 23.441174,9.0223306 23.271969,9.087132 23.102782,9.152143 22.904546,9.108277 22.831437,8.989932 22.620606,8.6488378 22.275016,8.7399615 22.275016,9.136404 m -4.869144,0.877485 c -0.07935,0.206995 0.01256,0.525817 0.208588,0.721565 0.477873,0.477888 1.11171,0.204068 1.020122,-0.440999 -0.08871,-0.6248085 -1.01541,-0.8363042 -1.228705,-0.280567 m 6.299881,0 c -0.07843,0.20407 0.0053,0.518612 0.186083,0.699059 0.450215,0.450221 1.125424,0.159081 1.038797,-0.447961 -0.08528,-0.5980398 -1.018327,-0.7892863 -1.22488,-0.251098 m -8.098708,0.446845 c -0.07797,0.20317 -0.03374,0.477215 0.09809,0.609063 0.342888,0.342896 0.992224,0.02949 0.902679,-0.435366 -0.09965,-0.517944 -0.820544,-0.643041 -1.000763,-0.173701 m 10.282309,-0.01575 c -0.349199,0.420738 -0.127571,0.804805 0.464603,0.804805 0.336376,0 0.433807,-0.125322 0.380468,-0.488692 -0.09004,-0.610406 -0.479668,-0.756431 -0.845054,-0.316113 m 69.95926,0.288671 c -0.774201,0.28304 -1.349963,1.054107 -1.349963,1.80761 0,1.684547 1.095055,2.239831 2.794667,1.41703 1.084469,-0.524931 1.705235,-1.50276 1.705235,-2.686232 v -0.697264 l -1.40624,0.01777 c -0.773305,0.0096 -1.55808,0.07333 -1.743707,0.141076 m -79.740497,1.106755 c -0.08349,0.217123 -0.01442,0.524464 0.15636,0.69501 0.430185,0.430421 1.100432,0.119932 1.016301,-0.470456 -0.08637,-0.605025 -0.962533,-0.772867 -1.172661,-0.224554 m 8.941531,-0.01042 c -0.07493,0.195065 0.02953,0.520633 0.231969,0.723133 0.341101,0.340868 0.395555,0.340868 0.736647,0 0.459884,-0.460121 0.24884,-1.07818 -0.36831,-1.07818 -0.255375,0 -0.525359,0.159745 -0.600306,0.355047 m -11.018707,0.433969 c -0.07937,0.207 0.01267,0.525814 0.208569,0.721562 0.477898,0.477891 1.1117,0.204075 1.020128,-0.440994 -0.08873,-0.624808 -1.015407,-0.836311 -1.228697,-0.280568 m 13.056493,-0.01735 c -0.224097,0.583868 0.08981,1.066259 0.642811,0.987738 0.3717,-0.05285 0.507154,-0.22207 0.507154,-0.634489 0,-0.412418 -0.135476,-0.581614 -0.507154,-0.634491 -0.304405,-0.04319 -0.561584,0.06932 -0.642811,0.281242 m -12.129296,2.38542 c -0.08732,0.141292 -0.0529,0.362914 0.07653,0.492278 0.302389,0.302401 1.007311,0.03867 0.884235,-0.330954 -0.125119,-0.375968 -0.761838,-0.483075 -0.960734,-0.161324 m 11.474782,0 c -0.0873,0.141295 -0.05284,0.362914 0.07656,0.492278 0.302398,0.302401 1.007305,0.03867 0.884234,-0.330954 -0.125152,-0.375968 -0.761872,-0.483075 -0.960762,-0.161324 M 12.05372,14.978239 c -0.194391,0.194627 -0.353467,0.491169 -0.353467,0.659016 0,0.439416 0.636737,1.012482 1.124981,1.012482 0.48823,0 1.124972,-0.573066 1.124972,-1.012482 0,-0.439415 -0.636742,-1.012478 -1.124972,-1.012478 -0.229724,0 -0.576896,0.159076 -0.771514,0.353462 m 16.668597,0.05805 c -0.477235,0.527167 -0.469127,0.780966 0.03908,1.241083 0.553034,0.500614 1.320045,0.470695 1.605563,-0.06281 0.316337,-0.591276 0.293841,-0.821686 -0.120595,-1.23635 -0.469783,-0.469566 -1.067142,-0.447062 -1.524109,0.05805 m -12.926474,0.771061 c -0.511648,0.616488 -0.550565,1.499584 -0.09989,2.26368 l 0.443459,0.751492 -1.483394,-0.41151 c -1.69485,-0.469997 -2.055749,-0.50263 -2.055749,-0.186284 0,0.123727 0.306221,0.224994 0.680623,0.224994 0.924723,0 3.034506,0.764759 3.899164,1.41342 1.117108,0.838123 1.448529,0.93733 0.669815,0.200478 l -0.712556,-0.674473 0.541125,-0.135723 c 1.272134,-0.319264 1.551126,-2.096959 0.503985,-3.21159 -0.543585,-0.578671 -1.98355,-0.72019 -2.386517,-0.234423 m 8.321908,0.234435 c -1.047119,1.114633 -0.768127,2.892326 0.503998,3.211595 l 0.541102,0.135723 -0.712559,0.674535 c -0.778699,0.736855 -0.447287,0.637643 0.669814,-0.200478 0.864661,-0.648662 2.974452,-1.413418 3.899184,-1.413418 0.374388,0 0.680605,-0.101266 0.680605,-0.225002 0,-0.316337 -0.360883,-0.283705 -2.055783,0.186307 l -1.483389,0.411506 0.443465,-0.751477 c 0.450672,-0.764097 0.411738,-1.647198 -0.0999,-2.263681 -0.402964,-0.485767 -1.842939,-0.344248 -2.386536,0.234435 m -8.097593,-0.02203 c -0.148527,0.148511 -0.254913,0.62955 -0.236247,1.068733 0.02899,0.687814 0.04681,0.712111 0.127788,0.175038 0.11162,-0.73843 0.951503,-1.365492 1.531099,-1.143194 0.279432,0.107404 0.355486,0.07378 0.243433,-0.107404 -0.212397,-0.343566 -1.320264,-0.33906 -1.66609,0.007 m 8.593713,-0.007 c -0.112039,0.181116 -0.03612,0.214642 0.243452,0.107404 0.579578,-0.222298 1.419504,0.404764 1.531089,1.143194 0.08096,0.537073 0.09876,0.512776 0.127787,-0.175038 0.01877,-0.439405 -0.08775,-0.920234 -0.236247,-1.068733 -0.345815,-0.345809 -1.453699,-0.350308 -1.666095,-0.0068 m -13.347599,1.302028 c -0.372586,0.230394 -0.155691,0.909887 0.290474,0.909887 0.176165,0 0.37575,-0.14445 0.443689,-0.321073 0.163135,-0.425465 -0.342436,-0.830903 -0.734158,-0.588814 m 19.263464,-0.06969 c -0.331198,0.330967 -0.157048,1.013156 0.238939,0.936879 0.216675,-0.04184 0.393751,-0.268649 0.393751,-0.503983 0,-0.447752 -0.366968,-0.698846 -0.63269,-0.432896 m -12.172067,0.473725 c -0.196863,0.611986 -0.921364,1.037464 -1.505893,0.884679 -0.234892,-0.06146 -0.370568,-0.01987 -0.30103,0.09231 0.06926,0.11224 0.421407,0.204074 0.782515,0.204074 0.69569,0 1.474194,-0.846882 1.285856,-1.399028 -0.05831,-0.170321 -0.165146,-0.08116 -0.261448,0.21802 m 5.276388,-0.162889 c -0.01735,0.657884 0.667107,1.343897 1.340513,1.343897 0.356844,0 0.721117,-0.116999 0.809308,-0.259867 0.102351,-0.165147 0.06144,-0.198455 -0.11176,-0.09116 -0.472262,0.291598 -1.347489,-0.08034 -1.694895,-0.720663 -0.189218,-0.349023 -0.33795,-0.466927 -0.343106,-0.272302 m -3.659573,0.56973 c -1.374939,0.746089 -1.342315,1.958368 0.06413,2.379786 0.787503,0.236019 0.886473,0.344465 0.886473,0.972429 0,1.212504 -0.968365,1.654397 -1.870384,0.853178 -0.434682,-0.386309 -0.440098,-0.37664 -0.279886,0.50625 0.264371,1.455945 1.250294,2.282806 1.250294,1.048702 0,-0.831589 0.844183,-1.27955 1.687484,-0.895259 0.40768,0.18585 0.562476,0.431989 0.562476,0.895259 0,1.234104 0.985938,0.407243 1.250311,-1.048702 0.160193,-0.88289 0.15479,-0.892559 -0.279914,-0.50625 -0.901993,0.801219 -1.870387,0.359326 -1.870387,-0.853178 0,-0.627964 0.09899,-0.73641 0.886487,-0.972429 1.427836,-0.427723 1.437051,-1.656871 0.01803,-2.390804 -0.81718,-0.42255 -1.512188,-0.419166 -2.305072,0.01132 m -8.856952,0.858624 c -0.269771,0.702662 0.0033,1.153105 0.698379,1.153105 0.59647,0 0.671843,-0.07564 0.671843,-0.674989 0,-0.569463 -0.09699,-0.686233 -0.620093,-0.746305 -0.395535,-0.04548 -0.667109,0.05146 -0.750129,0.268189 m 18.674644,0 c -0.269769,0.702662 0.0031,1.153105 0.698382,1.153105 0.596473,0 0.671837,-0.07564 0.671837,-0.674989 0,-0.569463 -0.097,-0.686233 -0.620091,-0.746305 -0.395535,-0.04548 -0.667105,0.05146 -0.750128,0.268189 m -17.717781,1.655872 c -0.08256,0.133647 0.494541,0.175491 1.517146,0.10976 1.206424,-0.07746 1.976137,0.0017 2.860814,0.292036 1.866787,0.614015 1.950267,0.620544 0.985258,0.07746 -0.710992,-0.400034 -1.354694,-0.526263 -3.064885,-0.600739 -1.248052,-0.05421 -2.22161,-0.0028 -2.298333,0.121556 m 13.575582,0.137506 c -0.814059,0.29272 -1.94825,0.93058 -1.349988,0.759131 0.185619,-0.05307 0.882217,-0.275837 1.547749,-0.494767 0.884681,-0.290915 1.654387,-0.369441 2.860824,-0.292037 0.90785,0.05831 1.597467,0.0204 1.532673,-0.08459 -0.181115,-0.293172 -3.703668,-0.20699 -4.591258,0.112256 m -13.049765,0.709251 c 0,0.185621 0.151871,0.337491 0.337493,0.337491 0.185627,0 0.337499,-0.151922 0.337499,-0.337491 0,-0.18562 -0.151868,-0.337499 -0.337499,-0.337499 -0.185619,0 -0.337493,0.151922 -0.337493,0.337499 m 16.476225,-0.07026 c 0.138995,0.41715 0.62344,0.486217 0.62344,0.08888 0,-0.195745 -0.160421,-0.356169 -0.356171,-0.356169 -0.195973,0 -0.316338,0.120176 -0.267269,0.267292 m -17.676349,0.503562 c -0.191248,0.498379 0.403862,0.883786 0.739556,0.479019 0.150981,-0.181802 0.20902,-0.436036 0.129147,-0.565179 -0.209696,-0.33951 -0.724925,-0.288449 -0.868704,0.08618 m 33.521888,1.760153 c 2.038455,6.744476 1.834388,6.243631 2.54538,6.243631 0.718409,0 0.768803,-0.117696 1.855093,-4.331154 0.279213,-1.082683 0.560465,-1.968727 0.6248,-1.968727 0.06465,0 0.508278,1.423109 0.986179,3.162318 l 0.869156,3.162084 0.694775,-0.06834 0.694774,-0.06856 1.161211,-3.93743 c 1.101359,-3.735156 1.138267,-3.941254 0.715037,-4.012798 -0.245251,-0.0414 -0.527836,0.0091 -0.628192,0.112489 -0.100382,0.103234 -0.579802,1.645179 -1.065793,3.426463 -0.48578,1.781296 -0.93126,3.148139 -0.989756,3.03744 -0.05851,-0.110659 -0.502641,-1.643813 -0.986825,-3.407336 -0.806611,-2.936645 -0.92408,-3.2062 -1.396558,-3.2062 -0.610867,0 -0.564745,-0.107094 -1.624484,3.762612 -0.459887,1.67846 -0.883776,2.961158 -0.942042,2.850688 -0.05851,-0.110426 -0.502647,-1.643592 -0.986835,-3.407112 -0.853864,-3.108545 -0.899084,-3.206193 -1.483854,-3.206193 h -0.602999 l 0.560935,1.856211 m 13.501309,-1.687495 c -0.05644,0.09282 -0.663288,1.535598 -1.348627,3.206192 -0.685117,1.670597 -1.405532,3.417231 -1.60107,3.881174 l -0.355264,0.84372 h 0.633579 c 0.556418,0 0.682875,-0.137026 1.038136,-1.124978 L 57.194649,27.6747 h 1.883666 1.883453 l 0.483955,1.124971 c 0.395095,0.918217 0.586796,1.124978 1.04286,1.124978 0.439194,0 0.52692,-0.08437 0.409482,-0.393733 -0.08184,-0.216674 -0.814474,-2.038924 -1.627605,-4.049931 -1.418614,-3.508133 -1.504102,-3.656184 -2.111601,-3.656184 -0.348064,0 -0.679019,0.07608 -0.735502,0.168754 m 5.475938,3.881181 v 4.049913 h 2.699958 c 2.549867,0 2.699957,-0.02494 2.699957,-0.449991 0,-0.418482 -0.150124,-0.449993 -2.137472,-0.449993 h -2.13747 v -3.599948 -3.599932 h -0.562483 -0.562501 v 4.049925 m 6.749863,0 v 4.049912 h 2.699967 c 2.549873,0 2.699954,-0.02494 2.699954,-0.44999 0,-0.418476 -0.150109,-0.449992 -2.137472,-0.449992 h -2.13747 V 25.424637 21.8247 h -0.562483 -0.562502 v 4.049922 m 6.524884,0 v 4.049924 h 3.262437 c 3.112368,0 3.262441,-0.02077 3.262441,-0.44999 0,-0.425022 -0.150108,-0.449994 -2.699941,-0.449994 h -2.699958 v -1.349966 -1.34997 h 2.474952 c 2.324889,0 2.474951,-0.0272 2.474951,-0.450001 0,-0.422764 -0.150093,-0.449988 -2.474951,-0.449988 h -2.474952 v -1.349991 -1.349968 h 2.587448 c 2.437386,0 2.587448,-0.02599 2.587448,-0.450003 0,-0.4286 -0.150093,-0.449978 -3.149931,-0.449978 h -3.149944 v 4.04992 m 7.199862,-3.599945 c 0,0.40387 0.150124,0.449998 1.462471,0.449998 h 1.462481 v 3.599937 3.599932 h 0.562485 0.562496 v -3.59995 -3.599941 h 1.349959 c 1.199925,0 1.349982,-0.04994 1.349982,-0.449993 0,-0.429953 -0.150093,-0.449984 -3.37493,-0.449984 -3.224854,0 -3.374942,0.02007 -3.374942,0.449984 m -26.015797,2.535708 -0.690076,1.851709 1.34166,0.06766 c 0.737979,0.03703 1.391822,0.01761 1.453007,-0.0437 0.109327,-0.10931 -1.015392,-3.241751 -1.279544,-3.563258 -0.07405,-0.09024 -0.445253,0.669136 -0.825047,1.687461 m -44.834247,-0.87678 c -0.374834,0.451801 -0.05502,1.077513 0.508943,0.996744 0.552591,-0.07924 0.777143,-0.825289 0.333219,-1.106535 -0.416923,-0.264378 -0.545605,-0.24749 -0.842162,0.10976 m 14.410317,-0.109729 c -0.455615,0.288666 -0.213756,1.028241 0.362902,1.110351 0.60457,0.08618 0.901351,-0.491839 0.500389,-0.974895 -0.318142,-0.383402 -0.441659,-0.402757 -0.863291,-0.135461 m -12.783365,0.603433 c -0.187653,0.488682 0.28844,0.948365 0.629321,0.607496 0.287977,-0.288004 0.109512,-0.960064 -0.254937,-0.960064 -0.13161,0 -0.299912,0.158624 -0.374384,0.352568 m 11.24977,0 c -0.187633,0.488682 0.288464,0.948365 0.629331,0.607496 0.287978,-0.288004 0.109528,-0.960064 -0.254933,-0.960064 -0.131631,0 -0.29991,0.158624 -0.374398,0.352568 M 15.875281,25.62928 c -0.217115,0.351216 0.138545,0.945654 0.521985,0.872746 0.200921,-0.03818 0.397785,-0.296304 0.437391,-0.573498 0.05396,-0.378673 -0.04063,-0.503997 -0.380461,-0.503997 -0.248839,0 -0.509389,0.09204 -0.578915,0.204749 m 9.587961,0.283504 c 0.09575,0.677461 0.97424,0.744279 0.97424,0.07425 0,-0.299913 -0.174831,-0.474741 -0.52425,-0.524227 -0.436247,-0.06191 -0.511852,0.01379 -0.44999,0.449987 m -7.538031,0.561811 c -0.25896,0.258751 -0.164025,0.524919 0.187425,0.524919 0.185617,0 0.337495,-0.151907 0.337495,-0.337495 0,-0.351454 -0.266172,-0.446392 -0.52492,-0.187424 m 5.92482,0.168748 c 0,0.195745 0.160411,0.356171 0.356154,0.356171 0.397356,0 0.328279,-0.484422 -0.08893,-0.623468 -0.147163,-0.04911 -0.267287,0.07133 -0.267287,0.267297 m -4.72492,0.262345 c 0,0.195966 0.120177,0.316342 0.267288,0.267295 0.417146,-0.138994 0.486214,-0.623458 0.08893,-0.623458 -0.195738,0 -0.356156,0.160412 -0.356156,0.356163 M 22.656178,26.6933 c -0.179769,0.179776 0.02328,0.531221 0.307132,0.531221 0.116565,0 0.211719,-0.151922 0.211719,-0.337504 0,-0.347837 -0.265491,-0.447066 -0.518851,-0.193717"
     stroke="none"
     fill="#346491"
     fill-rule="evenodd"
     id="path2"
     style="fill:#165627;fill-opacity:1;stroke-width:0.224997" />
</svg>
