<?xml version="1.0" encoding="UTF-8" standalone="no"?>
<svg
   width="145.12498"
   height="36"
   viewBox="0 0 145.12498 36"
   version="1.1"
   id="svg2"
   xmlns="http://www.w3.org/2000/svg"
   xmlns:svg="http://www.w3.org/2000/svg">
  <defs
     id="defs2" />
  <path
     d="M 17.58681,1.467053 C 11.5225,2.45726 6.49024,6.695955 4.62705,12.383173 4.03307,14.196414 3.97457,14.65653 3.97457,17.524552 c 0,2.860821 0.0576,3.317787 0.62796,4.978481 1.79592,5.228902 5.77542,8.986557 11.18432,10.560852 2.04656,0.595789 6.50327,0.595789 8.54983,0 5.4089,-1.574295 9.3884,-5.33195 11.18432,-10.560852 0.57036,-1.660694 0.62796,-2.11766 0.62796,-4.978481 0,-2.868022 -0.0585,-3.328138 -0.65248,-5.141379 C 33.06675,4.966413 25.26749,0.212927 17.58681,1.467053 m 39.59926,6.94517 V 14.9371 h 0.89998 0.89999 v -3.247814 c 0,-1.786241 0.0967,-3.502284 0.21487,-3.813228 0.50399,-1.32545 2.82144,-1.843615 3.65303,-0.81651 0.35572,0.439192 0.40701,0.967707 0.40701,4.190096 V 14.9371 h 0.80144 0.80143 l -0.0702,-4.157922 C 64.72362,6.629581 64.72232,6.620132 64.13124,6.029743 63.72512,5.624075 63.21641,5.401554 62.51329,5.322356 61.16399,5.170259 60.49958,5.357226 59.60882,6.139991 l -0.73528,0.646187 0.0761,-2.449529 0.0763,-2.449304 h -0.92001 -0.91978 v 6.524878 m 44.99915,0 V 14.9371 h 0.89999 0.89998 v -3.247814 c 0,-1.786241 0.0968,-3.502284 0.21487,-3.813228 0.50399,-1.32545 2.82145,-1.843615 3.65303,-0.81651 0.35572,0.439192 0.40702,0.967707 0.40702,4.190096 V 14.9371 h 0.80143 0.80144 l -0.0702,-4.157922 c -0.07,-4.149597 -0.0713,-4.159046 -0.66239,-4.749435 -0.40611,-0.405668 -0.91483,-0.628189 -1.61794,-0.707387 -1.3493,-0.152097 -2.01371,0.03487 -2.90447,0.817635 l -0.73529,0.646187 0.076,-2.449529 0.0763,-2.449304 h -0.92 -0.91979 v 6.524878 m 15.9747,-4.120348 v 2.40453 l -0.67003,-0.641913 c -0.52357,-0.501515 -0.92924,-0.661037 -1.85622,-0.729436 -2.61062,-0.192822 -3.89265,1.460447 -3.87735,4.999631 0.007,1.543246 0.11385,2.238258 0.44999,2.92202 1.04961,2.13386 3.64876,2.586326 5.44737,0.948132 l 0.50624,-0.461241 v 0.601863 c 0,0.537515 0.0837,0.601639 0.78749,0.601639 h 0.78748 V 8.412223 1.887345 h -0.78748 -0.78749 v 2.40453 M 16.68683,2.685405 C 11.53937,3.784735 6.54604,8.689193 5.33242,13.837771 c -0.43425,1.842265 -0.43425,5.3063 0,7.148566 0.92563,3.926626 4.26749,8.059799 7.99387,9.886764 5.3441,2.620076 11.20839,2.033962 16.1205,-1.610519 2.40655,-1.785792 4.55751,-5.000982 5.36862,-8.0256 0.52649,-1.962638 0.52649,-5.687218 0,-7.649857 -1.76959,-6.598 -7.9707,-11.281513 -14.86614,-11.227964 -0.98998,0.0077 -2.45808,0.154573 -3.26244,0.326244 m 31.32436,-0.03082 c -2.28348,0.744961 -3.59993,2.612426 -3.8112,5.406424 -0.22207,2.935969 0.93463,5.439047 2.96792,6.423404 2.87117,1.389799 6.63445,0.461241 8.05665,-1.987838 L 55.62527,11.806063 54.89696,11.42942 C 54.3779,11.161 54.14323,11.128376 54.08068,11.315797 53.87503,11.933185 52.75005,13.00664 51.90789,13.389133 49.63251,14.422764 46.96271,13.203062 46.157,10.761632 45.78711,9.640928 45.97003,6.92568 46.48707,5.861 c 1.18145,-2.432655 4.94001,-2.890746 6.7141,-0.81831 0.72561,0.847784 0.80368,0.881984 1.47552,0.647763 0.39014,-0.135897 0.70941,-0.314994 0.70941,-0.398018 0,-0.518165 -1.26222,-1.85644 -2.16198,-2.292032 C 51.91419,2.366365 49.40481,2.199868 48.01119,2.654585 M 87.6487,4.418552 c -0.17122,0.81606 -0.29137,0.966582 -0.81944,1.027331 -0.48599,0.05602 -0.61874,0.188771 -0.61874,0.618738 0,0.430192 0.11745,0.54764 0.54764,0.54764 h 0.54764 l 0.0711,3.845177 c 0.0688,3.72908 0.0871,3.858453 0.60232,4.27492 0.52356,0.423667 1.86589,0.575089 2.60027,0.293169 0.19575,-0.07515 0.35595,-0.378892 0.35595,-0.674987 0,-0.459216 -0.10935,-0.538415 -0.74249,-0.538415 -1.21273,0 -1.28247,-0.210371 -1.28247,-3.869927 V 6.612261 h 0.89998 c 0.80998,0 0.89998,-0.05625 0.89998,-0.56249 0,-0.50624 -0.09,-0.562489 -0.89998,-0.562489 H 88.91048 V 4.474801 c 0,-0.913708 -0.0518,-1.012481 -0.53054,-1.012481 -0.44257,0 -0.56384,0.158397 -0.73124,0.956232 M 69.10837,5.768526 c -1.4492,0.735287 -2.12913,2.154335 -2.12913,4.443667 0,2.289332 0.67993,3.70838 2.12913,4.443666 1.80807,0.917308 4.21935,0.581614 5.38887,-0.750136 0.77601,-0.883783 0.75284,-1.110804 -0.13072,-1.279776 -0.46394,-0.08865 -0.72223,0.02925 -1.1324,0.516591 -0.65316,0.77646 -2.01056,1.06963 -2.92202,0.631113 -0.84599,-0.406792 -1.65125,-1.666094 -1.65125,-2.582277 v -0.754189 h 3.37494 3.37494 V 9.803146 C 75.41073,8.686043 74.76544,6.94975 74.1224,6.336187 72.8613,5.133359 70.81676,4.901839 69.10837,5.768522 m 9.89981,0 c -1.44919,0.735287 -2.12913,2.154335 -2.12913,4.443667 0,2.289332 0.67994,3.70838 2.12913,4.443666 1.80807,0.917308 4.21935,0.581614 5.38888,-0.750136 0.77601,-0.883783 0.75283,-1.110804 -0.13072,-1.279776 -0.46395,-0.08865 -0.72224,0.02925 -1.13241,0.516591 -0.65316,0.77646 -2.01056,1.06963 -2.92202,0.631113 -0.84598,-0.406792 -1.65124,-1.666094 -1.65124,-2.582277 v -0.754185 h 3.37493 3.37494 V 9.803146 c 0,-1.117103 -0.64529,-2.853396 -1.28832,-3.466959 C 82.76111,5.133359 80.71658,4.901839 79.00818,5.768522 m 14.7262,-0.08145 c -1.00865,0.458092 -1.87804,1.780842 -1.379,2.098086 0.55642,0.353918 1.3952,0.184047 1.62042,-0.328269 0.31297,-0.711886 1.33153,-1.143653 2.27876,-0.966132 1.05186,0.197322 1.65575,0.845759 1.65575,1.777692 v 0.756435 l -1.97614,0.112498 c -2.11519,0.120598 -3.19742,0.514115 -3.74258,1.360774 -0.93261,1.448523 -0.48194,3.664507 0.87658,4.30912 1.46157,0.693662 3.42174,0.299919 4.34422,-0.872759 l 0.47744,-0.607039 0.33299,0.79671 c 0.35437,0.848684 0.93891,1.129479 2.07896,0.999207 0.47047,-0.05377 0.66554,-0.211496 0.71797,-0.580039 0.0583,-0.410843 -0.0358,-0.506241 -0.49837,-0.506241 -0.86938,0 -1.03611,-0.603214 -1.03701,-3.75383 -9e-4,-3.297087 -0.29474,-4.116522 -1.68431,-4.697011 -1.06783,-0.446167 -2.965,-0.399143 -4.06568,0.100798 m 30.04796,0.08145 c -1.44919,0.735286 -2.12913,2.154335 -2.12913,4.443667 0,2.289332 0.67994,3.70838 2.12913,4.443666 1.80807,0.917308 4.21935,0.581614 5.38888,-0.750136 0.77601,-0.883783 0.75283,-1.110804 -0.13072,-1.279776 -0.46395,-0.08865 -0.72224,0.02925 -1.13241,0.516591 -0.65316,0.77646 -2.01056,1.06963 -2.92202,0.631113 -0.84598,-0.406792 -1.65124,-1.666094 -1.65124,-2.582277 v -0.754185 h 3.37493 3.37494 V 9.803146 c 0,-1.117104 -0.64529,-2.853396 -1.28833,-3.46696 -1.2611,-1.202827 -3.30563,-1.434348 -5.01403,-0.567664 m 7.9941,0.319269 c 0.21645,0.330294 0.93126,1.35965 1.5887,2.287532 l 1.19518,1.687019 -1.68927,2.437379 -1.68905,2.437379 h 0.89481 c 0.87816,0 0.91754,-0.03577 2.13116,-1.940588 l 1.23636,-1.940589 1.29125,1.940589 c 1.25525,1.886139 1.31622,1.940588 2.17098,1.940588 h 0.87928 l -1.41927,-2.031487 c -0.78074,-1.117329 -1.54797,-2.215308 -1.70502,-2.439854 -0.24862,-0.355943 -0.1026,-0.666663 1.13578,-2.416455 0.78164,-1.104279 1.49825,-2.13251 1.59252,-2.285057 0.12442,-0.201371 -0.0697,-0.27697 -0.71121,-0.27697 -0.85926,0 -0.91326,0.0486 -2.05331,1.839566 l -1.17111,1.83979 -1.1648,-1.83979 c -1.13038,-1.785342 -1.19045,-1.839566 -2.03554,-1.839566 h -0.87095 l 0.39351,0.600514 M 69.87156,6.804178 c -0.64012,0.401843 -1.21071,1.440648 -1.21071,2.204059 0,0.237595 0.56069,0.303969 2.56383,0.303969 h 2.5636 L 73.60266,8.489396 C 73.20937,6.744554 71.32323,5.89272 69.87156,6.804178 m 9.89981,0 c -0.64011,0.401843 -1.2107,1.440648 -1.2107,2.204059 0,0.237595 0.56069,0.303969 2.56383,0.303969 h 2.5636 L 83.50248,8.489396 C 83.10918,6.744554 81.22304,5.89272 79.77137,6.804178 m 34.85792,-0.148047 c -1.48857,0.719311 -1.64269,5.719617 -0.21285,6.905345 0.61042,0.50624 2.10056,0.393068 2.74045,-0.208121 0.94656,-0.889408 1.29868,-3.304963 0.76296,-5.234077 -0.38564,-1.388899 -1.97861,-2.097185 -3.29056,-1.463147 m 9.91624,0.148047 c -0.64011,0.401843 -1.2107,1.440648 -1.2107,2.204059 0,0.237595 0.56069,0.303969 2.56382,0.303969 h 2.56361 l -0.18563,-0.82281 C 127.88334,6.744554 125.9972,5.89272 124.54553,6.804178 M 9.32924,8.178227 c -1.50612,0.918208 -1.94261,3.400136 -0.83046,4.721761 0.77714,0.923383 1.40465,1.261552 1.56507,0.84306 C 10.13115,13.568001 9.83143,13.07661 9.38572,12.630893 8.44276,11.687936 8.33971,10.777603 9.04642,9.6344 9.88296,8.28105 11.71375,8.127828 12.9681,9.306356 13.28287,9.602001 13.53554,9.677149 13.75648,9.540577 14.0312,9.370705 14.0132,9.264282 13.64106,8.85299 12.58133,7.681887 10.64097,7.378367 9.32924,8.178227 m 18.04489,-0.02655 c -0.37125,0.226796 -0.82034,0.588589 -0.99808,0.803685 -0.27877,0.337494 -0.27922,0.418267 -0.003,0.588589 0.21397,0.132298 0.47271,0.05377 0.78276,-0.237595 1.25435,-1.178528 3.08514,-1.025306 3.92167,0.328044 0.70672,1.143203 0.60367,2.053536 -0.33929,2.996493 -0.44572,0.445717 -0.74541,0.937108 -0.67814,1.112155 0.16042,0.418492 0.78794,0.08032 1.56507,-0.84306 0.69479,-0.825734 0.80616,-2.510953 0.23827,-3.608932 C 31.11486,7.843208 28.82823,7.262718 27.37453,8.151677 m -9.33733,0.0576 c -1.73944,0.339743 -3.83573,1.530196 -5.3459,3.036092 -2.2954,2.289107 -3.61928,5.719168 -3.26424,8.457142 0.10845,0.836759 1.03026,3.336462 1.22916,3.333312 0.0378,-4.5e-4 0.67611,-0.251095 1.41859,-0.557089 1.42738,-0.587914 4.15275,-0.781861 4.83741,-0.344019 0.2277,0.145572 -0.0283,0.173472 -0.78748,0.08572 -1.30588,-0.150973 -3.37854,0.186971 -4.54649,0.741136 l -0.81404,0.386317 1.08898,0.985932 c 2.11834,1.917864 4.59487,2.746298 8.20897,2.746298 3.61411,0 6.09064,-0.828434 8.20898,-2.746298 l 1.08898,-0.985932 -0.81404,-0.386317 c -1.16795,-0.554165 -3.24061,-0.892109 -4.54649,-0.741136 -0.75913,0.08775 -1.01518,0.05985 -0.78748,-0.08572 0.68466,-0.437842 3.41003,-0.243895 4.83741,0.344019 0.74248,0.305994 1.37179,0.556639 1.39834,0.557089 0.0266,6.75e-4 0.16493,-0.216671 0.30735,-0.483066 0.21554,-0.402742 0.20272,-0.462366 -0.0772,-0.355043 -0.42187,0.161997 -0.84486,-0.238721 -0.68691,-0.650688 0.15974,-0.416017 0.67678,-0.393292 0.91955,0.04005 0.15165,0.271345 0.2529,0.157272 0.44932,-0.50624 C 31.34095,17.764173 30.2315,14.036218 27.433,11.24537 24.79065,8.610445 21.47286,7.53834 18.03718,8.209278 m 1.65057,0.330519 c -0.18765,0.48869 0.28844,0.948357 0.62931,0.607488 0.28799,-0.287994 0.10957,-0.960057 -0.25492,-0.960057 -0.13162,0 -0.29992,0.158622 -0.37439,0.352569 m -1.307,0.08752 c -0.0731,0.118347 -0.2817,0.158172 -0.46327,0.08842 -0.20587,-0.07897 -0.33029,0.0095 -0.33029,0.234895 0,0.396443 0.34559,0.487566 0.55641,0.146472 0.0731,-0.118347 0.28169,-0.158172 0.46327,-0.08842 0.20587,0.07897 0.33029,-0.0094 0.33029,-0.234895 0,-0.396443 -0.34559,-0.487566 -0.55641,-0.146472 m 2.80637,0.146472 c 0,0.214646 0.126,0.313194 0.31004,0.242545 0.17055,-0.06547 0.41489,-0.01418 0.54292,0.113848 0.27922,0.27922 0.78838,0.0216 0.59039,-0.298794 -0.0763,-0.123748 -0.2772,-0.171672 -0.4464,-0.106873 -0.16919,0.06502 -0.36741,0.02115 -0.44054,-0.0972 C 21.53271,8.286221 21.18712,8.377344 21.18712,8.773787 M 16.31798,9.65127 c -0.0794,0.206996 0.0128,0.525815 0.20858,0.721562 0.47789,0.477891 1.1117,0.204071 1.02013,-0.440992 -0.0887,-0.624813 -1.01541,-0.836309 -1.22871,-0.28057 m 6.29989,0 c -0.0783,0.204071 0.005,0.518616 0.18607,0.699062 0.45021,0.450217 1.12543,0.159072 1.0388,-0.447966 C 23.75744,9.304327 22.82441,9.113081 22.61787,9.65127 m -8.09873,0.446842 c -0.0779,0.203171 -0.0337,0.477216 0.0981,0.609063 0.3429,0.342894 0.99223,0.02947 0.90269,-0.435366 -0.0997,-0.517941 -0.82056,-0.643038 -1.00079,-0.173697 m 10.28231,-0.01575 c -0.34919,0.420742 -0.12757,0.80481 0.46462,0.80481 0.33637,0 0.43379,-0.125323 0.38047,-0.488691 -0.09,-0.610413 -0.4797,-0.756436 -0.84509,-0.316119 m 69.95929,0.28867 c -0.77421,0.283044 -1.34998,1.054105 -1.34998,1.807616 0,1.684543 1.09506,2.239833 2.79468,1.417023 1.08448,-0.524915 1.70524,-1.502747 1.70524,-2.686224 v -0.697262 l -1.40622,0.01777 c -0.77331,0.0097 -1.5581,0.07335 -1.74372,0.141073 m -79.74053,1.106754 c -0.0835,0.217121 -0.0144,0.524465 0.15637,0.695012 0.43019,0.430417 1.10046,0.119923 1.01631,-0.470466 -0.0864,-0.605014 -0.96253,-0.772861 -1.17268,-0.224546 m 8.94156,-0.01058 c -0.0749,0.195072 0.0295,0.52064 0.23197,0.723137 0.34109,0.340868 0.39554,0.340868 0.73663,0 0.4599,-0.460117 0.24885,-1.07818 -0.36831,-1.07818 -0.25537,0 -0.52537,0.159747 -0.60029,0.355043 m -11.01872,0.434017 c -0.0794,0.206996 0.0128,0.525815 0.20857,0.721562 0.47789,0.477891 1.1117,0.204071 1.02013,-0.440992 -0.0887,-0.624813 -1.01541,-0.83631 -1.2287,-0.28057 m 13.0565,-0.01732 c -0.22409,0.583864 0.0898,1.066255 0.64282,0.987732 0.37169,-0.05287 0.50714,-0.222071 0.50714,-0.634488 0,-0.412418 -0.13545,-0.581614 -0.50714,-0.634488 -0.30442,-0.0432 -0.56159,0.0693 -0.64282,0.281244 m -12.1293,2.385409 c -0.0873,0.141297 -0.0529,0.362918 0.0765,0.49229 0.3024,0.302395 1.00731,0.0387 0.88424,-0.330968 -0.1251,-0.375968 -0.76184,-0.483066 -0.96074,-0.161322 m 11.47479,0 c -0.0873,0.141297 -0.0529,0.362918 0.0765,0.49229 0.30239,0.302395 1.0073,0.0387 0.88423,-0.330968 -0.1251,-0.375968 -0.76183,-0.483066 -0.96073,-0.161322 m -14.37926,0.346268 c -0.19439,0.194622 -0.35346,0.491166 -0.35346,0.659013 0,0.439417 0.63673,1.012481 1.12497,1.012481 0.48824,0 1.12498,-0.573064 1.12498,-1.012481 0,-0.439417 -0.63674,-1.012481 -1.12498,-1.012481 -0.22972,0 -0.57689,0.159072 -0.77151,0.353468 m 16.66859,0.05805 c -0.47722,0.527165 -0.46912,0.78096 0.0392,1.241077 0.55304,0.500615 1.32005,0.470691 1.60557,-0.06277 0.31634,-0.591289 0.29384,-0.821685 -0.1206,-1.236352 -0.46979,-0.469566 -1.06715,-0.447066 -1.52412,0.05805 m -12.92646,0.771061 c -0.51164,0.616488 -0.55056,1.499596 -0.0999,2.263682 l 0.44347,0.751486 -1.4834,-0.411517 c -1.69489,-0.470016 -2.05578,-0.502641 -2.05578,-0.186297 0,0.123748 0.30622,0.224996 0.68061,0.224996 0.92473,0 3.03452,0.764761 3.89918,1.413424 1.1171,0.838109 1.44852,0.937332 0.66981,0.200471 l -0.71256,-0.674538 0.54111,-0.135672 c 1.27213,-0.319269 1.55112,-2.096961 0.50399,-3.21159 -0.54359,-0.578689 -1.98356,-0.720211 -2.38653,-0.234445 m 8.32192,0.234445 c -1.04713,1.114629 -0.76814,2.892321 0.50399,3.21159 l 0.54112,0.135672 -0.71257,0.674538 c -0.77871,0.736861 -0.44729,0.637638 0.66982,-0.200471 0.86466,-0.648663 2.97444,-1.413424 3.89917,-1.413424 0.3744,0 0.68062,-0.101248 0.68062,-0.224996 0,-0.316344 -0.3609,-0.283719 -2.05579,0.186297 l -1.4834,0.411517 0.44347,-0.751486 c 0.45067,-0.764086 0.41174,-1.647194 -0.0999,-2.263682 -0.40297,-0.485766 -1.84294,-0.344244 -2.38653,0.234445 m -8.0976,-0.02206 c -0.1485,0.148497 -0.25492,0.629538 -0.23624,1.06873 0.029,0.687812 0.0468,0.712111 0.12779,0.175046 0.1116,-0.738436 0.95151,-1.365499 1.5311,-1.143203 0.27944,0.107323 0.35549,0.0738 0.24344,-0.107323 -0.21239,-0.343569 -1.32027,-0.339069 -1.66609,0.0068 m 8.59371,-0.0068 c -0.11204,0.181121 -0.036,0.214646 0.24345,0.107323 0.57959,-0.222296 1.4195,0.404767 1.5311,1.143203 0.081,0.537065 0.0988,0.512766 0.12779,-0.175046 0.0187,-0.439417 -0.0877,-0.920233 -0.23624,-1.06873 -0.34582,-0.345819 -1.4537,-0.350319 -1.6661,-0.0068 m -13.34764,1.301825 c -0.3726,0.230396 -0.1557,0.909883 0.29046,0.909883 0.17618,0 0.37575,-0.144447 0.4437,-0.321069 0.16312,-0.425467 -0.34245,-0.830909 -0.73416,-0.588814 m 19.26346,-0.06975 c -0.33119,0.330968 -0.15705,1.013156 0.23894,0.936882 0.21668,-0.04185 0.39375,-0.268645 0.39375,-0.50399 0,-0.447742 -0.36697,-0.698837 -0.63269,-0.432892 m -12.17205,0.473616 c -0.19687,0.611988 -0.92136,1.037455 -1.50589,0.884683 -0.2349,-0.06142 -0.37057,-0.0198 -0.30105,0.09225 0.0693,0.112273 0.42142,0.204072 0.78254,0.204072 0.69568,0 1.47417,-0.846884 1.28585,-1.399024 -0.0583,-0.170322 -0.16515,-0.08122 -0.26145,0.218021 m 5.27638,-0.162897 c -0.0173,0.657887 0.66711,1.3439 1.34052,1.3439 0.35685,0 0.72111,-0.116998 0.80931,-0.25987 0.10238,-0.165147 0.0614,-0.198447 -0.11182,-0.09112 -0.47227,0.291595 -1.3475,-0.08032 -1.69489,-0.720661 -0.18922,-0.348969 -0.33795,-0.466867 -0.34312,-0.272245 m -3.65956,0.569735 c -1.37495,0.746086 -1.34232,1.958363 0.0641,2.379781 0.78749,0.23602 0.88649,0.344468 0.88649,0.972431 0,1.212503 -0.96839,1.654394 -1.87039,0.853184 -0.4347,-0.386317 -0.4401,-0.376643 -0.2799,0.506241 0.26437,1.455948 1.2503,2.282807 1.2503,1.048705 0,-0.831584 0.84419,-1.279551 1.68747,-0.895258 0.40769,0.185846 0.56249,0.431992 0.56249,0.895258 0,1.234102 0.98593,0.407243 1.2503,-1.048705 0.1602,-0.882884 0.1548,-0.892558 -0.27989,-0.506241 -0.90201,0.80121 -1.87039,0.359319 -1.87039,-0.853184 0,-0.627963 0.099,-0.736411 0.88648,-0.972431 1.42782,-0.427717 1.43705,-1.656869 0.018,-2.390806 -0.81718,-0.422542 -1.5122,-0.419167 -2.30508,0.01103 m -8.85696,0.858584 c -0.26977,0.702662 0.003,1.153103 0.69839,1.153103 0.59646,0 0.67183,-0.0756 0.67183,-0.674987 0,-0.569464 -0.097,-0.686237 -0.62008,-0.746311 -0.39555,-0.04545 -0.66712,0.05152 -0.75014,0.268195 m 18.67465,0 c -0.26977,0.702662 0.003,1.153103 0.69839,1.153103 0.59646,0 0.67183,-0.0756 0.67183,-0.674987 0,-0.569464 -0.097,-0.686237 -0.62008,-0.746311 -0.39555,-0.04545 -0.66712,0.05152 -0.75014,0.268195 m -17.71774,1.656194 c -0.0826,0.133647 0.49454,0.175497 1.51714,0.109798 1.20643,-0.0774 1.97614,0.0011 2.86083,0.292044 1.86679,0.614014 1.95026,0.620539 0.98525,0.0774 -0.71099,-0.400042 -1.3547,-0.526265 -3.06489,-0.600739 -1.24805,-0.05422 -2.22161,-0.0027 -2.29833,0.121498 m 13.57557,0.137472 c -0.81404,0.29272 -1.94824,0.930583 -1.34998,0.759136 0.18562,-0.0531 0.88221,-0.275845 1.54775,-0.494766 0.88468,-0.290919 1.65439,-0.369443 2.86082,-0.292044 0.90786,0.05827 1.59747,0.02025 1.53267,-0.0846 -0.18112,-0.29317 -3.70365,-0.206997 -4.59126,0.112272 m -13.04976,0.709412 c 0,0.185622 0.15187,0.337494 0.3375,0.337494 0.18562,0 0.33749,-0.151872 0.33749,-0.337494 0,-0.185621 -0.15187,-0.337494 -0.33749,-0.337494 -0.18563,0 -0.3375,0.151873 -0.3375,0.337494 m 16.47622,-0.0702 c 0.13905,0.417143 0.62346,0.486216 0.62346,0.08887 0,-0.195747 -0.16042,-0.356169 -0.35617,-0.356169 -0.19597,0 -0.31634,0.120148 -0.26729,0.267295 M 10.31219,21.55804 c -0.19124,0.498366 0.40387,0.883783 0.73957,0.479016 0.15097,-0.181797 0.20902,-0.436042 0.12914,-0.565189 -0.20969,-0.339519 -0.72493,-0.288445 -0.86871,0.08617 m 33.5219,1.760142 c 2.03846,6.744474 1.83439,6.243633 2.54538,6.243633 0.71841,0 0.76881,-0.117673 1.85509,-4.331169 0.27922,-1.08268 0.56046,-1.968713 0.62481,-1.968713 0.0646,0 0.50827,1.423098 0.98616,3.162316 l 0.86916,3.16209 0.69478,-0.0684 0.69479,-0.06862 1.1612,-3.937426 c 1.10136,-3.735155 1.13826,-3.941251 0.71504,-4.0128 -0.24524,-0.0414 -0.52784,0.0092 -0.62819,0.112498 -0.10035,0.103273 -0.57981,1.645169 -1.0658,3.426461 -0.48577,1.781291 -0.93126,3.148141 -0.98976,3.037443 -0.0585,-0.110698 -0.50264,-1.643819 -0.98683,-3.407336 -0.80661,-2.936645 -0.92406,-3.20619 -1.39655,-3.20619 -0.61086,0 -0.56474,-0.107098 -1.62447,3.762604 -0.45989,1.678469 -0.88378,2.96117 -0.94206,2.850697 -0.0585,-0.110473 -0.50264,-1.643594 -0.98683,-3.407111 -0.85386,-3.108542 -0.89908,-3.20619 -1.48384,-3.20619 h -0.60299 l 0.56091,1.856215 m 13.50132,-1.687468 c -0.0565,0.0927 -0.66328,1.535596 -1.34862,3.20619 -0.68511,1.670593 -1.40555,3.417235 -1.60107,3.881177 l -0.35527,0.843734 h 0.63359 c 0.55641,0 0.68286,-0.137023 1.03813,-1.124979 l 0.40454,-1.124979 h 1.88367 1.88344 l 0.48396,1.124979 c 0.39509,0.918208 0.58679,1.124979 1.04286,1.124979 0.43919,0 0.52694,-0.08437 0.40949,-0.393743 -0.0819,-0.216671 -0.81449,-2.038911 -1.62762,-4.049924 -1.4186,-3.508134 -1.5041,-3.656181 -2.11159,-3.656181 -0.34806,0 -0.67903,0.07605 -0.73551,0.168747 m 5.47595,3.881177 v 4.049924 h 2.69995 c 2.54988,0 2.69995,-0.02498 2.69995,-0.449992 0,-0.418492 -0.15007,-0.449991 -2.13746,-0.449991 h -2.13746 v -3.599933 -3.599932 h -0.56249 -0.56249 v 4.049924 m 6.74987,0 v 4.049924 h 2.69995 c 2.54988,0 2.69995,-0.02498 2.69995,-0.449992 0,-0.418492 -0.15007,-0.449991 -2.13746,-0.449991 h -2.13746 v -3.599933 -3.599932 h -0.56249 -0.56249 v 4.049924 m 6.52488,0 v 4.049924 h 3.26244 c 3.11237,0 3.26244,-0.0207 3.26244,-0.449992 0,-0.425017 -0.15007,-0.449991 -2.69995,-0.449991 h -2.69995 v -1.349975 -1.349975 h 2.47495 c 2.32489,0 2.47496,-0.02722 2.47496,-0.449991 0,-0.422767 -0.15007,-0.449992 -2.47496,-0.449992 h -2.47495 v -1.349974 -1.349975 h 2.58745 c 2.43738,0 2.58745,-0.0261 2.58745,-0.449992 0,-0.428617 -0.15007,-0.449991 -3.14994,-0.449991 h -3.14994 v 4.049924 m 7.19987,-3.599933 c 0,0.403868 0.15007,0.449992 1.46247,0.449992 h 1.46247 v 3.599932 3.599933 h 0.56249 0.56249 v -3.599933 -3.599932 h 1.34998 c 1.1999,0 1.34997,-0.04995 1.34997,-0.449992 0,-0.429967 -0.15007,-0.449991 -3.37494,-0.449991 -3.22486,0 -3.37493,0.02002 -3.37493,0.449991 m -26.01582,2.535703 -0.69006,1.851715 1.34165,0.06772 c 0.73799,0.03712 1.39183,0.01755 1.45302,-0.04365 0.10935,-0.109348 -1.0154,-3.24174 -1.27955,-3.563259 -0.074,-0.09022 -0.44526,0.669138 -0.82506,1.687469 M 12.43593,23.570853 c -0.37484,0.451792 -0.0551,1.077505 0.50894,0.996732 0.55259,-0.0792 0.77714,-0.825285 0.33322,-1.10653 -0.41692,-0.26437 -0.54561,-0.247495 -0.84216,0.109798 m 14.41031,-0.109798 c -0.45562,0.28867 -0.21375,1.028231 0.36292,1.110354 0.60456,0.08617 0.90133,-0.49184 0.50039,-0.974906 C 27.3914,23.21311 27.26788,23.19376 26.84624,23.461055 m -12.78336,0.603439 c -0.18765,0.488691 0.28844,0.948357 0.62931,0.607489 0.288,-0.287995 0.10957,-0.960057 -0.25492,-0.960057 -0.13162,0 -0.29992,0.158622 -0.37439,0.352568 m 11.24979,0 c -0.18765,0.488691 0.28844,0.948357 0.62931,0.607489 0.28799,-0.287995 0.10957,-0.960057 -0.25492,-0.960057 -0.13162,0 -0.29992,0.158622 -0.37439,0.352568 m -10.52531,1.202152 c -0.21712,0.351219 0.1386,0.945658 0.52199,0.872759 0.20093,-0.03825 0.3978,-0.296319 0.4374,-0.573514 0.054,-0.378668 -0.0407,-0.503991 -0.38047,-0.503991 -0.24885,0 -0.50939,0.09202 -0.57892,0.204746 m 9.58797,0.283495 c 0.0959,0.677462 0.97424,0.744286 0.97424,0.07425 0,-0.29992 -0.17483,-0.474741 -0.52424,-0.52424 -0.43627,-0.06187 -0.51187,0.01372 -0.45,0.449991 m -7.53803,0.561815 c -0.25897,0.258745 -0.16402,0.524915 0.18742,0.524915 0.18562,0 0.3375,-0.151872 0.3375,-0.337494 0,-0.351443 -0.26617,-0.446392 -0.52492,-0.187421 m 5.92481,0.168746 c 0,0.195747 0.16043,0.356169 0.35617,0.356169 0.39735,0 0.32827,-0.484416 -0.0889,-0.623464 -0.14714,-0.04905 -0.26729,0.07132 -0.26729,0.267295 m -4.72491,0.262346 c 0,0.195971 0.12014,0.316344 0.26729,0.267295 0.41714,-0.139048 0.48622,-0.623464 0.0889,-0.623464 -0.19575,0 -0.35617,0.160422 -0.35617,0.356169 m 3.53109,-0.212396 c -0.17978,0.179771 0.0234,0.531215 0.30711,0.531215 0.11655,0 0.21173,-0.151873 0.21173,-0.337494 0,-0.347844 -0.2655,-0.447067 -0.51884,-0.193721"
     stroke="none"
     fill="#efe1a1"
     fill-rule="evenodd"
     id="path1"
     style="stroke-width:0.224996" />
  <path
     d="M 0,18.000112 V 36 l 72.50489,-0.05647 72.50489,-0.0567 0.0576,-17.943413 L 145.12498,0 H 72.56249 0 v 18.000112 m 0.10732,0.112048 c 0,9.899815 0.0277,13.916889 0.0614,8.926933 0.0337,-4.990181 0.0337,-13.09003 0,-17.999662 -0.034,-4.909858 -0.0616,-0.827085 -0.0614,9.072729 M 18.67465,1.829666 C 12.61034,2.819872 7.57808,7.058568 5.71489,12.745786 5.1209,14.559027 5.0624,15.019143 5.0624,17.887165 c 0,2.860821 0.0576,3.317787 0.62797,4.978481 1.79591,5.228902 5.77541,8.986557 11.18431,10.560852 2.04656,0.595789 6.50328,0.595789 8.54984,0 5.4089,-1.574295 9.3884,-5.33195 11.18432,-10.560852 0.57036,-1.660694 0.62796,-2.11766 0.62796,-4.978481 0,-2.868022 -0.0585,-3.328138 -0.65249,-5.141379 C 34.15458,5.329025 26.35533,0.575539 18.67465,1.829666 m 39.59926,6.94517 v 6.524877 h 0.89998 0.89998 v -3.247814 c 0,-1.786241 0.0967,-3.502284 0.21487,-3.813228 0.50399,-1.325451 2.82145,-1.843616 3.65304,-0.81651 0.35571,0.439192 0.40701,0.967707 0.40701,4.190096 v 3.687456 h 0.80144 0.80143 l -0.0702,-4.157922 C 65.81146,6.992194 65.81016,6.982744 65.21908,6.392355 64.81296,5.986688 64.30424,5.764167 63.60113,5.684968 62.25183,5.532871 61.58742,5.719838 60.69666,6.502603 l -0.73528,0.646188 0.0761,-2.449529 0.0763,-2.449304 h -0.92001 -0.91978 v 6.524878 m 44.99915,0 v 6.524877 h 0.89999 0.89998 v -3.247814 c 0,-1.786241 0.0968,-3.502284 0.21487,-3.813228 0.50399,-1.325451 2.82145,-1.843616 3.65303,-0.81651 0.35572,0.439192 0.40702,0.967707 0.40702,4.190096 v 3.687456 h 0.80143 0.80144 l -0.0702,-4.157922 c -0.07,-4.149597 -0.0713,-4.159047 -0.66239,-4.749436 -0.40611,-0.405667 -0.91483,-0.628188 -1.61794,-0.707387 -1.3493,-0.152097 -2.01371,0.03487 -2.90447,0.817635 l -0.73529,0.646188 0.076,-2.449529 0.0763,-2.449304 h -0.92 -0.91979 v 6.524878 m 15.9747,-4.120348 v 2.40453 l -0.67003,-0.641913 c -0.52357,-0.501516 -0.92924,-0.661038 -1.85622,-0.729437 -2.61062,-0.192821 -3.89265,1.460448 -3.87735,4.999632 0.007,1.543246 0.11385,2.238258 0.44999,2.92202 1.04961,2.13386 3.64876,2.586326 5.44737,0.948132 l 0.50624,-0.461241 v 0.601863 c 0,0.537515 0.0837,0.601639 0.78749,0.601639 h 0.78748 V 8.774836 2.249958 h -0.78748 -0.78749 v 2.40453 M 17.77475,3.048018 C 12.62729,4.147347 7.63396,9.051805 6.42033,14.200384 c -0.43424,1.842265 -0.43424,5.3063 0,7.148566 0.92564,3.926626 4.2675,8.059799 7.99388,9.886764 5.3441,2.620076 11.20839,2.033962 16.1205,-1.610519 2.40655,-1.785792 4.55751,-5.000982 5.36862,-8.0256 0.52649,-1.962638 0.52649,-5.687218 0,-7.649857 C 34.13374,7.351737 27.93263,2.668225 21.03719,2.721774 20.0472,2.729374 18.57911,2.876346 17.77475,3.048018 m 31.32436,-0.03082 c -2.28348,0.744961 -3.59993,2.612426 -3.8112,5.406424 -0.22208,2.935969 0.93463,5.439047 2.96791,6.423404 2.87118,1.389799 6.63446,0.461241 8.05665,-1.987838 l 0.40072,-0.690512 -0.72831,-0.376643 c -0.51907,-0.26842 -0.75374,-0.301044 -0.81628,-0.113623 -0.20565,0.617388 -1.33063,1.690843 -2.17279,2.073336 -2.27538,1.033631 -4.94518,-0.186071 -5.75089,-2.627501 -0.36989,-1.120704 -0.18697,-3.835953 0.33007,-4.900633 1.18145,-2.432654 4.94,-2.890745 6.7141,-0.818309 0.72561,0.847784 0.80368,0.881983 1.47552,0.647763 0.39014,-0.135898 0.70941,-0.314995 0.70941,-0.398018 0,-0.518165 -1.26223,-1.85644 -2.16198,-2.292032 C 53.00211,2.728978 50.49273,2.562481 49.09911,3.017197 m 39.63751,1.763967 c -0.17123,0.81606 -0.29137,0.966582 -0.81944,1.027331 -0.48599,0.05602 -0.61874,0.188772 -0.61874,0.618739 0,0.430191 0.11745,0.547639 0.54764,0.547639 h 0.54764 l 0.0711,3.845178 c 0.0688,3.72908 0.0871,3.858453 0.60232,4.27492 0.52356,0.423667 1.86589,0.575089 2.60027,0.293169 0.19575,-0.07515 0.35595,-0.378892 0.35595,-0.674987 0,-0.459216 -0.10935,-0.538415 -0.74249,-0.538415 -1.21273,0 -1.28248,-0.210371 -1.28248,-3.869927 V 6.974873 h 0.89999 c 0.80998,0 0.89998,-0.05625 0.89998,-0.562489 0,-0.506241 -0.09,-0.56249 -0.89998,-0.56249 H 89.99839 V 4.837413 c 0,-0.913708 -0.0518,-1.012481 -0.53054,-1.012481 -0.44256,0 -0.56384,0.158397 -0.73123,0.956232 M 70.19629,6.131139 c -1.4492,0.735286 -2.12914,2.154335 -2.12914,4.443667 0,2.289332 0.67994,3.70838 2.12914,4.443666 1.80806,0.917308 4.21934,0.581614 5.38887,-0.750136 0.77601,-0.883783 0.75284,-1.110804 -0.13072,-1.279776 -0.46394,-0.08865 -0.72224,0.02925 -1.1324,0.516591 -0.65317,0.77646 -2.01057,1.06963 -2.92202,0.631113 -0.84599,-0.406792 -1.65125,-1.666094 -1.65125,-2.582277 v -0.754185 h 3.37494 3.37494 v -0.634039 c 0,-1.117104 -0.64529,-2.853396 -1.28833,-3.46696 -1.2611,-1.202827 -3.30564,-1.434348 -5.01403,-0.567664 m 9.89981,0 c -1.4492,0.735286 -2.12913,2.154335 -2.12913,4.443667 0,2.289332 0.67993,3.70838 2.12913,4.443666 1.80807,0.917308 4.21935,0.581614 5.38888,-0.750136 0.77601,-0.883783 0.75283,-1.110804 -0.13073,-1.279776 -0.46394,-0.08865 -0.72223,0.02925 -1.1324,0.516591 -0.65316,0.77646 -2.01056,1.06963 -2.92202,0.631113 -0.84598,-0.406792 -1.65124,-1.666094 -1.65124,-2.582277 v -0.754185 h 3.37493 3.37494 v -0.634039 c 0,-1.117104 -0.64529,-2.853396 -1.28833,-3.46696 C 83.84903,5.495976 81.8045,5.264455 80.0961,6.131139 m 14.7262,-0.08145 c -1.00865,0.458091 -1.87804,1.780842 -1.379,2.098086 0.55642,0.353918 1.3952,0.184046 1.62042,-0.328269 0.31297,-0.711887 1.33153,-1.143654 2.27876,-0.966132 1.05185,0.197321 1.65574,0.845759 1.65574,1.777692 v 0.756435 l -1.97613,0.112498 c -2.11519,0.120598 -3.19742,0.514115 -3.74258,1.360774 -0.93261,1.448523 -0.48195,3.664507 0.87658,4.30912 1.46157,0.693662 3.42173,0.299919 4.34422,-0.872759 l 0.47744,-0.607039 0.33299,0.79671 c 0.35437,0.848684 0.93891,1.129479 2.07896,0.999207 0.47047,-0.05377 0.66554,-0.211496 0.71797,-0.580039 0.0583,-0.410843 -0.0358,-0.506241 -0.49837,-0.506241 -0.86938,0 -1.03611,-0.603214 -1.03701,-3.75383 -9e-4,-3.297088 -0.29474,-4.116522 -1.68431,-4.697011 -1.06783,-0.446167 -2.965,-0.399143 -4.06568,0.100798 m 30.04796,0.08145 c -1.44919,0.735286 -2.12913,2.154334 -2.12913,4.443667 0,2.289332 0.67994,3.70838 2.12913,4.443666 1.80807,0.917308 4.21935,0.581614 5.38888,-0.750136 0.77601,-0.883783 0.75283,-1.110804 -0.13072,-1.279776 -0.46395,-0.08865 -0.72224,0.02925 -1.13241,0.516591 -0.65316,0.77646 -2.01056,1.06963 -2.92202,0.631113 -0.84598,-0.406792 -1.65124,-1.666094 -1.65124,-2.582277 v -0.754185 h 3.37493 3.37494 v -0.634039 c 0,-1.117104 -0.64529,-2.853396 -1.28833,-3.46696 -1.2611,-1.202827 -3.30563,-1.434348 -5.01403,-0.567664 m 7.9941,0.319269 c 0.21645,0.330294 0.93126,1.359649 1.5887,2.287532 l 1.19518,1.687019 -1.68927,2.437379 -1.68905,2.437379 h 0.89481 c 0.87816,0 0.91754,-0.03577 2.13116,-1.940588 l 1.23636,-1.940589 1.29125,1.940589 c 1.25525,1.886139 1.31622,1.940588 2.17098,1.940588 h 0.87928 l -1.41927,-2.031487 c -0.78074,-1.117329 -1.54797,-2.215308 -1.70502,-2.439854 -0.24862,-0.355943 -0.1026,-0.666663 1.13578,-2.416455 0.78164,-1.104279 1.49825,-2.13251 1.59252,-2.285057 0.12442,-0.201371 -0.0697,-0.27697 -0.71121,-0.27697 -0.85926,0 -0.91326,0.0486 -2.05331,1.839565 l -1.17111,1.839791 -1.1648,-1.839791 C 134.24696,5.904118 134.18689,5.849894 133.3418,5.849894 h -0.87095 l 0.39351,0.600514 M 70.95947,7.166795 c -0.64011,0.401842 -1.2107,1.440648 -1.2107,2.204058 0,0.237596 0.56069,0.30397 2.56383,0.30397 h 2.5636 L 74.69058,8.852013 C 74.29729,7.107171 72.41115,6.255337 70.95947,7.166795 m 9.89982,0 c -0.64011,0.401842 -1.2107,1.440648 -1.2107,2.204058 0,0.237596 0.56069,0.30397 2.56382,0.30397 h 2.5636 L 84.59039,8.852013 C 84.1971,7.107171 82.31096,6.255337 80.85929,7.166795 m 34.85792,-0.148048 c -1.48857,0.719312 -1.64269,5.719618 -0.21285,6.905346 0.61042,0.50624 2.10056,0.393068 2.74045,-0.208121 0.94656,-0.889408 1.29868,-3.304963 0.76296,-5.234077 -0.38564,-1.388899 -1.97861,-2.097186 -3.29056,-1.463148 m 9.91624,0.148048 c -0.64011,0.401842 -1.2107,1.440648 -1.2107,2.204058 0,0.237596 0.56069,0.30397 2.56382,0.30397 h 2.56361 l -0.18563,-0.82281 c -0.39329,-1.744842 -2.27943,-2.596676 -3.7311,-1.685218 M 10.41716,8.540844 C 8.91104,9.459052 8.47455,11.94098 9.5867,13.262605 c 0.77714,0.923383 1.40465,1.261552 1.56507,0.84306 0.0673,-0.175047 -0.23242,-0.666438 -0.67814,-1.112155 -0.94295,-0.942957 -1.046,-1.85329 -0.33929,-2.996493 0.83653,-1.35335 2.66732,-1.506572 3.92168,-0.328044 0.31477,0.295644 0.56744,0.370793 0.78838,0.23422 C 15.11912,9.733322 15.10112,9.626899 14.72898,9.215606 13.66925,8.044503 11.72888,7.740984 10.41716,8.540844 m 18.04489,-0.02655 c -0.37125,0.226796 -0.82034,0.588589 -0.99809,0.803685 -0.27877,0.337494 -0.27922,0.418267 -0.003,0.588589 0.21398,0.132298 0.47272,0.05377 0.78276,-0.237596 1.25436,-1.178528 3.08515,-1.025306 3.92168,0.328044 0.70671,1.143204 0.60367,2.053537 -0.33929,2.996494 -0.44572,0.445717 -0.74541,0.937108 -0.67814,1.112155 0.16042,0.418492 0.78794,0.08032 1.56507,-0.84306 0.69479,-0.825734 0.80616,-2.510953 0.23827,-3.608932 -0.74853,-1.447849 -3.03517,-2.028338 -4.48886,-1.13938 m -9.33733,0.0576 c -1.73944,0.339744 -3.83573,1.530197 -5.3459,3.036093 -2.29541,2.289107 -3.61928,5.719168 -3.26424,8.457142 0.10845,0.836759 1.03026,3.336462 1.22915,3.333312 0.0378,-4.5e-4 0.67612,-0.251095 1.4186,-0.557089 1.42738,-0.587914 4.15275,-0.781861 4.83741,-0.344019 0.2277,0.145572 -0.0283,0.173472 -0.78748,0.08572 -1.30588,-0.150973 -3.37854,0.186971 -4.54649,0.741136 l -0.81404,0.386317 1.08898,0.985932 c 2.11834,1.917864 4.59487,2.746298 8.20897,2.746298 3.61411,0 6.09064,-0.828434 8.20897,-2.746298 L 30.44803,23.710505 29.634,23.324188 c -1.16795,-0.554165 -3.24062,-0.892109 -4.54649,-0.741136 -0.75914,0.08775 -1.01518,0.05985 -0.78749,-0.08572 0.68467,-0.437842 3.41004,-0.243895 4.83741,0.344019 0.74249,0.305994 1.3718,0.556639 1.39835,0.557089 0.0266,6.75e-4 0.16492,-0.216671 0.30735,-0.483066 0.21554,-0.402742 0.20272,-0.462366 -0.0772,-0.355043 -0.42187,0.161997 -0.84486,-0.238721 -0.68692,-0.650688 0.15975,-0.416017 0.67679,-0.393292 0.91956,0.04005 0.15165,0.271345 0.2529,0.157272 0.44932,-0.50624 0.98098,-3.316663 -0.12847,-7.044618 -2.92697,-9.835466 -2.64235,-2.634925 -5.96014,-3.70703 -9.39583,-3.036093 m 1.65057,0.330519 c -0.18764,0.488691 0.28845,0.948357 0.62932,0.607489 0.28799,-0.287995 0.10957,-0.960057 -0.25492,-0.960057 -0.13163,0 -0.29992,0.158622 -0.3744,0.352568 m -1.307,0.08752 c -0.0731,0.118348 -0.28169,0.158172 -0.46326,0.08842 -0.20587,-0.07897 -0.3303,0.0095 -0.3303,0.234896 0,0.396442 0.3456,0.487566 0.55642,0.146472 0.0731,-0.118348 0.28169,-0.158172 0.46326,-0.08842 0.20588,0.07897 0.3303,-0.0095 0.3303,-0.234896 0,-0.396442 -0.3456,-0.487565 -0.55642,-0.146472 m 2.80638,0.146472 c 0,0.214646 0.12599,0.313195 0.31004,0.242546 0.17055,-0.06547 0.41489,-0.01417 0.54291,0.113848 0.27922,0.27922 0.78839,0.0216 0.59039,-0.298795 -0.0763,-0.123747 -0.27719,-0.171671 -0.44639,-0.106873 -0.16919,0.06502 -0.36742,0.02115 -0.44054,-0.0972 -0.21082,-0.341093 -0.55641,-0.24997 -0.55641,0.146473 m -4.86914,0.877483 c -0.0794,0.206996 0.0128,0.525815 0.20857,0.721562 0.47789,0.477891 1.11171,0.204071 1.02013,-0.440992 -0.0887,-0.624813 -1.0154,-0.836309 -1.2287,-0.28057 m 6.29988,0 c -0.0783,0.204071 0.005,0.518616 0.18608,0.699062 0.45021,0.450217 1.12542,0.159072 1.0388,-0.447966 -0.0853,-0.598039 -1.01833,-0.789286 -1.22488,-0.251096 m -8.09872,0.446842 c -0.0779,0.203171 -0.0337,0.477216 0.0981,0.609063 0.34289,0.342894 0.99223,0.02947 0.90268,-0.435366 -0.0997,-0.517941 -0.82056,-0.643038 -1.00078,-0.173697 m 10.28231,-0.01575 c -0.34919,0.420742 -0.12757,0.80481 0.46462,0.80481 0.33636,0 0.43379,-0.125323 0.38046,-0.488691 -0.09,-0.610413 -0.47969,-0.756436 -0.84508,-0.316119 m 69.95929,0.28867 c -0.77421,0.283044 -1.34998,1.054105 -1.34998,1.807616 0,1.684543 1.09506,2.239833 2.79468,1.417023 1.08447,-0.524915 1.70524,-1.502747 1.70524,-2.686224 v -0.697262 l -1.40623,0.01777 c -0.77331,0.0097 -1.55809,0.07335 -1.74371,0.141073 m -79.74053,1.106754 c -0.0835,0.217121 -0.0144,0.524465 0.15637,0.695012 0.43019,0.430417 1.10045,0.119923 1.01631,-0.470466 -0.0864,-0.605014 -0.96254,-0.772861 -1.17268,-0.224546 m 8.94155,-0.01058 c -0.0749,0.195072 0.0295,0.52064 0.23198,0.723137 0.34109,0.340868 0.39554,0.340868 0.73663,0 0.45989,-0.460117 0.24885,-1.07818 -0.36832,-1.07818 -0.25537,0 -0.52536,0.159747 -0.60029,0.355043 m -11.01871,0.434017 c -0.0794,0.206996 0.0128,0.525815 0.20857,0.721562 0.47789,0.477891 1.1117,0.204071 1.02013,-0.440992 -0.0887,-0.624813 -1.01541,-0.83631 -1.2287,-0.28057 m 13.0565,-0.01732 c -0.22409,0.583864 0.0898,1.066255 0.64281,0.987732 0.3717,-0.05287 0.50715,-0.222071 0.50715,-0.634488 0,-0.412418 -0.13545,-0.581614 -0.50715,-0.634488 -0.30441,-0.0432 -0.56158,0.0693 -0.64281,0.281244 m -12.1293,2.385409 c -0.0873,0.141297 -0.0529,0.362918 0.0765,0.49229 0.30239,0.302395 1.00731,0.0387 0.88423,-0.330968 -0.12509,-0.375968 -0.76183,-0.483066 -0.96073,-0.161322 m 11.47479,0 c -0.0873,0.141297 -0.0529,0.362918 0.0765,0.49229 0.30239,0.302395 1.0073,0.0387 0.88423,-0.330968 -0.1251,-0.375968 -0.76184,-0.483066 -0.96073,-0.161322 M 12.0537,14.978193 c -0.19439,0.194622 -0.35347,0.491166 -0.35347,0.659013 0,0.439417 0.63674,1.012481 1.12498,1.012481 0.48824,0 1.12498,-0.573064 1.12498,-1.012481 0,-0.439417 -0.63674,-1.012481 -1.12498,-1.012481 -0.22972,0 -0.57689,0.159072 -0.77151,0.353468 m 16.66859,0.05805 c -0.47722,0.527165 -0.46912,0.78096 0.0392,1.241077 0.55304,0.500615 1.32005,0.470691 1.60557,-0.06277 0.31634,-0.591289 0.29384,-0.821685 -0.1206,-1.236352 -0.46979,-0.469566 -1.06715,-0.447066 -1.52412,0.05805 m -12.92646,0.771061 c -0.51164,0.616488 -0.55056,1.499596 -0.0999,2.263682 l 0.44347,0.751486 -1.4834,-0.411517 c -1.69489,-0.470016 -2.05579,-0.502641 -2.05579,-0.186297 0,0.123748 0.30622,0.224996 0.68062,0.224996 0.92473,0 3.03451,0.764761 3.89917,1.413424 1.11711,0.838109 1.44853,0.937332 0.66982,0.200471 l -0.71257,-0.674538 0.54112,-0.135672 c 1.27213,-0.319269 1.55112,-2.096961 0.50399,-3.21159 -0.54359,-0.578689 -1.98356,-0.720211 -2.38653,-0.234445 m 8.32192,0.234445 c -1.04713,1.114629 -0.76814,2.892321 0.50399,3.21159 l 0.54111,0.135672 -0.71256,0.674538 c -0.77871,0.736861 -0.44729,0.637638 0.66981,-0.200471 0.86466,-0.648663 2.97445,-1.413424 3.89918,-1.413424 0.37439,0 0.68061,-0.101248 0.68061,-0.224996 0,-0.316344 -0.36089,-0.283719 -2.05578,0.186297 l -1.4834,0.411517 0.44347,-0.751486 c 0.45066,-0.764086 0.41174,-1.647194 -0.0999,-2.263682 -0.40297,-0.485766 -1.84294,-0.344244 -2.38653,0.234445 m -8.0976,-0.02205 c -0.1485,0.148497 -0.25492,0.629538 -0.23625,1.06873 0.029,0.687812 0.0468,0.712111 0.1278,0.175046 0.1116,-0.738436 0.95151,-1.365499 1.5311,-1.143203 0.27944,0.107323 0.35549,0.0738 0.24344,-0.107323 -0.21239,-0.343569 -1.32027,-0.339069 -1.66609,0.0068 m 8.59371,-0.0068 c -0.11204,0.181121 -0.036,0.214646 0.24345,0.107323 0.57959,-0.222296 1.4195,0.404767 1.53109,1.143203 0.081,0.537065 0.0988,0.512766 0.1278,-0.175046 0.0187,-0.439417 -0.0877,-0.920233 -0.23624,-1.06873 -0.34582,-0.345819 -1.4537,-0.350319 -1.6661,-0.0068 m -13.34765,1.301825 c -0.37259,0.230396 -0.15569,0.909883 0.29047,0.909883 0.17617,0 0.37575,-0.144447 0.44369,-0.321069 0.16313,-0.425467 -0.34244,-0.830909 -0.73416,-0.588814 m 19.26347,-0.06975 c -0.3312,0.330968 -0.15705,1.013156 0.23894,0.936882 0.21667,-0.04185 0.39375,-0.268645 0.39375,-0.50399 0,-0.447742 -0.36697,-0.698837 -0.63269,-0.432892 m -12.17205,0.473616 c -0.19687,0.611988 -0.92136,1.037455 -1.5059,0.884683 -0.23489,-0.06142 -0.37056,-0.0198 -0.30104,0.09225 0.0693,0.112273 0.42142,0.204072 0.78253,0.204072 0.69569,0 1.47418,-0.846884 1.28586,-1.399024 -0.0583,-0.170322 -0.16515,-0.08122 -0.26145,0.218021 M 23.63406,17.5557 c -0.0173,0.657887 0.66711,1.3439 1.34052,1.3439 0.35684,0 0.72111,-0.116998 0.80931,-0.25987 0.10237,-0.165147 0.0614,-0.198447 -0.11182,-0.09112 -0.47227,0.291595 -1.3475,-0.08032 -1.6949,-0.720661 -0.18922,-0.348969 -0.33794,-0.466867 -0.34311,-0.272245 m -3.65956,0.569735 c -1.37495,0.746086 -1.34232,1.958363 0.0641,2.379781 0.78749,0.23602 0.88648,0.344468 0.88648,0.972431 0,1.212503 -0.96838,1.654394 -1.87039,0.853184 -0.43469,-0.386317 -0.44009,-0.376643 -0.27989,0.506241 0.26437,1.455948 1.2503,2.282807 1.2503,1.048705 0,-0.831584 0.84418,-1.279551 1.68747,-0.895258 0.40769,0.185846 0.56249,0.431992 0.56249,0.895258 0,1.234102 0.98593,0.407243 1.2503,-1.048705 0.1602,-0.882884 0.1548,-0.892558 -0.2799,-0.506241 -0.902,0.80121 -1.87039,0.359319 -1.87039,-0.853184 0,-0.627963 0.099,-0.736411 0.88649,-0.972431 1.42782,-0.427717 1.43705,-1.656869 0.018,-2.390806 -0.81719,-0.422542 -1.5122,-0.419167 -2.30508,0.01103 m -8.85696,0.858584 c -0.26977,0.702662 0.003,1.153103 0.69838,1.153103 0.59647,0 0.67184,-0.0756 0.67184,-0.674987 0,-0.569464 -0.097,-0.686237 -0.62009,-0.746311 -0.39554,-0.04545 -0.66711,0.05152 -0.75013,0.268195 m 18.67465,0 c -0.26977,0.702662 0.003,1.153103 0.69838,1.153103 0.59647,0 0.67184,-0.0756 0.67184,-0.674987 0,-0.569464 -0.097,-0.686237 -0.62009,-0.746311 -0.39554,-0.04545 -0.66711,0.05152 -0.75013,0.268195 m -17.71774,1.656194 c -0.0826,0.133647 0.49454,0.175497 1.51714,0.109798 1.20643,-0.0774 1.97614,0.0011 2.86082,0.292044 1.86679,0.614014 1.95027,0.620539 0.98526,0.0774 -0.71099,-0.400042 -1.3547,-0.526265 -3.06489,-0.600739 -1.24805,-0.05422 -2.22161,-0.0027 -2.29833,0.121498 M 25.65,20.777695 c -0.81404,0.29272 -1.94824,0.930583 -1.34998,0.759136 0.18562,-0.0531 0.88221,-0.275845 1.54775,-0.494766 0.88468,-0.290919 1.65439,-0.369443 2.86082,-0.292044 0.90786,0.05827 1.59747,0.02025 1.53267,-0.0846 -0.18112,-0.29317 -3.70366,-0.206997 -4.59126,0.112272 m -13.04976,0.709412 c 0,0.185622 0.15187,0.337494 0.33749,0.337494 0.18563,0 0.3375,-0.151872 0.3375,-0.337494 0,-0.185621 -0.15187,-0.337494 -0.3375,-0.337494 -0.18562,0 -0.33749,0.151873 -0.33749,0.337494 m 16.47622,-0.0702 c 0.13904,0.417143 0.62346,0.486216 0.62346,0.08887 0,-0.195747 -0.16042,-0.356169 -0.35617,-0.356169 -0.19597,0 -0.31634,0.120148 -0.26729,0.267295 m -17.67635,0.503766 c -0.19124,0.498366 0.40387,0.883783 0.73956,0.479016 0.15098,-0.181797 0.20902,-0.436042 0.12915,-0.565189 -0.20969,-0.339519 -0.72493,-0.288445 -0.86871,0.08617 m 33.5219,1.760142 c 2.03846,6.744474 1.83439,6.243633 2.54538,6.243633 0.71841,0 0.76881,-0.117673 1.85509,-4.331169 0.27922,-1.08268 0.56046,-1.968713 0.62481,-1.968713 0.0646,0 0.50827,1.423098 0.98616,3.162316 l 0.86916,3.16209 0.69478,-0.0684 0.69479,-0.06862 1.1612,-3.937426 c 1.10136,-3.735155 1.13826,-3.941251 0.71504,-4.0128 -0.24525,-0.0414 -0.52784,0.0092 -0.62819,0.112498 -0.10035,0.103273 -0.57981,1.645169 -1.0658,3.426461 -0.48577,1.781291 -0.93126,3.148141 -0.98976,3.037443 -0.0585,-0.110698 -0.50264,-1.643819 -0.98683,-3.407336 -0.80661,-2.936645 -0.92406,-3.20619 -1.39655,-3.20619 -0.61086,0 -0.56474,-0.107098 -1.62447,3.762604 -0.45989,1.678469 -0.88378,2.96117 -0.94206,2.850697 -0.0585,-0.110473 -0.50264,-1.643594 -0.98683,-3.407111 -0.85386,-3.108542 -0.89908,-3.20619 -1.48385,-3.20619 h -0.60299 l 0.56092,1.856215 M 58.42333,21.99334 c -0.0565,0.0927 -0.66329,1.535596 -1.34862,3.20619 -0.68512,1.670593 -1.40555,3.417235 -1.60107,3.881177 l -0.35527,0.843734 h 0.63359 c 0.55641,0 0.68286,-0.137023 1.03813,-1.124979 l 0.40454,-1.124979 h 1.88366 1.88344 l 0.48397,1.124979 c 0.39509,0.918208 0.58679,1.124979 1.04285,1.124979 0.4392,0 0.52694,-0.08437 0.4095,-0.393743 -0.0819,-0.216671 -0.81449,-2.038911 -1.62762,-4.049924 -1.4186,-3.508134 -1.5041,-3.656181 -2.11159,-3.656181 -0.34807,0 -0.67903,0.07605 -0.73551,0.168747 m 5.47595,3.881177 v 4.049924 h 2.69995 c 2.54987,0 2.69995,-0.02498 2.69995,-0.449992 0,-0.418492 -0.15008,-0.449991 -2.13746,-0.449991 h -2.13746 v -3.599933 -3.599932 h -0.56249 -0.56249 v 4.049924 m 6.74987,0 v 4.049924 h 2.69995 c 2.54988,0 2.69995,-0.02498 2.69995,-0.449992 0,-0.418492 -0.15007,-0.449991 -2.13746,-0.449991 h -2.13746 v -3.599933 -3.599932 h -0.56249 -0.56249 v 4.049924 m 6.52488,0 v 4.049924 h 3.26244 c 3.11236,0 3.26244,-0.0207 3.26244,-0.449992 0,-0.425017 -0.15008,-0.449991 -2.69995,-0.449991 h -2.69995 v -1.349975 -1.349975 h 2.47495 c 2.32488,0 2.47496,-0.02722 2.47496,-0.449991 0,-0.422767 -0.15008,-0.449992 -2.47496,-0.449992 h -2.47495 v -1.349974 -1.349975 h 2.58745 c 2.43738,0 2.58745,-0.0261 2.58745,-0.449992 0,-0.428617 -0.15007,-0.449991 -3.14994,-0.449991 h -3.14994 v 4.049924 m 7.19986,-3.599933 c 0,0.403868 0.15008,0.449992 1.46248,0.449992 h 1.46247 v 3.599932 3.599933 h 0.56249 0.56249 v -3.599933 -3.599932 h 1.34997 c 1.19991,0 1.34998,-0.04995 1.34998,-0.449992 0,-0.429967 -0.15007,-0.449991 -3.37494,-0.449991 -3.22486,0 -3.37494,0.02002 -3.37494,0.449991 m -26.01581,2.535703 -0.69006,1.851715 1.34165,0.06772 c 0.73799,0.03712 1.39182,0.01755 1.45302,-0.04365 0.10935,-0.109348 -1.0154,-3.24174 -1.27955,-3.563259 -0.074,-0.09022 -0.44526,0.669138 -0.82506,1.687469 M 13.52385,23.93348 c -0.37484,0.451792 -0.0551,1.077505 0.50894,0.996732 0.55259,-0.0792 0.77714,-0.825285 0.33322,-1.10653 -0.41692,-0.26437 -0.54561,-0.247495 -0.84216,0.109798 m 14.41031,-0.109798 c -0.45562,0.28867 -0.21375,1.028231 0.36291,1.110354 0.60457,0.08617 0.90134,-0.49184 0.50039,-0.974906 -0.31814,-0.383393 -0.44166,-0.402743 -0.8633,-0.135448 M 15.1508,24.427121 c -0.18765,0.488691 0.28844,0.948357 0.62931,0.607489 0.28799,-0.287995 0.10957,-0.960057 -0.25492,-0.960057 -0.13162,0 -0.29992,0.158622 -0.37439,0.352568 m 11.24978,0 c -0.18764,0.488691 0.28845,0.948357 0.62932,0.607489 0.28799,-0.287995 0.10957,-0.960057 -0.25492,-0.960057 -0.13163,0 -0.29992,0.158622 -0.3744,0.352568 m -10.5253,1.202152 c -0.21712,0.351219 0.1386,0.945658 0.52199,0.872759 0.20092,-0.03825 0.39779,-0.296319 0.43739,-0.573514 0.054,-0.378668 -0.0407,-0.503991 -0.38046,-0.503991 -0.24885,0 -0.50939,0.09202 -0.57892,0.204746 m 9.58797,0.283495 c 0.0959,0.677462 0.97423,0.744286 0.97423,0.07425 0,-0.29992 -0.17482,-0.474741 -0.52424,-0.52424 -0.43626,-0.06187 -0.51186,0.01372 -0.44999,0.449991 m -7.53803,0.561815 c -0.25897,0.258745 -0.16402,0.524915 0.18742,0.524915 0.18562,0 0.33749,-0.151872 0.33749,-0.337494 0,-0.351443 -0.26617,-0.446392 -0.52491,-0.187421 m 5.92481,0.168746 c 0,0.195747 0.16042,0.356169 0.35617,0.356169 0.39734,0 0.32827,-0.484416 -0.0889,-0.623464 -0.14715,-0.04905 -0.26729,0.07132 -0.26729,0.267295 m -4.72492,0.262346 c 0,0.195971 0.12015,0.316344 0.2673,0.267295 0.41714,-0.139048 0.48621,-0.623464 0.0889,-0.623464 -0.19575,0 -0.35617,0.160422 -0.35617,0.356169 M 22.6562,26.69328 c -0.17977,0.179771 0.0234,0.531215 0.30712,0.531215 0.11655,0 0.21172,-0.151873 0.21172,-0.337494 0,-0.347844 -0.26549,-0.447067 -0.51884,-0.193721"
     stroke="none"
     fill="#346491"
     fill-rule="evenodd"
     id="path2"
     style="stroke-width:0.224996" />
</svg>
