<svg xmlns="http://www.w3.org/2000/svg" width="146" height="36" viewBox="0 0 644 160" version="1.1"><path d="M 83 8.132 C 56.047 12.533, 33.681 31.372, 25.400 56.649 C 22.760 64.708, 22.500 66.753, 22.500 79.500 C 22.500 92.215, 22.756 94.246, 25.291 101.627 C 33.273 124.867, 50.960 141.568, 75 148.565 C 84.096 151.213, 103.904 151.213, 113 148.565 C 137.040 141.568, 154.727 124.867, 162.709 101.627 C 165.244 94.246, 165.500 92.215, 165.500 79.500 C 165.500 66.753, 165.240 64.708, 162.600 56.649 C 151.801 23.685, 117.137 2.558, 83 8.132 M 259 39 L 259 68 263 68 L 267 68 267 53.565 C 267 45.626, 267.430 37.999, 267.955 36.617 C 270.195 30.726, 280.495 28.423, 284.191 32.988 C 285.772 34.940, 286 37.289, 286 51.611 L 286 68 289.562 68 L 293.124 68 292.812 49.520 C 292.501 31.077, 292.495 31.035, 289.868 28.411 C 288.063 26.608, 285.802 25.619, 282.677 25.267 C 276.680 24.591, 273.727 25.422, 269.768 28.901 L 266.500 31.773 266.838 20.886 L 267.177 10 263.088 10 L 259 10 259 39 M 459 39 L 459 68 463 68 L 467 68 467 53.565 C 467 45.626, 467.430 37.999, 467.955 36.617 C 470.195 30.726, 480.495 28.423, 484.191 32.988 C 485.772 34.940, 486 37.289, 486 51.611 L 486 68 489.562 68 L 493.124 68 492.812 49.520 C 492.501 31.077, 492.495 31.035, 489.868 28.411 C 488.063 26.608, 485.802 25.619, 482.677 25.267 C 476.680 24.591, 473.727 25.422, 469.768 28.901 L 466.500 31.773 466.838 20.886 L 467.177 10 463.088 10 L 459 10 459 39 M 530 20.687 L 530 31.374 527.022 28.521 C 524.695 26.292, 522.892 25.583, 518.772 25.279 C 507.169 24.422, 501.471 31.770, 501.539 47.500 C 501.569 54.359, 502.045 57.448, 503.539 60.487 C 508.204 69.971, 519.756 71.982, 527.750 64.701 L 530 62.651 530 65.326 C 530 67.715, 530.372 68, 533.500 68 L 537 68 537 39 L 537 10 533.500 10 L 530 10 530 20.687 M 79 13.547 C 56.122 18.433, 33.929 40.231, 28.535 63.114 C 26.605 71.302, 26.605 86.698, 28.535 94.886 C 32.649 112.338, 47.502 130.708, 64.064 138.828 C 87.816 150.473, 113.880 147.868, 135.712 131.670 C 146.408 123.733, 155.968 109.443, 159.573 96 C 161.913 87.277, 161.913 70.723, 159.573 62 C 151.708 32.675, 124.147 11.859, 93.500 12.097 C 89.100 12.131, 82.575 12.784, 79 13.547 M 218.222 13.410 C 208.073 16.721, 202.222 25.021, 201.283 37.439 C 200.296 50.488, 205.437 61.613, 214.474 65.988 C 227.235 72.165, 243.961 68.038, 250.282 57.153 L 252.063 54.084 248.826 52.410 C 246.519 51.217, 245.476 51.072, 245.198 51.905 C 244.284 54.649, 239.284 59.420, 235.541 61.120 C 225.428 65.714, 213.562 60.293, 209.981 49.442 C 208.337 44.461, 209.150 32.393, 211.448 27.661 C 216.699 16.849, 233.404 14.813, 241.289 24.024 C 244.514 27.792, 244.861 27.944, 247.847 26.903 C 249.581 26.299, 251 25.503, 251 25.134 C 251 22.831, 245.390 16.883, 241.391 14.947 C 235.569 12.129, 224.416 11.389, 218.222 13.410 M 394.392 21.250 C 393.631 24.877, 393.097 25.546, 390.750 25.816 C 388.590 26.065, 388 26.655, 388 28.566 C 388 30.478, 388.522 31, 390.434 31 L 392.868 31 393.184 48.090 C 393.490 64.664, 393.571 65.239, 395.861 67.090 C 398.188 68.973, 404.154 69.646, 407.418 68.393 C 408.288 68.059, 409 66.709, 409 65.393 C 409 63.352, 408.514 63, 405.700 63 C 400.310 63, 400 62.065, 400 45.800 L 400 31 404 31 C 407.600 31, 408 30.750, 408 28.500 C 408 26.250, 407.600 26, 404 26 L 400 26 400 21.500 C 400 17.439, 399.770 17, 397.642 17 C 395.675 17, 395.136 17.704, 394.392 21.250 M 311.989 27.250 C 305.548 30.518, 302.526 36.825, 302.526 47 C 302.526 57.175, 305.548 63.482, 311.989 66.750 C 320.025 70.827, 330.742 69.335, 335.940 63.416 C 339.389 59.488, 339.286 58.479, 335.359 57.728 C 333.297 57.334, 332.149 57.858, 330.326 60.024 C 327.423 63.475, 321.390 64.778, 317.339 62.829 C 313.579 61.021, 310 55.424, 310 51.352 L 310 48 325 48 L 340 48 340 45.182 C 340 40.217, 337.132 32.500, 334.274 29.773 C 328.669 24.427, 319.582 23.398, 311.989 27.250 M 355.989 27.250 C 349.548 30.518, 346.526 36.825, 346.526 47 C 346.526 57.175, 349.548 63.482, 355.989 66.750 C 364.025 70.827, 374.742 69.335, 379.940 63.416 C 383.389 59.488, 383.286 58.479, 379.359 57.728 C 377.297 57.334, 376.149 57.858, 374.326 60.024 C 371.423 63.475, 365.390 64.778, 361.339 62.829 C 357.579 61.021, 354 55.424, 354 51.352 L 354 48 369 48 L 384 48 384 45.182 C 384 40.217, 381.132 32.500, 378.274 29.773 C 372.669 24.427, 363.582 23.398, 355.989 27.250 M 421.440 26.888 C 416.957 28.924, 413.093 34.803, 415.311 36.213 C 417.784 37.786, 421.512 37.031, 422.513 34.754 C 423.904 31.590, 428.431 29.671, 432.641 30.460 C 437.316 31.337, 440 34.219, 440 38.361 L 440 41.723 431.217 42.223 C 421.816 42.759, 417.006 44.508, 414.583 48.271 C 410.438 54.709, 412.441 64.558, 418.479 67.423 C 424.975 70.506, 433.687 68.756, 437.787 63.544 L 439.909 60.846 441.389 64.387 C 442.964 68.159, 445.562 69.407, 450.629 68.828 C 452.720 68.589, 453.587 67.888, 453.820 66.250 C 454.079 64.424, 453.661 64, 451.605 64 C 447.741 64, 447 61.319, 446.996 47.316 C 446.992 32.662, 445.686 29.020, 439.510 26.440 C 434.764 24.457, 426.332 24.666, 421.440 26.888 M 554.989 27.250 C 548.548 30.518, 545.526 36.825, 545.526 47 C 545.526 57.175, 548.548 63.482, 554.989 66.750 C 563.025 70.827, 573.742 69.335, 578.940 63.416 C 582.389 59.488, 582.286 58.479, 578.359 57.728 C 576.297 57.334, 575.149 57.858, 573.326 60.024 C 570.423 63.475, 564.390 64.778, 560.339 62.829 C 556.579 61.021, 553 55.424, 553 51.352 L 553 48 568 48 L 583 48 583 45.182 C 583 40.217, 580.132 32.500, 577.274 29.773 C 571.669 24.427, 562.582 23.398, 554.989 27.250 M 590.519 28.669 C 591.481 30.137, 594.658 34.712, 597.580 38.836 L 602.892 46.334 595.384 57.167 L 587.877 68 591.854 68 C 595.757 68, 595.932 67.841, 601.326 59.375 L 606.821 50.750 612.560 59.375 C 618.139 67.758, 618.410 68, 622.209 68 L 626.117 68 619.809 58.971 C 616.339 54.005, 612.929 49.125, 612.231 48.127 C 611.126 46.545, 611.775 45.164, 617.279 37.387 C 620.753 32.479, 623.938 27.909, 624.357 27.231 C 624.910 26.336, 624.047 26, 621.196 26 C 617.377 26, 617.137 26.216, 612.070 34.176 L 606.865 42.353 601.688 34.176 C 596.664 26.241, 596.397 26, 592.641 26 L 588.770 26 590.519 28.669 M 315.381 31.853 C 312.536 33.639, 310 38.256, 310 41.649 C 310 42.705, 312.492 43, 321.395 43 L 332.789 43 331.964 39.343 C 330.216 31.588, 321.833 27.802, 315.381 31.853 M 359.381 31.853 C 356.536 33.639, 354 38.256, 354 41.649 C 354 42.705, 356.492 43, 365.395 43 L 376.789 43 375.964 39.343 C 374.216 31.588, 365.833 27.802, 359.381 31.853 M 514.308 31.195 C 507.692 34.392, 507.007 56.616, 513.362 61.886 C 516.075 64.136, 522.698 63.633, 525.542 60.961 C 529.749 57.008, 531.314 46.272, 528.933 37.698 C 527.219 31.525, 520.139 28.377, 514.308 31.195 M 558.381 31.853 C 555.536 33.639, 553 38.256, 553 41.649 C 553 42.705, 555.492 43, 564.395 43 L 575.789 43 574.964 39.343 C 573.216 31.588, 564.833 27.802, 558.381 31.853 M 46.299 37.960 C 39.605 42.041, 37.665 53.072, 42.608 58.946 C 46.062 63.050, 48.851 64.553, 49.564 62.693 C 49.863 61.915, 48.531 59.731, 46.550 57.750 C 42.359 53.559, 41.901 49.513, 45.042 44.432 C 48.760 38.417, 56.897 37.736, 62.472 42.974 C 63.871 44.288, 64.994 44.622, 65.976 44.015 C 67.197 43.260, 67.117 42.787, 65.463 40.959 C 60.753 35.754, 52.129 34.405, 46.299 37.960 M 126.500 37.842 C 124.850 38.850, 122.854 40.458, 122.064 41.414 C 120.825 42.914, 120.823 43.273, 122.049 44.030 C 123 44.618, 124.150 44.269, 125.528 42.974 C 131.103 37.736, 139.240 38.417, 142.958 44.432 C 146.099 49.513, 145.641 53.559, 141.450 57.750 C 139.469 59.731, 138.137 61.915, 138.436 62.693 C 139.149 64.553, 141.938 63.050, 145.392 58.946 C 148.480 55.276, 148.975 47.786, 146.451 42.906 C 143.124 36.471, 132.961 33.891, 126.500 37.842 M 85 38.098 C 77.269 39.608, 67.952 44.899, 61.240 51.592 C 51.038 61.766, 45.154 77.011, 46.732 89.180 C 47.214 92.899, 51.311 104.009, 52.195 103.995 C 52.363 103.993, 55.200 102.879, 58.500 101.519 C 64.844 98.906, 76.957 98.044, 80 99.990 C 81.012 100.637, 79.874 100.761, 76.500 100.371 C 70.696 99.700, 61.484 101.202, 56.293 103.665 L 52.675 105.382 57.515 109.764 C 66.930 118.288, 77.937 121.970, 94 121.970 C 110.063 121.970, 121.070 118.288, 130.485 109.764 L 135.325 105.382 131.707 103.665 C 126.516 101.202, 117.304 99.700, 111.500 100.371 C 108.126 100.761, 106.988 100.637, 108 99.990 C 111.043 98.044, 123.156 98.906, 129.500 101.519 C 132.800 102.879, 135.597 103.993, 135.715 103.995 C 135.833 103.998, 136.448 103.032, 137.081 101.848 C 138.039 100.058, 137.982 99.793, 136.738 100.270 C 134.863 100.990, 132.983 99.209, 133.685 97.378 C 134.395 95.529, 136.693 95.630, 137.772 97.556 C 138.446 98.762, 138.896 98.255, 139.769 95.306 C 144.129 80.565, 139.198 63.996, 126.760 51.592 C 115.016 39.881, 100.270 35.116, 85 38.098 M 92.336 39.567 C 91.502 41.739, 93.618 43.782, 95.133 42.267 C 96.413 40.987, 95.620 38, 94 38 C 93.415 38, 92.667 38.705, 92.336 39.567 M 86.527 39.956 C 86.202 40.482, 85.275 40.659, 84.468 40.349 C 83.553 39.998, 83 40.391, 83 41.393 C 83 43.155, 84.536 43.560, 85.473 42.044 C 85.798 41.518, 86.725 41.341, 87.532 41.651 C 88.447 42.002, 89 41.609, 89 40.607 C 89 38.845, 87.464 38.440, 86.527 39.956 M 99 40.607 C 99 41.561, 99.560 41.999, 100.378 41.685 C 101.136 41.394, 102.222 41.622, 102.791 42.191 C 104.032 43.432, 106.295 42.287, 105.415 40.863 C 105.076 40.313, 104.183 40.100, 103.431 40.388 C 102.679 40.677, 101.798 40.482, 101.473 39.956 C 100.536 38.440, 99 38.845, 99 40.607 M 77.359 44.507 C 77.006 45.427, 77.416 46.844, 78.286 47.714 C 80.410 49.838, 83.227 48.621, 82.820 45.754 C 82.426 42.977, 78.307 42.037, 77.359 44.507 M 105.359 44.507 C 105.011 45.414, 105.383 46.812, 106.186 47.614 C 108.187 49.615, 111.188 48.321, 110.803 45.623 C 110.424 42.965, 106.277 42.115, 105.359 44.507 M 69.364 46.493 C 69.018 47.396, 69.214 48.614, 69.800 49.200 C 71.324 50.724, 74.210 49.331, 73.812 47.265 C 73.369 44.963, 70.165 44.407, 69.364 46.493 M 115.064 46.423 C 113.512 48.293, 114.497 50, 117.129 50 C 118.624 50, 119.057 49.443, 118.820 47.828 C 118.420 45.115, 116.688 44.466, 115.064 46.423 M 426 47.706 C 422.559 48.964, 420 52.391, 420 55.740 C 420 63.227, 424.867 65.695, 432.421 62.038 C 437.241 59.705, 440 55.359, 440 50.099 L 440 47 433.750 47.079 C 430.313 47.122, 426.825 47.405, 426 47.706 M 71.591 52.625 C 71.220 53.590, 71.527 54.956, 72.286 55.714 C 74.198 57.627, 77.177 56.247, 76.803 53.623 C 76.419 50.934, 72.525 50.188, 71.591 52.625 M 111.332 52.578 C 110.999 53.445, 111.463 54.892, 112.363 55.792 C 113.879 57.307, 114.121 57.307, 115.637 55.792 C 117.681 53.747, 116.743 51, 114 51 C 112.865 51, 111.665 51.710, 111.332 52.578 M 62.359 54.507 C 62.006 55.427, 62.416 56.844, 63.286 57.714 C 65.410 59.838, 68.227 58.621, 67.820 55.754 C 67.426 52.977, 63.307 52.037, 62.359 54.507 M 120.389 54.430 C 119.393 57.025, 120.788 59.169, 123.246 58.820 C 124.898 58.585, 125.500 57.833, 125.500 56 C 125.500 54.167, 124.898 53.415, 123.246 53.180 C 121.893 52.988, 120.750 53.488, 120.389 54.430 M 66.480 65.032 C 66.092 65.660, 66.245 66.645, 66.820 67.220 C 68.164 68.564, 71.297 67.392, 70.750 65.749 C 70.194 64.078, 67.364 63.602, 66.480 65.032 M 117.480 65.032 C 117.092 65.660, 117.245 66.645, 117.820 67.220 C 119.164 68.564, 122.297 67.392, 121.750 65.749 C 121.194 64.078, 118.364 63.602, 117.480 65.032 M 53.571 66.571 C 52.707 67.436, 52 68.754, 52 69.500 C 52 71.453, 54.830 74, 57 74 C 59.170 74, 62 71.453, 62 69.500 C 62 67.547, 59.170 65, 57 65 C 55.979 65, 54.436 65.707, 53.571 66.571 M 127.655 66.829 C 125.534 69.172, 125.570 70.300, 127.829 72.345 C 130.287 74.570, 133.696 74.437, 134.965 72.066 C 136.371 69.438, 136.271 68.414, 134.429 66.571 C 132.341 64.484, 129.686 64.584, 127.655 66.829 M 70.203 70.256 C 67.929 72.996, 67.756 76.921, 69.759 80.317 L 71.730 83.657 65.137 81.828 C 57.604 79.739, 56 79.594, 56 81 C 56 81.550, 57.361 82, 59.025 82 C 63.135 82, 72.512 85.399, 76.355 88.282 C 81.320 92.007, 82.793 92.448, 79.332 89.173 L 76.165 86.175 78.570 85.572 C 84.224 84.153, 85.464 76.252, 80.810 71.298 C 78.394 68.726, 71.994 68.097, 70.203 70.256 M 107.190 71.298 C 102.536 76.252, 103.776 84.153, 109.430 85.572 L 111.835 86.175 108.668 89.173 C 105.207 92.448, 106.680 92.007, 111.645 88.282 C 115.488 85.399, 124.865 82, 128.975 82 C 130.639 82, 132 81.550, 132 81 C 132 79.594, 130.396 79.739, 122.863 81.828 L 116.270 83.657 118.241 80.317 C 120.244 76.921, 120.071 72.996, 117.797 70.256 C 116.006 68.097, 109.606 68.726, 107.190 71.298 M 71.200 71.200 C 70.540 71.860, 70.067 73.998, 70.150 75.950 C 70.279 79.007, 70.358 79.115, 70.718 76.728 C 71.214 73.446, 74.947 70.659, 77.523 71.647 C 78.765 72.124, 79.103 71.975, 78.605 71.170 C 77.661 69.643, 72.737 69.663, 71.200 71.200 M 109.395 71.170 C 108.897 71.975, 109.235 72.124, 110.477 71.647 C 113.053 70.659, 116.786 73.446, 117.282 76.728 C 117.642 79.115, 117.721 79.007, 117.850 75.950 C 117.933 73.997, 117.460 71.860, 116.800 71.200 C 115.263 69.663, 110.339 69.643, 109.395 71.170 M 50.071 76.956 C 48.415 77.980, 49.379 81, 51.362 81 C 52.145 81, 53.032 80.358, 53.334 79.573 C 54.059 77.682, 51.812 75.880, 50.071 76.956 M 135.688 76.646 C 134.216 78.117, 134.990 81.149, 136.750 80.810 C 137.713 80.624, 138.500 79.616, 138.500 78.570 C 138.500 76.580, 136.869 75.464, 135.688 76.646 M 81.589 78.751 C 80.714 81.471, 77.494 83.362, 74.896 82.683 C 73.852 82.410, 73.249 82.595, 73.558 83.093 C 73.866 83.592, 75.431 84, 77.036 84 C 80.128 84, 83.588 80.236, 82.751 77.782 C 82.492 77.025, 82.017 77.421, 81.589 78.751 M 105.040 78.027 C 104.963 80.951, 108.005 84, 110.998 84 C 112.584 84, 114.203 83.480, 114.595 82.845 C 115.050 82.111, 114.868 81.963, 114.098 82.440 C 111.999 83.736, 108.109 82.083, 106.565 79.237 C 105.724 77.686, 105.063 77.162, 105.040 78.027 M 88.775 80.559 C 82.664 83.875, 82.809 89.263, 89.060 91.136 C 92.560 92.185, 93 92.667, 93 95.458 C 93 100.847, 88.696 102.811, 84.687 99.250 C 82.755 97.533, 82.731 97.576, 83.443 101.500 C 84.618 107.971, 89 111.646, 89 106.161 C 89 102.465, 92.752 100.474, 96.500 102.182 C 98.312 103.008, 99 104.102, 99 106.161 C 99 111.646, 103.382 107.971, 104.557 101.500 C 105.269 97.576, 105.245 97.533, 103.313 99.250 C 99.304 102.811, 95 100.847, 95 95.458 C 95 92.667, 95.440 92.185, 98.940 91.136 C 105.286 89.235, 105.327 83.772, 99.020 80.510 C 95.388 78.632, 92.299 78.647, 88.775 80.559 M 49.410 84.375 C 48.211 87.498, 49.424 89.500, 52.514 89.500 C 55.165 89.500, 55.500 89.164, 55.500 86.500 C 55.500 83.969, 55.069 83.450, 52.744 83.183 C 50.986 82.981, 49.779 83.412, 49.410 84.375 M 132.410 84.375 C 131.211 87.498, 132.424 89.500, 135.514 89.500 C 138.165 89.500, 138.500 89.164, 138.500 86.500 C 138.500 83.969, 138.069 83.450, 135.744 83.183 C 133.986 82.981, 132.779 83.412, 132.410 84.375 M 53.663 91.736 C 53.296 92.330, 55.861 92.516, 60.406 92.224 C 65.768 91.880, 69.189 92.229, 73.121 93.522 C 81.418 96.251, 81.789 96.280, 77.500 93.866 C 74.340 92.088, 71.479 91.527, 63.878 91.196 C 58.331 90.955, 54.004 91.184, 53.663 91.736 M 114 92.347 C 110.382 93.648, 105.341 96.483, 108 95.721 C 108.825 95.485, 111.921 94.495, 114.879 93.522 C 118.811 92.229, 122.232 91.880, 127.594 92.224 C 131.629 92.483, 134.694 92.314, 134.406 91.848 C 133.601 90.545, 117.945 90.928, 114 92.347 M 56 95.500 C 56 96.325, 56.675 97, 57.500 97 C 58.325 97, 59 96.325, 59 95.500 C 59 94.675, 58.325 94, 57.500 94 C 56.675 94, 56 94.675, 56 95.500 M 129.229 95.188 C 129.847 97.042, 132 97.349, 132 95.583 C 132 94.713, 131.287 94, 130.417 94 C 129.546 94, 129.011 94.534, 129.229 95.188 M 50.666 97.427 C 49.816 99.642, 52.461 101.355, 53.953 99.556 C 54.624 98.748, 54.882 97.618, 54.527 97.044 C 53.595 95.535, 51.305 95.762, 50.666 97.427 M 199.655 105.250 C 208.715 135.226, 207.808 133, 210.968 133 C 214.161 133, 214.385 132.477, 219.213 113.750 C 220.454 108.938, 221.704 105, 221.990 105 C 222.277 105, 224.249 111.325, 226.373 119.055 L 230.236 133.109 233.324 132.805 L 236.412 132.500 241.573 115 C 246.468 98.399, 246.632 97.483, 244.751 97.165 C 243.661 96.981, 242.405 97.206, 241.959 97.665 C 241.513 98.124, 239.382 104.977, 237.222 112.894 C 235.063 120.811, 233.083 126.886, 232.823 126.394 C 232.563 125.902, 230.589 119.088, 228.437 111.250 C 224.852 98.198, 224.330 97, 222.230 97 C 219.515 97, 219.720 96.524, 215.010 113.723 C 212.966 121.183, 211.082 126.884, 210.823 126.393 C 210.563 125.902, 208.589 119.088, 206.437 111.250 C 202.642 97.434, 202.441 97, 199.842 97 L 197.162 97 199.655 105.250 M 259.662 97.750 C 259.411 98.162, 256.714 104.575, 253.668 112 C 250.623 119.425, 247.421 127.188, 246.552 129.250 L 244.973 133 247.789 133 C 250.262 133, 250.824 132.391, 252.403 128 L 254.201 123 262.573 123 L 270.944 123 273.095 128 C 274.851 132.081, 275.703 133, 277.730 133 C 279.682 133, 280.072 132.625, 279.550 131.250 C 279.186 130.287, 275.930 122.188, 272.316 113.250 C 266.011 97.658, 265.631 97, 262.931 97 C 261.384 97, 259.913 97.338, 259.662 97.750 M 284 115 L 284 133 296 133 C 307.333 133, 308 132.889, 308 131 C 308 129.140, 307.333 129, 298.500 129 L 289 129 289 113 L 289 97 286.500 97 L 284 97 284 115 M 314 115 L 314 133 326 133 C 337.333 133, 338 132.889, 338 131 C 338 129.140, 337.333 129, 328.500 129 L 319 129 319 113 L 319 97 316.500 97 L 314 97 314 115 M 343 115 L 343 133 357.500 133 C 371.333 133, 372 132.908, 372 131 C 372 129.111, 371.333 129, 360 129 L 348 129 348 123 L 348 117 359 117 C 369.333 117, 370 116.879, 370 115 C 370 113.121, 369.333 113, 359 113 L 348 113 348 107 L 348 101 359.500 101 C 370.333 101, 371 100.884, 371 99 C 371 97.095, 370.333 97, 357 97 L 343 97 343 115 M 375 99 C 375 100.795, 375.667 101, 381.500 101 L 388 101 388 117 L 388 133 390.500 133 L 393 133 393 117 L 393 101 399 101 C 404.333 101, 405 100.778, 405 99 C 405 97.089, 404.333 97, 390 97 C 375.667 97, 375 97.089, 375 99 M 259.372 110.270 L 256.305 118.500 262.268 118.801 C 265.548 118.966, 268.454 118.879, 268.726 118.607 C 269.212 118.121, 264.213 104.199, 263.039 102.770 C 262.710 102.369, 261.060 105.744, 259.372 110.270 M 60.105 106.373 C 58.439 108.381, 59.860 111.162, 62.367 110.803 C 64.823 110.451, 65.821 107.135, 63.848 105.885 C 61.995 104.710, 61.423 104.785, 60.105 106.373 M 124.152 105.885 C 122.127 107.168, 123.202 110.455, 125.765 110.820 C 128.452 111.203, 129.771 108.634, 127.989 106.487 C 126.575 104.783, 126.026 104.697, 124.152 105.885 M 67.336 108.567 C 66.502 110.739, 68.618 112.782, 70.133 111.267 C 71.413 109.987, 70.620 107, 69 107 C 68.415 107, 67.667 107.705, 67.336 108.567 M 117.336 108.567 C 116.502 110.739, 118.618 112.782, 120.133 111.267 C 121.413 109.987, 120.620 107, 119 107 C 118.415 107, 117.667 107.705, 117.336 108.567 M 70.556 113.910 C 69.591 115.471, 71.172 118.113, 72.876 117.789 C 73.769 117.619, 74.644 116.472, 74.820 115.240 C 75.060 113.557, 74.639 113, 73.129 113 C 72.023 113, 70.865 113.409, 70.556 113.910 M 113.170 115.170 C 113.596 118.181, 117.500 118.478, 117.500 115.500 C 117.500 114.167, 116.723 113.390, 115.170 113.170 C 113.231 112.895, 112.895 113.231, 113.170 115.170 M 79.667 117.667 C 78.516 118.817, 78.938 120, 80.500 120 C 81.325 120, 82 119.325, 82 118.500 C 82 116.938, 80.817 116.516, 79.667 117.667 M 106 118.417 C 106 119.287, 106.713 120, 107.583 120 C 109.349 120, 109.042 117.847, 107.188 117.229 C 106.534 117.011, 106 117.546, 106 118.417 M 85 119.583 C 85 120.454, 85.534 120.989, 86.188 120.771 C 88.042 120.153, 88.349 118, 86.583 118 C 85.713 118, 85 118.713, 85 119.583 M 100.694 118.639 C 99.895 119.438, 100.798 121, 102.059 121 C 102.577 121, 103 120.325, 103 119.500 C 103 117.954, 101.820 117.513, 100.694 118.639" stroke="none" fill="#efe1a1" fill-rule="evenodd"/><path d="M 0 80.002 L 0 160.003 322.250 159.752 L 644.500 159.500 644.756 79.750 L 645.012 0 322.506 0 L 0 0 0 80.002 M 0.477 80.500 C 0.477 124.500, 0.600 142.354, 0.750 120.176 C 0.900 97.997, 0.900 61.997, 0.750 40.176 C 0.599 18.354, 0.476 36.500, 0.477 80.500 M 83 8.132 C 56.047 12.533, 33.681 31.372, 25.400 56.649 C 22.760 64.708, 22.500 66.753, 22.500 79.500 C 22.500 92.215, 22.756 94.246, 25.291 101.627 C 33.273 124.867, 50.960 141.568, 75 148.565 C 84.096 151.213, 103.904 151.213, 113 148.565 C 137.040 141.568, 154.727 124.867, 162.709 101.627 C 165.244 94.246, 165.500 92.215, 165.500 79.500 C 165.500 66.753, 165.240 64.708, 162.600 56.649 C 151.801 23.685, 117.137 2.558, 83 8.132 M 259 39 L 259 68 263 68 L 267 68 267 53.565 C 267 45.626, 267.430 37.999, 267.955 36.617 C 270.195 30.726, 280.495 28.423, 284.191 32.988 C 285.772 34.940, 286 37.289, 286 51.611 L 286 68 289.562 68 L 293.124 68 292.812 49.520 C 292.501 31.077, 292.495 31.035, 289.868 28.411 C 288.063 26.608, 285.802 25.619, 282.677 25.267 C 276.680 24.591, 273.727 25.422, 269.768 28.901 L 266.500 31.773 266.838 20.886 L 267.177 10 263.088 10 L 259 10 259 39 M 459 39 L 459 68 463 68 L 467 68 467 53.565 C 467 45.626, 467.430 37.999, 467.955 36.617 C 470.195 30.726, 480.495 28.423, 484.191 32.988 C 485.772 34.940, 486 37.289, 486 51.611 L 486 68 489.562 68 L 493.124 68 492.812 49.520 C 492.501 31.077, 492.495 31.035, 489.868 28.411 C 488.063 26.608, 485.802 25.619, 482.677 25.267 C 476.680 24.591, 473.727 25.422, 469.768 28.901 L 466.500 31.773 466.838 20.886 L 467.177 10 463.088 10 L 459 10 459 39 M 530 20.687 L 530 31.374 527.022 28.521 C 524.695 26.292, 522.892 25.583, 518.772 25.279 C 507.169 24.422, 501.471 31.770, 501.539 47.500 C 501.569 54.359, 502.045 57.448, 503.539 60.487 C 508.204 69.971, 519.756 71.982, 527.750 64.701 L 530 62.651 530 65.326 C 530 67.715, 530.372 68, 533.500 68 L 537 68 537 39 L 537 10 533.500 10 L 530 10 530 20.687 M 79 13.547 C 56.122 18.433, 33.929 40.231, 28.535 63.114 C 26.605 71.302, 26.605 86.698, 28.535 94.886 C 32.649 112.338, 47.502 130.708, 64.064 138.828 C 87.816 150.473, 113.880 147.868, 135.712 131.670 C 146.408 123.733, 155.968 109.443, 159.573 96 C 161.913 87.277, 161.913 70.723, 159.573 62 C 151.708 32.675, 124.147 11.859, 93.500 12.097 C 89.100 12.131, 82.575 12.784, 79 13.547 M 218.222 13.410 C 208.073 16.721, 202.222 25.021, 201.283 37.439 C 200.296 50.488, 205.437 61.613, 214.474 65.988 C 227.235 72.165, 243.961 68.038, 250.282 57.153 L 252.063 54.084 248.826 52.410 C 246.519 51.217, 245.476 51.072, 245.198 51.905 C 244.284 54.649, 239.284 59.420, 235.541 61.120 C 225.428 65.714, 213.562 60.293, 209.981 49.442 C 208.337 44.461, 209.150 32.393, 211.448 27.661 C 216.699 16.849, 233.404 14.813, 241.289 24.024 C 244.514 27.792, 244.861 27.944, 247.847 26.903 C 249.581 26.299, 251 25.503, 251 25.134 C 251 22.831, 245.390 16.883, 241.391 14.947 C 235.569 12.129, 224.416 11.389, 218.222 13.410 M 394.392 21.250 C 393.631 24.877, 393.097 25.546, 390.750 25.816 C 388.590 26.065, 388 26.655, 388 28.566 C 388 30.478, 388.522 31, 390.434 31 L 392.868 31 393.184 48.090 C 393.490 64.664, 393.571 65.239, 395.861 67.090 C 398.188 68.973, 404.154 69.646, 407.418 68.393 C 408.288 68.059, 409 66.709, 409 65.393 C 409 63.352, 408.514 63, 405.700 63 C 400.310 63, 400 62.065, 400 45.800 L 400 31 404 31 C 407.600 31, 408 30.750, 408 28.500 C 408 26.250, 407.600 26, 404 26 L 400 26 400 21.500 C 400 17.439, 399.770 17, 397.642 17 C 395.675 17, 395.136 17.704, 394.392 21.250 M 311.989 27.250 C 305.548 30.518, 302.526 36.825, 302.526 47 C 302.526 57.175, 305.548 63.482, 311.989 66.750 C 320.025 70.827, 330.742 69.335, 335.940 63.416 C 339.389 59.488, 339.286 58.479, 335.359 57.728 C 333.297 57.334, 332.149 57.858, 330.326 60.024 C 327.423 63.475, 321.390 64.778, 317.339 62.829 C 313.579 61.021, 310 55.424, 310 51.352 L 310 48 325 48 L 340 48 340 45.182 C 340 40.217, 337.132 32.500, 334.274 29.773 C 328.669 24.427, 319.582 23.398, 311.989 27.250 M 355.989 27.250 C 349.548 30.518, 346.526 36.825, 346.526 47 C 346.526 57.175, 349.548 63.482, 355.989 66.750 C 364.025 70.827, 374.742 69.335, 379.940 63.416 C 383.389 59.488, 383.286 58.479, 379.359 57.728 C 377.297 57.334, 376.149 57.858, 374.326 60.024 C 371.423 63.475, 365.390 64.778, 361.339 62.829 C 357.579 61.021, 354 55.424, 354 51.352 L 354 48 369 48 L 384 48 384 45.182 C 384 40.217, 381.132 32.500, 378.274 29.773 C 372.669 24.427, 363.582 23.398, 355.989 27.250 M 421.440 26.888 C 416.957 28.924, 413.093 34.803, 415.311 36.213 C 417.784 37.786, 421.512 37.031, 422.513 34.754 C 423.904 31.590, 428.431 29.671, 432.641 30.460 C 437.316 31.337, 440 34.219, 440 38.361 L 440 41.723 431.217 42.223 C 421.816 42.759, 417.006 44.508, 414.583 48.271 C 410.438 54.709, 412.441 64.558, 418.479 67.423 C 424.975 70.506, 433.687 68.756, 437.787 63.544 L 439.909 60.846 441.389 64.387 C 442.964 68.159, 445.562 69.407, 450.629 68.828 C 452.720 68.589, 453.587 67.888, 453.820 66.250 C 454.079 64.424, 453.661 64, 451.605 64 C 447.741 64, 447 61.319, 446.996 47.316 C 446.992 32.662, 445.686 29.020, 439.510 26.440 C 434.764 24.457, 426.332 24.666, 421.440 26.888 M 554.989 27.250 C 548.548 30.518, 545.526 36.825, 545.526 47 C 545.526 57.175, 548.548 63.482, 554.989 66.750 C 563.025 70.827, 573.742 69.335, 578.940 63.416 C 582.389 59.488, 582.286 58.479, 578.359 57.728 C 576.297 57.334, 575.149 57.858, 573.326 60.024 C 570.423 63.475, 564.390 64.778, 560.339 62.829 C 556.579 61.021, 553 55.424, 553 51.352 L 553 48 568 48 L 583 48 583 45.182 C 583 40.217, 580.132 32.500, 577.274 29.773 C 571.669 24.427, 562.582 23.398, 554.989 27.250 M 590.519 28.669 C 591.481 30.137, 594.658 34.712, 597.580 38.836 L 602.892 46.334 595.384 57.167 L 587.877 68 591.854 68 C 595.757 68, 595.932 67.841, 601.326 59.375 L 606.821 50.750 612.560 59.375 C 618.139 67.758, 618.410 68, 622.209 68 L 626.117 68 619.809 58.971 C 616.339 54.005, 612.929 49.125, 612.231 48.127 C 611.126 46.545, 611.775 45.164, 617.279 37.387 C 620.753 32.479, 623.938 27.909, 624.357 27.231 C 624.910 26.336, 624.047 26, 621.196 26 C 617.377 26, 617.137 26.216, 612.070 34.176 L 606.865 42.353 601.688 34.176 C 596.664 26.241, 596.397 26, 592.641 26 L 588.770 26 590.519 28.669 M 315.381 31.853 C 312.536 33.639, 310 38.256, 310 41.649 C 310 42.705, 312.492 43, 321.395 43 L 332.789 43 331.964 39.343 C 330.216 31.588, 321.833 27.802, 315.381 31.853 M 359.381 31.853 C 356.536 33.639, 354 38.256, 354 41.649 C 354 42.705, 356.492 43, 365.395 43 L 376.789 43 375.964 39.343 C 374.216 31.588, 365.833 27.802, 359.381 31.853 M 514.308 31.195 C 507.692 34.392, 507.007 56.616, 513.362 61.886 C 516.075 64.136, 522.698 63.633, 525.542 60.961 C 529.749 57.008, 531.314 46.272, 528.933 37.698 C 527.219 31.525, 520.139 28.377, 514.308 31.195 M 558.381 31.853 C 555.536 33.639, 553 38.256, 553 41.649 C 553 42.705, 555.492 43, 564.395 43 L 575.789 43 574.964 39.343 C 573.216 31.588, 564.833 27.802, 558.381 31.853 M 46.299 37.960 C 39.605 42.041, 37.665 53.072, 42.608 58.946 C 46.062 63.050, 48.851 64.553, 49.564 62.693 C 49.863 61.915, 48.531 59.731, 46.550 57.750 C 42.359 53.559, 41.901 49.513, 45.042 44.432 C 48.760 38.417, 56.897 37.736, 62.472 42.974 C 63.871 44.288, 64.994 44.622, 65.976 44.015 C 67.197 43.260, 67.117 42.787, 65.463 40.959 C 60.753 35.754, 52.129 34.405, 46.299 37.960 M 126.500 37.842 C 124.850 38.850, 122.854 40.458, 122.064 41.414 C 120.825 42.914, 120.823 43.273, 122.049 44.030 C 123 44.618, 124.150 44.269, 125.528 42.974 C 131.103 37.736, 139.240 38.417, 142.958 44.432 C 146.099 49.513, 145.641 53.559, 141.450 57.750 C 139.469 59.731, 138.137 61.915, 138.436 62.693 C 139.149 64.553, 141.938 63.050, 145.392 58.946 C 148.480 55.276, 148.975 47.786, 146.451 42.906 C 143.124 36.471, 132.961 33.891, 126.500 37.842 M 85 38.098 C 77.269 39.608, 67.952 44.899, 61.240 51.592 C 51.038 61.766, 45.154 77.011, 46.732 89.180 C 47.214 92.899, 51.311 104.009, 52.195 103.995 C 52.363 103.993, 55.200 102.879, 58.500 101.519 C 64.844 98.906, 76.957 98.044, 80 99.990 C 81.012 100.637, 79.874 100.761, 76.500 100.371 C 70.696 99.700, 61.484 101.202, 56.293 103.665 L 52.675 105.382 57.515 109.764 C 66.930 118.288, 77.937 121.970, 94 121.970 C 110.063 121.970, 121.070 118.288, 130.485 109.764 L 135.325 105.382 131.707 103.665 C 126.516 101.202, 117.304 99.700, 111.500 100.371 C 108.126 100.761, 106.988 100.637, 108 99.990 C 111.043 98.044, 123.156 98.906, 129.500 101.519 C 132.800 102.879, 135.597 103.993, 135.715 103.995 C 135.833 103.998, 136.448 103.032, 137.081 101.848 C 138.039 100.058, 137.982 99.793, 136.738 100.270 C 134.863 100.990, 132.983 99.209, 133.685 97.378 C 134.395 95.529, 136.693 95.630, 137.772 97.556 C 138.446 98.762, 138.896 98.255, 139.769 95.306 C 144.129 80.565, 139.198 63.996, 126.760 51.592 C 115.016 39.881, 100.270 35.116, 85 38.098 M 92.336 39.567 C 91.502 41.739, 93.618 43.782, 95.133 42.267 C 96.413 40.987, 95.620 38, 94 38 C 93.415 38, 92.667 38.705, 92.336 39.567 M 86.527 39.956 C 86.202 40.482, 85.275 40.659, 84.468 40.349 C 83.553 39.998, 83 40.391, 83 41.393 C 83 43.155, 84.536 43.560, 85.473 42.044 C 85.798 41.518, 86.725 41.341, 87.532 41.651 C 88.447 42.002, 89 41.609, 89 40.607 C 89 38.845, 87.464 38.440, 86.527 39.956 M 99 40.607 C 99 41.561, 99.560 41.999, 100.378 41.685 C 101.136 41.394, 102.222 41.622, 102.791 42.191 C 104.032 43.432, 106.295 42.287, 105.415 40.863 C 105.076 40.313, 104.183 40.100, 103.431 40.388 C 102.679 40.677, 101.798 40.482, 101.473 39.956 C 100.536 38.440, 99 38.845, 99 40.607 M 77.359 44.507 C 77.006 45.427, 77.416 46.844, 78.286 47.714 C 80.410 49.838, 83.227 48.621, 82.820 45.754 C 82.426 42.977, 78.307 42.037, 77.359 44.507 M 105.359 44.507 C 105.011 45.414, 105.383 46.812, 106.186 47.614 C 108.187 49.615, 111.188 48.321, 110.803 45.623 C 110.424 42.965, 106.277 42.115, 105.359 44.507 M 69.364 46.493 C 69.018 47.396, 69.214 48.614, 69.800 49.200 C 71.324 50.724, 74.210 49.331, 73.812 47.265 C 73.369 44.963, 70.165 44.407, 69.364 46.493 M 115.064 46.423 C 113.512 48.293, 114.497 50, 117.129 50 C 118.624 50, 119.057 49.443, 118.820 47.828 C 118.420 45.115, 116.688 44.466, 115.064 46.423 M 426 47.706 C 422.559 48.964, 420 52.391, 420 55.740 C 420 63.227, 424.867 65.695, 432.421 62.038 C 437.241 59.705, 440 55.359, 440 50.099 L 440 47 433.750 47.079 C 430.313 47.122, 426.825 47.405, 426 47.706 M 71.591 52.625 C 71.220 53.590, 71.527 54.956, 72.286 55.714 C 74.198 57.627, 77.177 56.247, 76.803 53.623 C 76.419 50.934, 72.525 50.188, 71.591 52.625 M 111.332 52.578 C 110.999 53.445, 111.463 54.892, 112.363 55.792 C 113.879 57.307, 114.121 57.307, 115.637 55.792 C 117.681 53.747, 116.743 51, 114 51 C 112.865 51, 111.665 51.710, 111.332 52.578 M 62.359 54.507 C 62.006 55.427, 62.416 56.844, 63.286 57.714 C 65.410 59.838, 68.227 58.621, 67.820 55.754 C 67.426 52.977, 63.307 52.037, 62.359 54.507 M 120.389 54.430 C 119.393 57.025, 120.788 59.169, 123.246 58.820 C 124.898 58.585, 125.500 57.833, 125.500 56 C 125.500 54.167, 124.898 53.415, 123.246 53.180 C 121.893 52.988, 120.750 53.488, 120.389 54.430 M 66.480 65.032 C 66.092 65.660, 66.245 66.645, 66.820 67.220 C 68.164 68.564, 71.297 67.392, 70.750 65.749 C 70.194 64.078, 67.364 63.602, 66.480 65.032 M 117.480 65.032 C 117.092 65.660, 117.245 66.645, 117.820 67.220 C 119.164 68.564, 122.297 67.392, 121.750 65.749 C 121.194 64.078, 118.364 63.602, 117.480 65.032 M 53.571 66.571 C 52.707 67.436, 52 68.754, 52 69.500 C 52 71.453, 54.830 74, 57 74 C 59.170 74, 62 71.453, 62 69.500 C 62 67.547, 59.170 65, 57 65 C 55.979 65, 54.436 65.707, 53.571 66.571 M 127.655 66.829 C 125.534 69.172, 125.570 70.300, 127.829 72.345 C 130.287 74.570, 133.696 74.437, 134.965 72.066 C 136.371 69.438, 136.271 68.414, 134.429 66.571 C 132.341 64.484, 129.686 64.584, 127.655 66.829 M 70.203 70.256 C 67.929 72.996, 67.756 76.921, 69.759 80.317 L 71.730 83.657 65.137 81.828 C 57.604 79.739, 56 79.594, 56 81 C 56 81.550, 57.361 82, 59.025 82 C 63.135 82, 72.512 85.399, 76.355 88.282 C 81.320 92.007, 82.793 92.448, 79.332 89.173 L 76.165 86.175 78.570 85.572 C 84.224 84.153, 85.464 76.252, 80.810 71.298 C 78.394 68.726, 71.994 68.097, 70.203 70.256 M 107.190 71.298 C 102.536 76.252, 103.776 84.153, 109.430 85.572 L 111.835 86.175 108.668 89.173 C 105.207 92.448, 106.680 92.007, 111.645 88.282 C 115.488 85.399, 124.865 82, 128.975 82 C 130.639 82, 132 81.550, 132 81 C 132 79.594, 130.396 79.739, 122.863 81.828 L 116.270 83.657 118.241 80.317 C 120.244 76.921, 120.071 72.996, 117.797 70.256 C 116.006 68.097, 109.606 68.726, 107.190 71.298 M 71.200 71.200 C 70.540 71.860, 70.067 73.998, 70.150 75.950 C 70.279 79.007, 70.358 79.115, 70.718 76.728 C 71.214 73.446, 74.947 70.659, 77.523 71.647 C 78.765 72.124, 79.103 71.975, 78.605 71.170 C 77.661 69.643, 72.737 69.663, 71.200 71.200 M 109.395 71.170 C 108.897 71.975, 109.235 72.124, 110.477 71.647 C 113.053 70.659, 116.786 73.446, 117.282 76.728 C 117.642 79.115, 117.721 79.007, 117.850 75.950 C 117.933 73.997, 117.460 71.860, 116.800 71.200 C 115.263 69.663, 110.339 69.643, 109.395 71.170 M 50.071 76.956 C 48.415 77.980, 49.379 81, 51.362 81 C 52.145 81, 53.032 80.358, 53.334 79.573 C 54.059 77.682, 51.812 75.880, 50.071 76.956 M 135.688 76.646 C 134.216 78.117, 134.990 81.149, 136.750 80.810 C 137.713 80.624, 138.500 79.616, 138.500 78.570 C 138.500 76.580, 136.869 75.464, 135.688 76.646 M 81.589 78.751 C 80.714 81.471, 77.494 83.362, 74.896 82.683 C 73.852 82.410, 73.249 82.595, 73.558 83.093 C 73.866 83.592, 75.431 84, 77.036 84 C 80.128 84, 83.588 80.236, 82.751 77.782 C 82.492 77.025, 82.017 77.421, 81.589 78.751 M 105.040 78.027 C 104.963 80.951, 108.005 84, 110.998 84 C 112.584 84, 114.203 83.480, 114.595 82.845 C 115.050 82.111, 114.868 81.963, 114.098 82.440 C 111.999 83.736, 108.109 82.083, 106.565 79.237 C 105.724 77.686, 105.063 77.162, 105.040 78.027 M 88.775 80.559 C 82.664 83.875, 82.809 89.263, 89.060 91.136 C 92.560 92.185, 93 92.667, 93 95.458 C 93 100.847, 88.696 102.811, 84.687 99.250 C 82.755 97.533, 82.731 97.576, 83.443 101.500 C 84.618 107.971, 89 111.646, 89 106.161 C 89 102.465, 92.752 100.474, 96.500 102.182 C 98.312 103.008, 99 104.102, 99 106.161 C 99 111.646, 103.382 107.971, 104.557 101.500 C 105.269 97.576, 105.245 97.533, 103.313 99.250 C 99.304 102.811, 95 100.847, 95 95.458 C 95 92.667, 95.440 92.185, 98.940 91.136 C 105.286 89.235, 105.327 83.772, 99.020 80.510 C 95.388 78.632, 92.299 78.647, 88.775 80.559 M 49.410 84.375 C 48.211 87.498, 49.424 89.500, 52.514 89.500 C 55.165 89.500, 55.500 89.164, 55.500 86.500 C 55.500 83.969, 55.069 83.450, 52.744 83.183 C 50.986 82.981, 49.779 83.412, 49.410 84.375 M 132.410 84.375 C 131.211 87.498, 132.424 89.500, 135.514 89.500 C 138.165 89.500, 138.500 89.164, 138.500 86.500 C 138.500 83.969, 138.069 83.450, 135.744 83.183 C 133.986 82.981, 132.779 83.412, 132.410 84.375 M 53.663 91.736 C 53.296 92.330, 55.861 92.516, 60.406 92.224 C 65.768 91.880, 69.189 92.229, 73.121 93.522 C 81.418 96.251, 81.789 96.280, 77.500 93.866 C 74.340 92.088, 71.479 91.527, 63.878 91.196 C 58.331 90.955, 54.004 91.184, 53.663 91.736 M 114 92.347 C 110.382 93.648, 105.341 96.483, 108 95.721 C 108.825 95.485, 111.921 94.495, 114.879 93.522 C 118.811 92.229, 122.232 91.880, 127.594 92.224 C 131.629 92.483, 134.694 92.314, 134.406 91.848 C 133.601 90.545, 117.945 90.928, 114 92.347 M 56 95.500 C 56 96.325, 56.675 97, 57.500 97 C 58.325 97, 59 96.325, 59 95.500 C 59 94.675, 58.325 94, 57.500 94 C 56.675 94, 56 94.675, 56 95.500 M 129.229 95.188 C 129.847 97.042, 132 97.349, 132 95.583 C 132 94.713, 131.287 94, 130.417 94 C 129.546 94, 129.011 94.534, 129.229 95.188 M 50.666 97.427 C 49.816 99.642, 52.461 101.355, 53.953 99.556 C 54.624 98.748, 54.882 97.618, 54.527 97.044 C 53.595 95.535, 51.305 95.762, 50.666 97.427 M 199.655 105.250 C 208.715 135.226, 207.808 133, 210.968 133 C 214.161 133, 214.385 132.477, 219.213 113.750 C 220.454 108.938, 221.704 105, 221.990 105 C 222.277 105, 224.249 111.325, 226.373 119.055 L 230.236 133.109 233.324 132.805 L 236.412 132.500 241.573 115 C 246.468 98.399, 246.632 97.483, 244.751 97.165 C 243.661 96.981, 242.405 97.206, 241.959 97.665 C 241.513 98.124, 239.382 104.977, 237.222 112.894 C 235.063 120.811, 233.083 126.886, 232.823 126.394 C 232.563 125.902, 230.589 119.088, 228.437 111.250 C 224.852 98.198, 224.330 97, 222.230 97 C 219.515 97, 219.720 96.524, 215.010 113.723 C 212.966 121.183, 211.082 126.884, 210.823 126.393 C 210.563 125.902, 208.589 119.088, 206.437 111.250 C 202.642 97.434, 202.441 97, 199.842 97 L 197.162 97 199.655 105.250 M 259.662 97.750 C 259.411 98.162, 256.714 104.575, 253.668 112 C 250.623 119.425, 247.421 127.188, 246.552 129.250 L 244.973 133 247.789 133 C 250.262 133, 250.824 132.391, 252.403 128 L 254.201 123 262.573 123 L 270.944 123 273.095 128 C 274.851 132.081, 275.703 133, 277.730 133 C 279.682 133, 280.072 132.625, 279.550 131.250 C 279.186 130.287, 275.930 122.188, 272.316 113.250 C 266.011 97.658, 265.631 97, 262.931 97 C 261.384 97, 259.913 97.338, 259.662 97.750 M 284 115 L 284 133 296 133 C 307.333 133, 308 132.889, 308 131 C 308 129.140, 307.333 129, 298.500 129 L 289 129 289 113 L 289 97 286.500 97 L 284 97 284 115 M 314 115 L 314 133 326 133 C 337.333 133, 338 132.889, 338 131 C 338 129.140, 337.333 129, 328.500 129 L 319 129 319 113 L 319 97 316.500 97 L 314 97 314 115 M 343 115 L 343 133 357.500 133 C 371.333 133, 372 132.908, 372 131 C 372 129.111, 371.333 129, 360 129 L 348 129 348 123 L 348 117 359 117 C 369.333 117, 370 116.879, 370 115 C 370 113.121, 369.333 113, 359 113 L 348 113 348 107 L 348 101 359.500 101 C 370.333 101, 371 100.884, 371 99 C 371 97.095, 370.333 97, 357 97 L 343 97 343 115 M 375 99 C 375 100.795, 375.667 101, 381.500 101 L 388 101 388 117 L 388 133 390.500 133 L 393 133 393 117 L 393 101 399 101 C 404.333 101, 405 100.778, 405 99 C 405 97.089, 404.333 97, 390 97 C 375.667 97, 375 97.089, 375 99 M 259.372 110.270 L 256.305 118.500 262.268 118.801 C 265.548 118.966, 268.454 118.879, 268.726 118.607 C 269.212 118.121, 264.213 104.199, 263.039 102.770 C 262.710 102.369, 261.060 105.744, 259.372 110.270 M 60.105 106.373 C 58.439 108.381, 59.860 111.162, 62.367 110.803 C 64.823 110.451, 65.821 107.135, 63.848 105.885 C 61.995 104.710, 61.423 104.785, 60.105 106.373 M 124.152 105.885 C 122.127 107.168, 123.202 110.455, 125.765 110.820 C 128.452 111.203, 129.771 108.634, 127.989 106.487 C 126.575 104.783, 126.026 104.697, 124.152 105.885 M 67.336 108.567 C 66.502 110.739, 68.618 112.782, 70.133 111.267 C 71.413 109.987, 70.620 107, 69 107 C 68.415 107, 67.667 107.705, 67.336 108.567 M 117.336 108.567 C 116.502 110.739, 118.618 112.782, 120.133 111.267 C 121.413 109.987, 120.620 107, 119 107 C 118.415 107, 117.667 107.705, 117.336 108.567 M 70.556 113.910 C 69.591 115.471, 71.172 118.113, 72.876 117.789 C 73.769 117.619, 74.644 116.472, 74.820 115.240 C 75.060 113.557, 74.639 113, 73.129 113 C 72.023 113, 70.865 113.409, 70.556 113.910 M 113.170 115.170 C 113.596 118.181, 117.500 118.478, 117.500 115.500 C 117.500 114.167, 116.723 113.390, 115.170 113.170 C 113.231 112.895, 112.895 113.231, 113.170 115.170 M 79.667 117.667 C 78.516 118.817, 78.938 120, 80.500 120 C 81.325 120, 82 119.325, 82 118.500 C 82 116.938, 80.817 116.516, 79.667 117.667 M 106 118.417 C 106 119.287, 106.713 120, 107.583 120 C 109.349 120, 109.042 117.847, 107.188 117.229 C 106.534 117.011, 106 117.546, 106 118.417 M 85 119.583 C 85 120.454, 85.534 120.989, 86.188 120.771 C 88.042 120.153, 88.349 118, 86.583 118 C 85.713 118, 85 118.713, 85 119.583 M 100.694 118.639 C 99.895 119.438, 100.798 121, 102.059 121 C 102.577 121, 103 120.325, 103 119.500 C 103 117.954, 101.820 117.513, 100.694 118.639" stroke="none" fill="#346491" fill-rule="evenodd"/></svg>