<?xml version="1.0" encoding="UTF-8" standalone="no"?>
<svg
   width="145.12495"
   height="36"
   viewBox="0 0 145.12495 36"
   version="1.1"
   id="svg2"
   sodipodi:docname="color_web_logo_dark2.svg"
   inkscape:version="1.4.2 (f4327f4, 2025-05-13)"
   xmlns:inkscape="http://www.inkscape.org/namespaces/inkscape"
   xmlns:sodipodi="http://sodipodi.sourceforge.net/DTD/sodipodi-0.dtd"
   xmlns="http://www.w3.org/2000/svg"
   xmlns:svg="http://www.w3.org/2000/svg">
  <sodipodi:namedview
     id="namedview1"
     pagecolor="#ffffff"
     bordercolor="#000000"
     borderopacity="0.25"
     inkscape:showpageshadow="2"
     inkscape:pageopacity="0.0"
     inkscape:pagecheckerboard="0"
     inkscape:deskcolor="#d1d1d1"
     inkscape:zoom="12.23773"
     inkscape:cx="72.562477"
     inkscape:cy="18.018048"
     inkscape:window-width="1920"
     inkscape:window-height="1017"
     inkscape:window-x="-8"
     inkscape:window-y="-8"
     inkscape:window-maximized="1"
     inkscape:current-layer="svg2" />
  <defs
     id="defs2" />
  <path
     d="M 17.586822,1.4670524 C 11.522495,2.4572597 6.4902392,6.6959552 4.6270504,12.383173 4.0330702,14.19642 3.9745705,14.65653 3.9745705,17.524567 c 0,2.860803 0.057599,3.317765 0.62796,4.978462 1.7959201,5.228907 5.7754205,8.986564 11.1843255,10.560861 2.046555,0.595776 6.503269,0.595776 8.549835,0 5.408881,-1.574297 9.388382,-5.331954 11.18431,-10.560861 0.570362,-1.660697 0.627958,-2.117659 0.627958,-4.978462 0,-2.868037 -0.05851,-3.328147 -0.652477,-5.141394 C 33.066749,4.9664125 25.26749,0.21292705 17.586822,1.4670524 m 39.599234,6.945171 v 6.5248736 h 0.899991 0.899987 v -3.247812 c 0,-1.78624 0.09669,-3.5022825 0.21487,-3.8132273 0.503999,-1.325451 2.821452,-1.8436146 3.653033,-0.8165113 0.355726,0.4391937 0.407008,0.967707 0.407008,4.1900926 v 3.687458 h 0.801447 0.801427 l -0.0702,-4.157925 c -0.07,-4.1495916 -0.0713,-4.1590404 -0.662378,-4.7494296 -0.406139,-0.4056676 -0.914837,-0.6281885 -1.617944,-0.7073855 -1.349315,-0.1520972 -2.013723,0.034867 -2.904481,0.817635 l -0.735275,0.6461858 0.07612,-2.4495288 0.07632,-2.449304 H 58.105989 57.18621 v 6.5248785 m 44.99921,0 v 6.5248736 h 0.89999 0.89997 v -3.247812 c 0,-1.78624 0.0966,-3.5022825 0.21485,-3.8132273 0.50399,-1.325451 2.82148,-1.8436146 3.65303,-0.8165113 0.35573,0.4391937 0.40699,0.967707 0.40699,4.1900926 v 3.687458 h 0.80148 0.80142 l -0.0704,-4.157925 c -0.0705,-4.1495916 -0.0715,-4.1590404 -0.66244,-4.7494296 -0.40614,-0.4056676 -0.91485,-0.6281885 -1.61793,-0.7073855 -1.34927,-0.1520966 -2.01377,0.03487 -2.90449,0.817635 l -0.73523,0.6461858 0.0756,-2.4495288 0.076,-2.449304 h -0.91996 -0.91977 v 6.5248785 m 15.97501,-4.1203491 v 2.404531 L 117.4896,6.0544921 c -0.52356,-0.5015155 -0.92923,-0.6610369 -1.8562,-0.729437 -2.61065,-0.1928211 -3.89269,1.4604484 -3.87736,4.9996339 0.008,1.543245 0.11379,2.238255 0.44998,2.922013 1.04965,2.133864 3.64881,2.586327 5.44739,0.948139 l 0.50627,-0.461237 v 0.601862 c 0,0.53752 0.0836,0.601631 0.78746,0.601631 h 0.78753 V 8.4122234 1.8873449 h -0.78753 -0.78746 V 4.2918743 M 16.686832,2.6854048 C 11.539371,3.7847351 6.5460406,8.6891929 5.3324198,13.837771 c -0.4342484,1.842257 -0.4342484,5.306303 0,7.14856 0.9256293,3.926624 4.2674906,8.059797 7.9938682,9.886777 5.344108,2.62007 11.208384,2.033954 16.1205,-1.610534 2.406546,-1.785781 4.557514,-5.000981 5.368623,-8.025596 0.526485,-1.962627 0.526485,-5.687217 0,-7.649852 C 33.045818,6.9891254 26.844701,2.3056121 19.949273,2.359161 18.959291,2.366801 17.491188,2.5137335 16.686832,2.6854048 M 48.01118,2.6545818 c -2.283466,0.7449614 -3.59992,2.6124258 -3.811192,5.406425 -0.222057,2.9359672 0.934619,5.4390492 2.967916,6.4234002 2.87117,1.38981 6.634453,0.461249 8.056664,-1.987835 l 0.400701,-0.690506 -0.728302,-0.376648 c -0.519081,-0.268424 -0.753737,-0.301039 -0.816293,-0.113619 -0.205638,0.617378 -1.330626,1.69084 -2.17279,2.073331 -2.275377,1.033632 -4.945175,-0.18607 -5.750886,-2.627498 -0.369889,-1.1207037 -0.186966,-3.8359514 0.330076,-4.9006311 1.181437,-2.4326546 4.940002,-2.8907461 6.714093,-0.8183095 0.725611,0.8477837 0.803674,0.8819829 1.475523,0.6477615 0.390141,-0.1358943 0.709408,-0.3149927 0.709408,-0.3980171 0,-0.518166 -1.262223,-1.8564395 -2.161978,-2.2920325 C 51.914187,2.3663648 49.404807,2.1998694 48.01118,2.6545852 m 39.637518,1.7639665 c -0.171217,0.8160608 -0.291377,0.9665827 -0.819441,1.0273324 -0.486,0.056012 -0.618736,0.1887708 -0.618736,0.6187372 0,0.4301921 0.117449,0.5476395 0.547633,0.5476395 h 0.547649 l 0.07104,3.8451752 c 0.06878,3.729085 0.08711,3.858451 0.602315,4.274926 0.523566,0.423668 1.865886,0.575084 2.600266,0.293152 0.195751,-0.07514 0.355955,-0.378875 0.355955,-0.674971 0,-0.459218 -0.109326,-0.538414 -0.742482,-0.538414 -1.212742,0 -1.282478,-0.210372 -1.282478,-3.8699311 V 6.61226 h 0.899979 c 0.809988,0 0.899983,-0.056247 0.899983,-0.5624894 0,-0.5062396 -0.0901,-0.562489 -0.899983,-0.562489 H 88.91045 v -1.012481 c 0,-0.9137075 -0.05174,-1.0124815 -0.53054,-1.0124815 -0.44257,0 -0.563842,0.1583972 -0.731242,0.9562322 M 69.108359,5.7685257 c -1.449191,0.7352876 -2.129132,2.1543358 -2.129132,4.4436673 0,2.289332 0.679941,3.708381 2.129132,4.443667 1.808075,0.917304 4.219365,0.581607 5.388879,-0.750144 0.776008,-0.883773 0.752841,-1.11079 -0.130734,-1.279772 -0.46393,-0.08869 -0.722219,0.0293 -1.132401,0.516597 -0.65316,0.776464 -2.010541,1.069622 -2.922014,0.631105 -0.84598,-0.406786 -1.651248,-1.666089 -1.651248,-2.582275 v -0.754186 h 3.37495 3.374926 V 9.8031459 c 0,-1.1171027 -0.645283,-2.8533958 -1.288323,-3.4669585 C 72.861291,5.1333585 70.816757,4.9018384 69.108362,5.768521 m 9.899821,0 c -1.449203,0.7352881 -2.12913,2.1543362 -2.12913,4.443667 0,2.289334 0.679927,3.708381 2.12913,4.443667 1.80807,0.917309 4.219341,0.581612 5.38887,-0.750145 0.776025,-0.883772 0.752849,-1.11079 -0.130717,-1.279769 -0.463953,-0.0887 -0.722239,0.02928 -1.132405,0.516597 -0.65316,0.776461 -2.010568,1.069621 -2.922027,0.631106 -0.845981,-0.406789 -1.651237,-1.666092 -1.651237,-2.582277 v -0.754182 h 3.374921 3.374947 V 9.8031459 c 0,-1.1171027 -0.645297,-2.8533958 -1.288316,-3.4669585 C 82.761115,5.1333585 80.716572,4.9018384 79.008183,5.768521 M 93.73437,5.6870697 c -1.008653,0.4580915 -1.878038,1.7808424 -1.379009,2.0980858 0.556434,0.353918 1.395211,0.1840461 1.620437,-0.32827 0.312968,-0.7118848 1.331532,-1.1436525 2.278766,-0.9661311 1.05185,0.1973218 1.655754,0.8457589 1.655754,1.7776912 v 0.756436 l -1.976162,0.1124968 c -2.11518,0.1205998 -3.197398,0.5141143 -3.742577,1.3607716 -0.932603,1.448526 -0.481936,3.664513 0.876584,4.309118 1.461571,0.693666 3.421751,0.299921 4.344232,-0.872755 l 0.477428,-0.607031 0.332985,0.79671 c 0.354376,0.848677 0.938911,1.129466 2.078972,0.999203 0.47046,-0.05368 0.66555,-0.211499 0.71796,-0.580044 0.0587,-0.410841 -0.036,-0.506234 -0.49839,-0.506234 -0.86935,0 -1.036072,-0.60322 -1.036988,-3.753835 C 99.483477,6.9861974 99.189621,6.1667623 97.80006,5.5862733 96.732236,5.1401078 94.835062,5.1871291 93.73437,5.6870742 m 30.04796,0.081451 c -1.44923,0.7352869 -2.12916,2.1543357 -2.12916,4.4436658 0,2.289336 0.67993,3.708384 2.12916,4.443671 1.80811,0.917307 4.21939,0.581607 5.38888,-0.750144 0.77604,-0.883779 0.75281,-1.110796 -0.13069,-1.279773 -0.46403,-0.0887 -0.72225,0.02928 -1.13248,0.516596 -0.65314,0.77646 -2.01048,1.069621 -2.92194,0.631107 -0.84597,-0.406793 -1.65132,-1.666095 -1.65132,-2.582283 v -0.75418 h 3.37496 3.37492 V 9.8031459 c 0,-1.1171043 -0.64527,-2.8533958 -1.28828,-3.4669592 -1.26114,-1.2028282 -3.30565,-1.4343494 -5.01405,-0.5676657 m 7.99418,0.3192685 c 0.21637,0.3302942 0.93118,1.3596521 1.58864,2.287534 l 1.19518,1.6870185 -1.68929,2.437375 -1.68905,2.43738 h 0.89479 c 0.87815,0 0.91758,-0.03577 2.13118,-1.940577 l 1.2364,-1.940593 1.29123,1.940593 c 1.2552,1.886129 1.31614,1.940577 2.17085,1.940577 h 0.87943 l -1.41926,-2.031485 c -0.78087,-1.117328 -1.54803,-2.215306 -1.70504,-2.439857 -0.24866,-0.355941 -0.10232,-0.6666597 1.13577,-2.416452 0.78164,-1.1042775 1.49819,-2.1325084 1.59251,-2.2850558 0.12439,-0.2013719 -0.0697,-0.2769714 -0.71123,-0.2769714 -0.85928,0 -0.91323,0.04861 -2.05331,1.8395673 l -1.17111,1.8397894 -1.16477,-1.8397894 c -1.13037,-1.7853415 -1.19041,-1.8395673 -2.03551,-1.8395673 h -0.87101 l 0.3936,0.6005137 M 69.871558,6.8041777 c -0.640134,0.4018425 -1.210717,1.4406475 -1.210717,2.2040596 0,0.2375955 0.560701,0.3039676 2.563839,0.3039676 h 2.563592 L 73.602653,8.4893956 C 73.209364,6.7445545 71.323227,5.8927203 69.871558,6.8041777 m 9.899814,0 c -0.640109,0.4018425 -1.210702,1.4406475 -1.210702,2.2040596 0,0.2375955 0.560698,0.3039676 2.563823,0.3039676 h 2.563608 L 83.502479,8.4893956 C 83.109181,6.7445545 81.22303,5.8927203 79.771372,6.8041777 M 114.62927,6.6561308 c -1.48856,0.7193112 -1.64263,5.7196122 -0.21284,6.9053442 0.61042,0.506232 2.10059,0.393065 2.74048,-0.208119 0.94652,-0.889409 1.29868,-3.304965 0.76301,-5.2340793 -0.38569,-1.3888973 -1.97868,-2.0971836 -3.29065,-1.4631459 m 9.91628,0.1480469 c -0.64014,0.4018425 -1.21077,1.4406475 -1.21077,2.2040596 0,0.2375955 0.56076,0.3039676 2.56388,0.3039676 h 2.56356 L 128.27664,8.4893956 C 127.88337,6.7445545 125.99717,5.8927203 124.54555,6.8041777 M 9.3292401,8.1782261 c -1.5061205,0.9182092 -1.94261,3.4001409 -0.8304613,4.7217609 0.7771409,0.923381 1.4046503,1.261551 1.5650682,0.843055 0.0673,-0.175043 -0.2324177,-0.666431 -0.6781268,-1.112148 C 8.4427599,11.68793 8.3397091,10.777605 9.0464204,9.6343999 9.8829592,8.2810487 11.713759,8.1278271 12.9681,9.3063568 13.282866,9.6020005 13.535542,9.6771501 13.756476,9.5405771 14.031201,9.370704 14.013198,9.2642809 13.641057,8.8529891 12.581332,7.6818867 10.640972,7.3783674 9.3292401,8.1782261 m 18.0448929,-0.02655 c -0.371258,0.2267959 -0.820344,0.588589 -0.998088,0.8036848 -0.278772,0.3374951 -0.279212,0.4182675 -0.0033,0.5885885 0.213969,0.1322984 0.47271,0.053767 0.782755,-0.2375933 1.254357,-1.1785297 3.085138,-1.0253081 3.921674,0.3280433 0.706722,1.1432056 0.60367,2.0535316 -0.339284,2.9964946 -0.445721,0.445718 -0.745422,0.937106 -0.678146,1.112148 0.160412,0.418496 0.787939,0.0803 1.565071,-0.843055 0.694853,-0.825735 0.806214,-2.510955 0.238323,-3.6089317 C 31.114758,7.8432067 28.828132,7.262717 27.374424,8.1516768 m -9.337333,0.0576 c -1.739496,0.3397392 -3.83579,1.5301925 -5.345964,3.0360912 -2.295394,2.289105 -3.6192773,5.719154 -3.2642368,8.457141 0.1084441,0.836757 1.0302578,3.336463 1.2291588,3.333311 0.03775,-4.52e-4 0.676109,-0.251093 1.418592,-0.557081 1.427378,-0.587918 4.152743,-0.78186 4.837411,-0.344023 0.227706,0.145584 -0.02832,0.173458 -0.787487,0.08572 -1.305876,-0.151006 -3.378536,0.186975 -4.546486,0.741134 l -0.814038,0.386315 1.088976,0.985942 c 2.118344,1.917856 4.594864,2.746288 8.208977,2.746288 3.614109,0 6.090632,-0.828432 8.208975,-2.746288 l 1.088975,-0.985943 -0.814032,-0.386315 c -1.167907,-0.554162 -3.240571,-0.892106 -4.546445,-0.741136 -0.759131,0.08777 -1.015189,0.05986 -0.787482,-0.08572 0.684666,-0.437836 3.410036,-0.243896 4.837406,0.344022 0.742493,0.305988 1.37179,0.556631 1.398351,0.557082 0.02657,6.68e-4 0.164921,-0.216676 0.307347,-0.483064 0.215533,-0.402748 0.202708,-0.462376 -0.07725,-0.355048 -0.421872,0.162004 -0.844864,-0.238721 -0.68692,-0.650682 0.159743,-0.416031 0.676781,-0.393296 0.91956,0.04004 0.151643,0.271341 0.252895,0.157276 0.449322,-0.50624 C 31.34082,17.76417 30.231362,14.03623 27.432873,11.24538 24.790587,8.6104462 21.472798,7.5383403 18.037107,8.2092783 m 1.650578,0.3305203 c -0.187651,0.488689 0.288436,0.9483564 0.629301,0.6074874 0.288004,-0.2879941 0.109558,-0.9600575 -0.25491,-0.9600575 -0.131617,0 -0.299913,0.1586218 -0.374391,0.3525701 m -1.306995,0.087525 c -0.07312,0.1183475 -0.281706,0.1581729 -0.463271,0.08842 -0.205871,-0.078971 -0.330308,0.00944 -0.330308,0.2348958 0,0.396442 0.345602,0.4875654 0.55643,0.1464704 0.0731,-0.1183429 0.281687,-0.1581718 0.463265,-0.088419 0.205868,0.078971 0.330291,-0.00933 0.330291,-0.2348962 0,-0.3964426 -0.345595,-0.4875651 -0.556407,-0.146472 m 2.806367,0.146472 c 0,0.214646 0.125974,0.3131942 0.310039,0.2425457 0.170558,-0.065473 0.414878,-0.014183 0.542917,0.1138492 0.279223,0.2792199 0.788387,0.021596 0.590391,-0.298794 -0.07629,-0.123748 -0.277172,-0.1716682 -0.446365,-0.1068678 -0.169203,0.065015 -0.367419,0.021146 -0.440551,-0.097201 -0.210779,-0.3411004 -0.556373,-0.2499778 -0.556373,0.1464632 m -4.869147,0.8774826 c -0.07943,0.2069967 0.01257,0.5258125 0.208579,0.7215565 0.477907,0.477896 1.111706,0.204081 1.020134,-0.4409848 -0.08874,-0.6248193 -1.015406,-0.8363161 -1.22871,-0.2805768 m 6.299894,0 c -0.07843,0.2040709 0.0053,0.5186136 0.18607,0.6990626 0.450203,0.450215 1.12542,0.159068 1.038809,-0.4479651 -0.08532,-0.5980403 -1.01834,-0.7892878 -1.224879,-0.2510984 m -8.098733,0.4468425 c -0.07791,0.203173 -0.03374,0.477214 0.09811,0.609063 0.342905,0.342894 0.992234,0.02949 0.902695,-0.435366 -0.09967,-0.517938 -0.820538,-0.6430346 -1.000766,-0.173695 m 10.282307,-0.01575 c -0.34919,0.420747 -0.127571,0.804814 0.464619,0.804814 0.33637,0 0.433788,-0.125326 0.380475,-0.488691 -0.09007,-0.6104179 -0.479715,-0.7564412 -0.845099,-0.316126 m 69.959283,0.288674 c -0.774192,0.283048 -1.349983,1.0541 -1.349983,1.807613 0,1.684553 1.095068,2.239838 2.794689,1.41703 1.084476,-0.524923 1.705246,-1.50275 1.705246,-2.686227 v -0.697265 l -1.406225,0.01779 c -0.773316,0.0097 -1.558105,0.07335 -1.743725,0.141077 m -79.740543,1.10674 c -0.08351,0.217114 -0.01432,0.52447 0.156364,0.695011 0.43019,0.430427 1.100459,0.119927 1.01631,-0.470466 -0.08637,-0.605014 -0.962515,-0.772861 -1.17266,-0.224544 m 8.941561,-0.01042 c -0.07493,0.195079 0.02953,0.520646 0.231969,0.72314 0.341092,0.340865 0.395528,0.340865 0.73662,0 0.459913,-0.460118 0.248857,-1.078182 -0.368304,-1.078182 -0.255376,0 -0.525372,0.159747 -0.600285,0.355042 m -11.018722,0.433922 c -0.07939,0.206999 0.01275,0.52582 0.208572,0.721564 0.477887,0.477896 1.111697,0.204071 1.020128,-0.440989 -0.08873,-0.624804 -1.015411,-0.836306 -1.2287,-0.280571 m 13.056509,-0.01735 c -0.224097,0.583862 0.08981,1.066258 0.64281,0.987733 0.371699,-0.05284 0.50714,-0.222073 0.50714,-0.634491 0,-0.412417 -0.135461,-0.581607 -0.50714,-0.634483 -0.304412,-0.04318 -0.561589,0.06929 -0.64281,0.281241 m -12.129308,2.385419 c -0.08735,0.141294 -0.05287,0.362922 0.0765,0.492293 0.302395,0.302396 1.00731,0.03867 0.884245,-0.330973 -0.125123,-0.375971 -0.761853,-0.483068 -0.960743,-0.161323 m 11.474798,0 c -0.08728,0.141297 -0.05283,0.362922 0.07656,0.492294 0.302394,0.302396 1.007295,0.03866 0.884221,-0.330971 -0.125134,-0.375972 -0.761861,-0.483071 -0.960762,-0.161327 m -14.379247,0.346182 c -0.194392,0.194622 -0.353464,0.491168 -0.353464,0.659016 0,0.439408 0.636729,1.012466 1.124969,1.012466 0.488242,0 1.124983,-0.573058 1.124983,-1.012466 0,-0.439425 -0.636741,-1.012484 -1.124983,-1.012484 -0.229716,0 -0.576889,0.159064 -0.771505,0.353468 m 16.668579,0.05805 c -0.477214,0.527164 -0.46912,0.780955 0.03908,1.241076 0.553039,0.500611 1.320061,0.470678 1.605577,-0.06281 0.31635,-0.591279 0.293837,-0.821673 -0.120565,-1.236336 -0.469788,-0.469562 -1.067156,-0.447067 -1.524123,0.05805 M 14.707953,15.44464 c -0.511636,0.61649 -0.550554,1.499591 -0.09989,2.263685 l 0.44348,0.751483 -1.483396,-0.411499 c -1.694864,-0.470031 -2.055756,-0.502651 -2.055756,-0.186307 0,0.123757 0.306221,0.224998 0.680611,0.224998 0.924734,0 3.034513,0.764761 3.899187,1.413423 1.117099,0.838107 1.448504,0.93733 0.669804,0.200473 l -0.712572,-0.674528 0.541112,-0.135724 c 1.272144,-0.319256 1.551111,-2.096942 0.503992,-3.21158 C 16.55093,15.1004 15.110971,14.958873 14.70799,15.444639 m 8.321929,0.234443 c -1.047123,1.114639 -0.768145,2.892325 0.503995,3.211596 l 0.541111,0.135724 -0.71257,0.674534 c -0.778715,0.736858 -0.447292,0.637625 0.669813,-0.200474 0.864659,-0.648661 2.974454,-1.413422 3.899188,-1.413422 0.374395,0 0.680618,-0.101233 0.680618,-0.224998 0,-0.316344 -0.360916,-0.283722 -2.055804,0.186313 l -1.483398,0.411496 0.443471,-0.751479 c 0.450666,-0.764106 0.411738,-1.647209 -0.0999,-2.263695 -0.402979,-0.485784 -1.842957,-0.344257 -2.386539,0.234429 m -8.097587,-0.02206 c -0.148509,0.148526 -0.254925,0.629548 -0.236245,1.068737 0.02899,0.687809 0.04685,0.712102 0.127791,0.175041 0.111642,-0.738442 0.951518,-1.365502 1.5311,-1.143203 0.279444,0.107418 0.355486,0.07377 0.243445,-0.107398 -0.212395,-0.343565 -1.320272,-0.339063 -1.666089,0.007 m 8.593702,-0.007 c -0.112023,0.181122 -0.03598,0.214645 0.24345,0.107398 0.579595,-0.222299 1.419503,0.404761 1.531097,1.143203 0.08103,0.537061 0.09875,0.512768 0.127772,-0.175041 0.01877,-0.439419 -0.08772,-0.920235 -0.236231,-1.068737 -0.345825,-0.345809 -1.453699,-0.350311 -1.666105,-0.007 m -13.347635,1.301897 c -0.3725974,0.2304 -0.155695,0.90988 0.290463,0.90988 0.176178,0 0.37575,-0.144435 0.443698,-0.321069 0.163127,-0.425407 -0.342439,-0.83084 -0.734155,-0.588745 m 19.263462,-0.06971 c -0.33119,0.330963 -0.157051,1.01315 0.238939,0.93687 0.216679,-0.04185 0.393756,-0.268628 0.393756,-0.50398 0,-0.447747 -0.366974,-0.698849 -0.632695,-0.43289 M 17.269785,17.3559 c -0.196864,0.611988 -0.921358,1.037449 -1.505881,0.884682 -0.234904,-0.06144 -0.370575,-0.01986 -0.301057,0.09232 0.06927,0.112241 0.421419,0.204075 0.782541,0.204075 0.695679,0 1.474166,-0.8469 1.28585,-1.39903 -0.0583,-0.170322 -0.165144,-0.08118 -0.261453,0.218023 m 5.276377,-0.162906 c -0.01734,0.657901 0.667116,1.34391 1.340538,1.34391 0.356837,0 0.721098,-0.116985 0.809293,-0.259876 0.102366,-0.165144 0.06143,-0.198438 -0.111761,-0.09116 -0.472272,0.291596 -1.347503,-0.08028 -1.694887,-0.720666 -0.189232,-0.348971 -0.337948,-0.466873 -0.343138,-0.272252 m -3.659544,0.569727 c -1.374964,0.746088 -1.342322,1.958369 0.06411,2.379795 0.787479,0.236015 0.886479,0.344459 0.886479,0.972415 0,1.212513 -0.968392,1.654396 -1.870386,0.853198 -0.434704,-0.386315 -0.4401,-0.376653 -0.279897,0.506241 0.26436,1.455943 1.250288,2.282806 1.250288,1.048697 0,-0.831579 0.844194,-1.279545 1.687474,-0.895257 0.407688,0.185851 0.562498,0.431989 0.562498,0.895257 0,1.234109 0.985921,0.407246 1.250296,-1.048697 0.160205,-0.882894 0.154805,-0.892556 -0.27989,-0.506241 -0.902,0.801198 -1.870387,0.359315 -1.870387,-0.853198 0,-0.627956 0.09898,-0.7364 0.886477,-0.972415 1.427815,-0.427728 1.437053,-1.656877 0.01804,-2.390811 -0.817186,-0.422549 -1.512201,-0.419166 -2.305087,0.01131 m -8.856964,0.858593 c -0.2697702,0.702657 0.003,1.1531 0.698392,1.1531 0.596461,0 0.671831,-0.07563 0.671831,-0.67499 0,-0.569463 -0.09698,-0.686231 -0.620081,-0.746309 -0.395549,-0.04548 -0.667121,0.05149 -0.750142,0.268199 m 18.674649,0 c -0.269763,0.702657 0.0033,1.1531 0.698393,1.1531 0.596458,0 0.671831,-0.07563 0.671831,-0.67499 0,-0.569463 -0.09699,-0.686231 -0.620088,-0.746309 -0.395537,-0.04551 -0.667105,0.05143 -0.750131,0.268139 m -17.717786,1.656213 c -0.08256,0.133646 0.494538,0.175492 1.517136,0.109806 1.206432,-0.07746 1.976144,0.0017 2.860828,0.292041 1.866792,0.614018 1.950265,0.620542 0.985253,0.07748 -0.710988,-0.400038 -1.354699,-0.526257 -3.064892,-0.600739 -1.248046,-0.05421 -2.221606,-0.0028 -2.298325,0.121541 m 13.575566,0.137569 c -0.814042,0.292712 -1.948233,0.930575 -1.349985,0.759124 0.18563,-0.05307 0.882226,-0.275841 1.54776,-0.494759 0.88467,-0.290924 1.654388,-0.369445 2.860822,-0.292041 0.907856,0.05828 1.597467,0.02038 1.532677,-0.08458 -0.181133,-0.293165 -3.703655,-0.206993 -4.591274,0.11224 M 11.512359,21.12467 c 0,0.185619 0.151874,0.337487 0.337507,0.337487 0.185622,0 0.337487,-0.151815 0.337487,-0.337487 0,-0.18562 -0.151862,-0.337506 -0.337487,-0.337506 -0.185629,0 -0.337507,0.151922 -0.337507,0.337506 m 16.476216,-0.07024 c 0.13901,0.417148 0.623469,0.486219 0.623469,0.08888 0,-0.195743 -0.160434,-0.356177 -0.356175,-0.356177 -0.195971,0 -0.316346,0.120194 -0.267294,0.267299 M 10.312234,21.55803 c -0.19124,0.49837 0.403868,0.883783 0.739572,0.479015 0.150975,-0.181803 0.209025,-0.43603 0.129141,-0.565182 -0.209693,-0.339531 -0.724932,-0.288455 -0.868713,0.08618 m 33.521906,1.760144 c 2.038451,6.744475 1.834381,6.24363 2.545373,6.24363 0.718417,0 0.768811,-0.117712 1.85509,-4.331157 0.279213,-1.082686 0.56046,-1.968725 0.62481,-1.968725 0.06457,0 0.508276,1.423093 0.986153,3.162317 l 0.869154,3.162087 0.694802,-0.06834 0.694777,-0.06857 1.161207,-3.937432 c 1.101358,-3.735161 1.138251,-3.941261 0.71503,-4.012797 -0.245231,-0.04141 -0.527833,0.0091 -0.628183,0.112487 -0.100382,0.10325 -0.579822,1.645181 -1.065807,3.42646 -0.485761,1.781299 -0.931256,3.148144 -0.989756,3.037439 -0.05851,-0.110691 -0.502633,-1.643806 -0.986828,-3.40733 -0.806611,-2.936634 -0.924056,-3.206192 -1.396544,-3.206192 -0.610867,0 -0.56474,-0.107125 -1.624471,3.762614 -0.459893,1.678459 -0.883787,2.96116 -0.942068,2.850684 -0.05851,-0.110428 -0.502623,-1.64358 -0.986825,-3.407104 -0.853845,-3.108546 -0.899078,-3.206197 -1.483828,-3.206197 h -0.603017 l 0.560927,1.856216 m 13.501277,-1.687466 c -0.05644,0.09282 -0.66328,1.535593 -1.348606,3.206187 -0.68511,1.670589 -1.40556,3.41723 -1.601071,3.881166 l -0.355264,0.843741 h 0.633581 c 0.556408,0 0.682855,-0.137072 1.038127,-1.12498 l 0.404537,-1.124981 h 1.88367 1.883441 l 0.48396,1.124981 c 0.395097,0.918222 0.586785,1.12498 1.042858,1.12498 0.439199,0 0.526943,-0.08437 0.409498,-0.393747 -0.08186,-0.216664 -0.814499,-2.03891 -1.627616,-4.049918 -1.41861,-3.508137 -1.504111,-3.656187 -2.111591,-3.656187 -0.348069,0 -0.679047,0.07609 -0.735524,0.168759 m 5.475957,3.881179 v 4.049923 h 2.699949 c 2.549886,0 2.699946,-0.02494 2.699946,-0.449993 0,-0.41849 -0.150092,-0.449996 -2.137458,-0.449996 h -2.137461 v -3.599998 -3.599944 h -0.562484 -0.562493 v 4.049937 m 6.749862,0 v 4.04992 h 2.699964 c 2.549867,0 2.699941,-0.02494 2.699941,-0.449994 0,-0.418479 -0.15011,-0.449985 -2.137457,-0.449985 h -2.137455 v -3.599946 -3.599944 h -0.562499 -0.562489 v 4.049938 m 6.52488,0 v 4.049919 h 3.262443 c 3.112364,0 3.262443,-0.02075 3.262443,-0.449993 0,-0.425014 -0.150109,-0.449986 -2.699968,-0.449986 H 77.211088 V 27.31183 25.961859 h 2.474945 c 2.324884,0 2.474961,-0.02719 2.474961,-0.449988 0,-0.422768 -0.150108,-0.449989 -2.474961,-0.449989 H 77.211088 V 23.7119 22.361925 h 2.587449 c 2.437381,0 2.587445,-0.02599 2.587445,-0.44999 0,-0.428607 -0.150093,-0.449995 -3.149922,-0.449995 h -3.149956 v 4.049931 m 7.199874,-3.599936 c 0,0.403868 0.150108,0.44999 1.462466,0.44999 h 1.462459 v 3.599934 3.59993 h 0.562511 0.562483 v -3.59993 -3.599934 h 1.349983 c 1.199894,0 1.349967,-0.0499 1.349967,-0.44999 0,-0.429954 -0.150109,-0.449995 -3.374944,-0.449995 -3.224859,0 -3.374925,0.02007 -3.374925,0.449995 m -26.015827,2.535698 -0.69005,1.85172 1.341638,0.06766 c 0.738,0.03714 1.391838,0.01758 1.453031,-0.0437 0.109326,-0.10931 -1.015402,-3.241752 -1.279548,-3.563265 -0.07406,-0.09023 -0.445256,0.669142 -0.825071,1.687467 m -44.83422,-0.876667 c -0.374839,0.451799 -0.05503,1.077513 0.508937,0.996726 0.552591,-0.07919 0.777144,-0.825285 0.333219,-1.106516 -0.416914,-0.264376 -0.545605,-0.247504 -0.842156,0.109768 m 14.410296,-0.109745 c -0.455608,0.288667 -0.213736,1.028216 0.362928,1.110356 0.604567,0.08618 0.901334,-0.491836 0.500387,-0.974907 -0.318137,-0.383394 -0.441657,-0.40275 -0.863315,-0.13546 m -12.783348,0.603427 c -0.187651,0.488683 0.288443,0.948366 0.629313,0.607479 0.287999,-0.287987 0.10957,-0.960049 -0.254919,-0.960049 -0.131625,0 -0.299924,0.158629 -0.374394,0.35257 m 11.24979,0 c -0.187651,0.488683 0.288437,0.948366 0.6293,0.607479 0.288,-0.287987 0.109589,-0.960049 -0.254914,-0.960049 -0.131617,0 -0.299904,0.158629 -0.374386,0.35257 m -10.525301,1.202154 c -0.217127,0.35122 0.138581,0.945659 0.521985,0.872748 0.200921,-0.03818 0.397798,-0.296303 0.437404,-0.573494 0.05397,-0.378689 -0.04063,-0.504004 -0.38048,-0.504004 -0.24885,0 -0.509387,0.09207 -0.578909,0.20475 m 9.587962,0.283482 c 0.09575,0.677477 0.974239,0.744302 0.974239,0.07425 0,-0.299915 -0.174828,-0.474742 -0.524237,-0.52425 -0.436282,-0.06188 -0.511862,0.0138 -0.450002,0.449996 m -7.538035,0.561813 c -0.258951,0.258756 -0.164012,0.524929 0.187423,0.524929 0.185621,0 0.337493,-0.151922 0.337493,-0.337506 0,-0.351439 -0.266157,-0.446377 -0.524916,-0.187423 m 5.924832,0.168756 c 0,0.195744 0.160416,0.356173 0.356155,0.356173 0.39734,0 0.328272,-0.484429 -0.08893,-0.623477 -0.147148,-0.04911 -0.267279,0.07133 -0.267279,0.267304 m -4.724923,0.262336 c 0,0.195978 0.120177,0.316349 0.267289,0.2673 0.41715,-0.139009 0.48623,-0.623456 0.08893,-0.623456 -0.195746,0 -0.356176,0.160418 -0.356176,0.356156 m 3.531087,-0.212382 c -0.179779,0.179768 0.02327,0.531219 0.307132,0.531219 0.116549,0 0.211722,-0.151922 0.211722,-0.337506 0,-0.34784 -0.265504,-0.44707 -0.518854,-0.193713"
     stroke="none"
     fill="#efe1a1"
     fill-rule="evenodd"
     id="path1"
     style="fill:#d4aa00;fill-opacity:1;stroke-width:0.224997" />
  <path
     d="m -1.144003,17.673254 v 17.999894 l 72.504889,-0.05641 72.504874,-0.0567 0.0582,-17.943418 0.057,-17.94347801 H 71.418485 -1.144003 V 17.673254 m 0.10732,0.112038 c 0,9.899806 0.0277,13.916878 0.0614,8.926921 0.0337003,-4.990182 0.0337003,-13.09003 0,-17.9996591 -0.034,-4.9098385 -0.0616,-0.8270662 -0.0614,9.0727581 M 17.530646,1.5028068 C 11.466343,2.4930133 6.4340756,6.7317095 4.5708868,12.418926 3.9768966,14.232168 3.9183969,14.69229 3.9183969,17.560313 c 0,2.860805 0.057599,3.317765 0.6279702,4.978474 1.7959093,5.2289 5.7754069,8.986555 11.1843079,10.56085 2.046556,0.595796 6.503279,0.595796 8.549837,0 5.408907,-1.574295 9.388405,-5.33195 11.18432,-10.56085 0.570359,-1.660709 0.627968,-2.117669 0.627968,-4.978474 0,-2.868023 -0.05851,-3.328145 -0.652495,-5.141387 C 33.010574,5.0021668 25.211329,0.24868099 17.530646,1.5028068 m 39.59927,6.9451704 v 6.5248798 h 0.899973 0.899969 v -3.247813 c 0,-1.7862463 0.09666,-3.5022876 0.21487,-3.8132297 0.503998,-1.3254527 2.821458,-1.8436178 3.653039,-0.8165115 0.35572,0.4391908 0.407024,0.9677072 0.407024,4.1900912 v 3.687463 h 0.801436 0.801424 l -0.07019,-4.157922 C 64.667471,6.6653359 64.666161,6.6558865 64.075079,6.065497 63.668964,5.6598302 63.160233,5.4373086 62.457129,5.3581103 61.107832,5.2060127 60.443404,5.3929803 59.552652,6.1757449 l -0.735274,0.6461873 0.07611,-2.4495288 0.07631,-2.4493032 H 58.04982 57.130048 v 6.524877 m 44.999172,0 v 6.5248798 h 0.89998 0.89999 v -3.247813 c 0,-1.7862463 0.0967,-3.5022876 0.21485,-3.8132297 0.50397,-1.3254527 2.8215,-1.8436178 3.65297,-0.8165115 0.35581,0.4391908 0.40705,0.9677072 0.40705,4.1900912 v 3.687463 h 0.80143 0.80148 l -0.0706,-4.157922 c -0.0707,-4.1495991 -0.0717,-4.1590485 -0.66248,-4.749438 -0.40606,-0.4056668 -0.91477,-0.6281884 -1.61783,-0.7073867 -1.34934,-0.1520973 -2.01373,0.034872 -2.90451,0.8176346 l -0.73523,0.6461873 0.0756,-2.4495288 0.0762,-2.4493032 h -0.92001 -0.91971 v 6.524877 M 118.10333,4.3276303 V 6.7321592 L 117.4332,6.0902467 c -0.52355,-0.5015157 -0.92918,-0.6610381 -1.85622,-0.7294382 -2.61055,-0.1928194 -3.89263,1.4604485 -3.87734,4.9996365 0.008,1.54324 0.11388,2.238253 0.45001,2.922015 1.04962,2.133861 3.64878,2.586324 5.44738,0.948135 l 0.50624,-0.461244 v 0.601862 c 0,0.537519 0.0836,0.601644 0.78749,0.601644 h 0.78757 V 8.4479772 1.9231002 h -0.78757 -0.78749 V 4.3276303 M 16.630741,2.7211591 C 11.483287,3.8204884 6.4899566,8.7249478 5.2763272,13.873524 c -0.4342408,1.842276 -0.4342408,5.306311 0,7.148565 0.9256398,3.926632 4.2674986,8.059809 7.9938798,9.886765 5.344095,2.620072 11.208381,2.033961 16.120503,-1.610523 2.406542,-1.78579 4.557503,-5.000971 5.368617,-8.025585 0.526494,-1.962646 0.526494,-5.687238 0,-7.649863 C 32.989739,7.0248787 26.788637,2.3413657 19.89319,2.3949158 c -0.989998,0.00757 -2.458082,0.1545726 -3.262449,0.3262433 m 31.324375,-0.03082 c -2.283495,0.7449594 -3.599942,2.6124241 -3.811207,5.4064228 -0.222083,2.9359701 0.934629,5.4390471 2.967905,6.4233951 2.871173,1.389811 6.63446,0.461256 8.056644,-1.987826 l 0.400729,-0.690514 -0.728306,-0.376639 c -0.519074,-0.268418 -0.75375,-0.301047 -0.816291,-0.113626 -0.205647,0.617386 -1.330626,1.690847 -2.172782,2.07333 -2.27537,1.03364 -4.945185,-0.186061 -5.750896,-2.62749 -0.369887,-1.1207097 -0.18697,-3.8359572 0.330073,-4.9006362 1.181455,-2.4326538 4.940005,-2.8907447 6.714088,-0.8183094 0.725626,0.8477838 0.803702,0.8819837 1.475536,0.6477633 0.390135,-0.1358959 0.709407,-0.314995 0.709407,-0.3980184 0,-0.5181644 -1.262227,-1.8564394 -2.16198,-2.2920312 C 51.858095,2.402119 49.348724,2.2356218 47.955116,2.6903381 M 87.59261,4.4543047 c -0.171226,0.8160613 -0.29136,0.9665835 -0.819435,1.0273309 -0.48598,0.056012 -0.618739,0.1887717 -0.618739,0.6187385 0,0.4301915 0.117433,0.5476396 0.547642,0.5476396 h 0.547633 l 0.07104,3.8451783 c 0.06878,3.72908 0.08711,3.858462 0.602316,4.27492 0.523578,0.423674 1.865902,0.575082 2.600283,0.29317 0.195744,-0.07514 0.355938,-0.378887 0.355938,-0.674988 0,-0.45922 -0.109279,-0.538416 -0.742484,-0.538416 -1.212722,0 -1.282469,-0.210365 -1.282469,-3.8699277 V 6.6480146 h 0.899976 c 0.809982,0 0.899978,-0.056247 0.899978,-0.5624882 0,-0.5062416 -0.09009,-0.5624899 -0.899978,-0.5624899 h -0.899927 v -1.012482 c 0,-0.9137081 -0.0518,-1.0124806 -0.530555,-1.0124806 -0.442564,0 -0.563829,0.1583962 -0.731236,0.9562316 m -18.54032,1.3499757 c -1.449195,0.7352852 -2.129126,2.1543342 -2.129126,4.4436618 0,2.289335 0.679931,3.708379 2.129126,4.443667 1.808068,0.917304 4.219347,0.581616 5.38887,-0.750133 0.776007,-0.883786 0.752837,-1.110802 -0.130733,-1.279774 -0.463929,-0.08871 -0.722229,0.02927 -1.132388,0.516589 -0.653158,0.776458 -2.010563,1.069635 -2.922013,0.631113 -0.845988,-0.406787 -1.651246,-1.666097 -1.651246,-2.582273 v -0.754191 h 3.374931 3.374952 V 9.8389037 c 0,-1.1171039 -0.645309,-2.8533954 -1.288351,-3.4669592 -1.26109,-1.2028269 -3.305627,-1.4343479 -5.014019,-0.5676633 m 9.899817,0 c -1.449207,0.7352852 -2.129131,2.1543342 -2.129131,4.4436618 0,2.289335 0.679924,3.708379 2.129131,4.443667 1.808064,0.917304 4.219338,0.581616 5.388889,-0.750133 0.77601,-0.883786 0.752824,-1.110802 -0.130733,-1.279774 -0.463954,-0.08871 -0.722246,0.02927 -1.132408,0.516589 -0.653152,0.776458 -2.010566,1.069635 -2.92202,0.631113 -0.84598,-0.406787 -1.651237,-1.666097 -1.651237,-2.582273 v -0.754191 h 3.374938 3.374933 V 9.8389037 c 0,-1.1171039 -0.64529,-2.8533954 -1.288331,-3.4669592 -1.2611,-1.2028269 -3.305631,-1.4343479 -5.014031,-0.5676633 M 93.678297,5.722829 c -1.008646,0.4580914 -1.87804,1.7808424 -1.379001,2.0980863 0.556411,0.3539182 1.395188,0.1840463 1.620414,-0.3282693 0.312977,-0.7118866 1.331535,-1.1436546 2.278757,-0.9661314 1.051854,0.19732 1.655739,0.8457582 1.655739,1.7776923 v 0.756435 l -1.976122,0.1125013 c -2.115198,0.1205998 -3.197421,0.5141141 -3.74257,1.3607758 -0.932625,1.448522 -0.481952,3.664502 0.876571,4.309116 1.461575,0.693654 3.421726,0.299918 4.344212,-0.872765 l 0.477439,-0.60703 0.332996,0.796717 c 0.354375,0.848673 0.938911,1.129464 2.078988,0.999199 0.47042,-0.05368 0.66553,-0.211498 0.71794,-0.580038 0.0587,-0.410844 -0.036,-0.506232 -0.4984,-0.506232 -0.869376,0 -1.036076,-0.603228 -1.036977,-3.753837 C 99.427374,7.0219563 99.133544,6.202523 97.743973,5.6220325 96.676143,5.1758668 94.77897,5.222891 93.678299,5.7228302 m 30.047941,0.081451 c -1.44915,0.7352847 -2.12917,2.1543334 -2.12917,4.4436598 0,2.289337 0.68002,3.708382 2.12917,4.443669 1.80811,0.917304 4.21938,0.581615 5.38886,-0.750132 0.77606,-0.883787 0.75283,-1.110803 -0.13074,-1.279774 -0.4639,-0.08871 -0.72219,0.02927 -1.13242,0.516587 -0.65319,0.776458 -2.01053,1.069634 -2.92195,0.631113 -0.84599,-0.406787 -1.65115,-1.666096 -1.65115,-2.582273 v -0.75419 h 3.37489 3.37488 V 9.8389037 c 0,-1.1171039 -0.64523,-2.8533954 -1.28832,-3.4669592 -1.26107,-1.2028269 -3.30561,-1.4343479 -5.01405,-0.5676633 m 7.99409,0.3192688 c 0.21644,0.330294 0.9313,1.3596488 1.58871,2.2875315 l 1.19517,1.6870225 -1.68924,2.437376 -1.689,2.437383 h 0.89472 c 0.8782,0 0.91756,-0.0358 2.13117,-1.940587 l 1.2364,-1.940597 1.29122,1.940597 c 1.25528,1.886133 1.31623,1.940587 2.17103,1.940587 h 0.87926 l -1.41927,-2.031494 c -0.78075,-1.11733 -1.5481,-2.215307 -1.70503,-2.439851 -0.24865,-0.355943 -0.10231,-0.6666633 1.13582,-2.4164548 0.78158,-1.1042789 1.49822,-2.132511 1.59246,-2.2850575 0.1244,-0.2013707 -0.0693,-0.2769692 -0.71117,-0.2769692 -0.85929,0 -0.91329,0.048609 -2.05329,1.8395642 l -1.17111,1.8397917 -1.16484,-1.8397917 C 133.10296,5.5772594 133.04298,5.5230365 132.19782,5.5230365 H 131.3268 L 131.72033,6.12355 M 69.81547,6.8399351 c -0.640109,0.4018431 -1.210701,1.4406485 -1.210701,2.2040597 0,0.2375963 0.560679,0.3039704 2.563823,0.3039704 H 73.7322 L 73.546584,8.5251543 C 73.153292,6.7803123 71.267142,5.9284796 69.81547,6.8399351 m 9.899816,0 c -0.640113,0.4018431 -1.210702,1.4406485 -1.210702,2.2040597 0,0.2375963 0.560697,0.3039704 2.563832,0.3039704 h 2.563588 L 83.446381,8.5251543 C 83.05309,6.7803123 81.166965,5.9284796 79.715286,6.8399351 M 114.57318,6.6918885 c -1.48856,0.7193108 -1.64264,5.7196085 -0.21285,6.9053385 0.6105,0.506251 2.10052,0.393077 2.74041,-0.208114 0.94666,-0.889405 1.29875,-3.304965 0.76303,-5.2340771 -0.38571,-1.3888995 -1.97862,-2.0971873 -3.29059,-1.4631474 m 9.91629,0.1480468 c -0.64016,0.4018429 -1.21063,1.4406483 -1.21063,2.2040595 0,0.2375963 0.56061,0.3039704 2.56372,0.3039704 h 2.56356 L 128.2206,8.5251543 c -0.39332,-1.744842 -2.27946,-2.5966747 -3.73113,-1.6852192 M 9.2731537,8.213985 c -1.5061177,0.9182083 -1.9426071,3.400138 -0.8304569,4.72176 0.7771409,0.923387 1.404647,1.261557 1.5650702,0.843057 C 10.075047,13.603758 9.7753478,13.112371 9.3296238,12.66665 8.3866773,11.723691 8.2836268,10.813366 8.9903376,9.6701584 9.8268608,8.316809 11.657659,8.1635875 12.912019,9.3421147 13.22679,9.637759 13.479461,9.7129076 13.700387,9.5763349 13.975117,9.406463 13.957119,9.3000409 13.584976,8.8887477 12.525247,7.7176437 10.584879,7.4141257 9.2731537,8.213985 M 27.318047,8.187435 c -0.371249,0.2267972 -0.82034,0.5885899 -0.998083,0.8036848 -0.278774,0.3374947 -0.279228,0.4182674 -0.0033,0.5885897 0.213969,0.1322962 0.472714,0.053769 0.782757,-0.2375961 1.254355,-1.1785272 3.085149,-1.0253062 3.921677,0.3280428 0.706709,1.1432098 0.603667,2.0535358 -0.339288,2.9964938 -0.44572,0.445721 -0.745404,0.937108 -0.678143,1.112152 0.16043,0.4185 0.78794,0.0803 1.565076,-0.843057 0.694681,-0.825732 0.806047,-2.510953 0.238168,-3.6089312 C 31.058593,7.878967 28.771963,7.2984778 27.318283,8.1874349 m -9.337327,0.057597 c -1.739484,0.3397489 -3.835774,1.5302007 -5.345946,3.0360941 -2.295408,2.289112 -3.6192773,5.719177 -3.2642333,8.457151 0.1084461,0.836753 1.0302613,3.336458 1.2291473,3.333297 0.03773,-4.48e-4 0.676124,-0.251087 1.418602,-0.557083 1.427381,-0.587911 4.152751,-0.781859 4.837407,-0.344011 0.227699,0.145582 -0.02832,0.173461 -0.787476,0.08572 -1.305891,-0.151009 -3.378548,0.186963 -4.546491,0.741124 l -0.814042,0.386316 1.088985,0.985947 c 2.118328,1.917859 4.594867,2.746289 8.208958,2.746289 3.614121,0 6.090641,-0.82843 8.208982,-2.746289 l 1.08903,-0.985947 -0.814042,-0.386317 C 27.3219,22.443163 25.249222,22.105226 23.943353,22.2562 c -0.759143,0.08778 -1.015169,0.05986 -0.787481,-0.08572 0.684664,-0.437843 3.410032,-0.243898 4.837409,0.344016 0.742484,0.305994 1.371791,0.556631 1.398347,0.557083 0.02658,6.88e-4 0.164921,-0.216667 0.307342,-0.483057 0.215552,-0.402747 0.20274,-0.46237 -0.07722,-0.355042 -0.421861,0.161994 -0.844848,-0.23873 -0.68691,-0.650693 0.159753,-0.41601 0.676785,-0.393291 0.919557,0.04004 0.151689,0.27134 0.252904,0.157273 0.449319,-0.506239 0.981073,-3.316653 -0.128365,-7.044615 -2.926888,-9.835469 C 24.734553,8.6461944 21.41676,7.5740908 17.981078,8.245026 m 1.650555,0.3305198 c -0.187628,0.4886917 0.288472,0.9483564 0.629336,0.6074891 0.287987,-0.287995 0.109513,-0.9600573 -0.254927,-0.9600573 -0.131631,0 -0.299919,0.1586219 -0.374409,0.3525682 m -1.306979,0.087523 c -0.07312,0.1183461 -0.281698,0.1581721 -0.463269,0.08842 -0.205868,-0.078971 -0.330292,0.00944 -0.330292,0.2348953 0,0.3964414 0.3456,0.4875653 0.556409,0.1464719 0.07312,-0.1183522 0.281686,-0.1581717 0.463269,-0.088419 0.205873,0.078971 0.330289,-0.00944 0.330289,-0.2348953 0,-0.3964434 -0.345586,-0.4875657 -0.556406,-0.146472 m 2.80637,0.146472 c 0,0.2146463 0.125974,0.3131935 0.31004,0.2425446 0.170552,-0.06547 0.414906,-0.014168 0.542903,0.1138539 0.279232,0.27922 0.788402,0.0216 0.590403,-0.2987948 -0.07636,-0.1237526 -0.277191,-0.1716722 -0.446396,-0.1068709 -0.169188,0.065011 -0.367423,0.021145 -0.440532,-0.0972 -0.210831,-0.3410943 -0.556421,-0.2499705 -0.556421,0.146472 m -4.869145,0.8774852 c -0.07935,0.2069949 0.01256,0.5258173 0.208588,0.7215643 0.477874,0.477889 1.11171,0.204069 1.020122,-0.4409983 -0.08871,-0.6248087 -1.01541,-0.8363044 -1.228705,-0.280567 m 6.299882,0 c -0.07843,0.20407 0.0053,0.5186123 0.186083,0.6990593 0.450215,0.450221 1.125424,0.159081 1.038797,-0.4479614 -0.08528,-0.59804 -1.018327,-0.7892864 -1.22488,-0.251098 M 14.46305,10.133877 c -0.07797,0.20317 -0.03374,0.477215 0.09809,0.609062 0.342889,0.342897 0.992225,0.02949 0.90268,-0.435365 -0.09965,-0.5179445 -0.820547,-0.6430413 -1.000766,-0.173701 m 10.28231,-0.01575 c -0.349199,0.420738 -0.12757,0.804804 0.464603,0.804804 0.336377,0 0.433807,-0.125321 0.380468,-0.488691 -0.09004,-0.6104065 -0.479668,-0.7564314 -0.845054,-0.316113 m 69.959272,0.28867 c -0.7742,0.283041 -1.349964,1.054108 -1.349964,1.807611 0,1.684546 1.095056,2.239832 2.794669,1.41703 1.084469,-0.524931 1.705234,-1.50276 1.705234,-2.686232 V 10.24793 l -1.40624,0.01777 c -0.773305,0.0096 -1.55808,0.07333 -1.743707,0.141076 m -79.74051,1.106755 c -0.08349,0.217123 -0.01442,0.524464 0.15636,0.695011 0.430185,0.43042 1.100432,0.119931 1.016301,-0.470457 -0.08637,-0.605025 -0.962533,-0.772867 -1.172661,-0.224554 m 8.941532,-0.01042 c -0.07493,0.195065 0.02953,0.520633 0.231969,0.723133 0.341101,0.340869 0.395556,0.340869 0.736647,0 0.459884,-0.460121 0.24884,-1.07818 -0.36831,-1.07818 -0.255374,0 -0.525358,0.159745 -0.600306,0.355047 m -11.018709,0.43397 c -0.07937,0.207 0.01267,0.525813 0.208569,0.721561 0.477899,0.477891 1.1117,0.204075 1.020129,-0.440994 -0.08873,-0.624808 -1.015408,-0.836311 -1.228698,-0.280567 m 13.056496,-0.01735 c -0.224098,0.583868 0.08981,1.066259 0.642811,0.987738 0.3717,-0.05285 0.507153,-0.22207 0.507153,-0.634488 0,-0.412419 -0.135475,-0.581615 -0.507153,-0.634492 -0.304405,-0.04319 -0.561584,0.06932 -0.642811,0.281242 m -12.129297,2.385424 c -0.08732,0.141292 -0.0529,0.362915 0.07653,0.492279 0.30239,0.3024 1.007312,0.03867 0.884235,-0.330954 -0.125115,-0.375969 -0.761835,-0.483075 -0.96073,-0.161325 m 11.474783,0 c -0.0873,0.141295 -0.05284,0.362915 0.07656,0.492279 0.302398,0.3024 1.007305,0.03867 0.884234,-0.330954 -0.125153,-0.375969 -0.761873,-0.483075 -0.960763,-0.161325 M 10.909724,14.65138 c -0.194391,0.194628 -0.353467,0.49117 -0.353467,0.659017 0,0.439415 0.636738,1.012482 1.124981,1.012482 0.48823,0 1.124973,-0.573067 1.124973,-1.012482 0,-0.439416 -0.636743,-1.012479 -1.124973,-1.012479 -0.229723,0 -0.576896,0.159076 -0.771514,0.353462 m 16.6686,0.05805 c -0.477235,0.527168 -0.469127,0.780967 0.03908,1.241084 0.553034,0.500614 1.320045,0.470694 1.605563,-0.06281 0.316338,-0.591275 0.293841,-0.821685 -0.120595,-1.23635 -0.469783,-0.469565 -1.067143,-0.447062 -1.524109,0.05805 m -12.926477,0.771061 c -0.511646,0.616489 -0.550564,1.499585 -0.09989,2.263681 l 0.443459,0.751492 -1.483395,-0.41151 c -1.69485,-0.469997 -2.055749,-0.50263 -2.055749,-0.186284 0,0.123727 0.306221,0.224994 0.680623,0.224994 0.924723,0 3.034506,0.764759 3.899165,1.41342 1.117108,0.838123 1.448529,0.93733 0.669815,0.200478 l -0.712557,-0.674472 0.541126,-0.135723 c 1.272128,-0.319271 1.551121,-2.096966 0.503979,-3.211597 -0.543585,-0.578672 -1.98355,-0.72019 -2.386518,-0.234424 m 8.32191,0.234436 c -1.047119,1.114633 -0.768127,2.892326 0.503998,3.211596 l 0.541102,0.135723 -0.712559,0.674534 c -0.7787,0.736855 -0.447287,0.637644 0.669814,-0.200477 0.864661,-0.648662 2.974452,-1.413419 3.899185,-1.413419 0.374388,0 0.680605,-0.101266 0.680605,-0.225002 0,-0.316337 -0.360883,-0.283705 -2.055784,0.186307 l -1.483388,0.411506 0.443465,-0.751478 c 0.450671,-0.764096 0.411737,-1.647197 -0.0999,-2.26368 -0.402952,-0.485769 -1.842928,-0.34425 -2.386525,0.234434 m -8.097595,-0.02203 c -0.148526,0.148511 -0.254913,0.62955 -0.236247,1.068733 0.02899,0.687814 0.04681,0.712111 0.127788,0.175037 0.11162,-0.738429 0.951504,-1.365492 1.5311,-1.143193 0.279432,0.107403 0.355486,0.07378 0.243433,-0.107404 -0.212398,-0.343567 -1.320264,-0.33906 -1.666091,0.007 m 8.593715,-0.007 c -0.112039,0.181116 -0.03612,0.214641 0.243452,0.107404 0.579578,-0.222299 1.419504,0.404764 1.531089,1.143193 0.08097,0.537074 0.09876,0.512777 0.127788,-0.175037 0.01877,-0.439405 -0.08775,-0.920234 -0.236247,-1.068733 -0.345816,-0.345809 -1.4537,-0.350309 -1.666096,-0.0068 m -13.34761,1.30205 c -0.3725862,0.230394 -0.1556912,0.909887 0.290474,0.909887 0.176165,0 0.37575,-0.14445 0.443689,-0.321073 0.163135,-0.425465 -0.342436,-0.830903 -0.734158,-0.588814 m 19.263467,-0.06969 c -0.331198,0.330967 -0.157047,1.013156 0.238939,0.936879 0.216675,-0.04184 0.393751,-0.268649 0.393751,-0.503983 0,-0.447752 -0.366968,-0.698846 -0.63269,-0.432896 m -12.172069,0.473725 c -0.196863,0.611986 -0.921364,1.037465 -1.505894,0.884679 -0.234891,-0.06146 -0.370567,-0.01988 -0.301029,0.09231 0.06926,0.112238 0.421407,0.204073 0.782515,0.204073 0.69569,0 1.474194,-0.846882 1.285856,-1.399028 -0.05831,-0.170321 -0.165146,-0.08116 -0.261448,0.21802 m 5.276389,-0.162889 c -0.01735,0.657884 0.667107,1.343897 1.340513,1.343897 0.356844,0 0.721117,-0.116999 0.809308,-0.259866 0.102351,-0.165148 0.06144,-0.198456 -0.11176,-0.09116 -0.472261,0.291598 -1.347489,-0.08034 -1.694895,-0.720663 -0.189218,-0.349022 -0.33795,-0.466926 -0.343106,-0.272301 m -3.659573,0.56973 c -1.374939,0.746089 -1.342316,1.958369 0.06413,2.379786 0.787503,0.23602 0.886473,0.344464 0.886473,0.972429 0,1.212504 -0.968365,1.654398 -1.870384,0.853178 -0.434682,-0.386309 -0.440098,-0.376639 -0.279886,0.506251 0.264371,1.455945 1.250294,2.282806 1.250294,1.048702 0,-0.83159 0.844183,-1.279551 1.687485,-0.895259 0.407679,0.18585 0.562475,0.431989 0.562475,0.895259 0,1.234104 0.985939,0.407243 1.250312,-1.048702 0.160193,-0.88289 0.15479,-0.89256 -0.279914,-0.506251 -0.901994,0.80122 -1.870388,0.359326 -1.870388,-0.853178 0,-0.627965 0.09898,-0.736409 0.886488,-0.972429 1.427836,-0.427724 1.437051,-1.656871 0.01803,-2.390804 -0.81718,-0.42255 -1.512189,-0.419166 -2.305073,0.01132 m -8.8569534,0.858625 c -0.2697708,0.702661 0.00329,1.153105 0.6983794,1.153105 0.59647,0 0.671843,-0.07564 0.671843,-0.674989 0,-0.569464 -0.09699,-0.686233 -0.620093,-0.746306 -0.395535,-0.04548 -0.667109,0.05146 -0.7501294,0.26819 m 18.6746474,0 c -0.269769,0.702661 0.0031,1.153105 0.698382,1.153105 0.596473,0 0.671837,-0.07564 0.671837,-0.674989 0,-0.569464 -0.097,-0.686233 -0.620091,-0.746306 -0.395535,-0.04548 -0.667105,0.05146 -0.750128,0.26819 m -17.717784,1.655871 c -0.08256,0.133648 0.494541,0.175492 1.517147,0.10976 1.206424,-0.07746 1.976137,0.0017 2.860814,0.292036 1.866787,0.614016 1.950267,0.620545 0.985258,0.07747 -0.710992,-0.400035 -1.354694,-0.526263 -3.064886,-0.600739 -1.248051,-0.05421 -2.22161,-0.0028 -2.298333,0.121555 m 13.575584,0.137506 c -0.814059,0.292721 -1.94825,0.93058 -1.349988,0.759131 0.185619,-0.05307 0.882217,-0.275837 1.547749,-0.494766 0.884681,-0.290915 1.654388,-0.369441 2.860825,-0.292037 0.90785,0.05831 1.597467,0.0204 1.532673,-0.08459 -0.181115,-0.293173 -3.703668,-0.20699 -4.591259,0.112255 m -13.049766,0.70925 c 0,0.18562 0.151871,0.337491 0.337493,0.337491 0.185627,0 0.337499,-0.151922 0.337499,-0.337491 0,-0.185621 -0.151868,-0.3375 -0.337499,-0.3375 -0.185619,0 -0.337493,0.151922 -0.337493,0.3375 m 16.476228,-0.07025 c 0.138995,0.41715 0.62344,0.486218 0.62344,0.08888 0,-0.195744 -0.160421,-0.356169 -0.356171,-0.356169 -0.195973,0 -0.316338,0.120177 -0.267269,0.267292 m -17.676352,0.50356 c -0.191248,0.49838 0.403862,0.883787 0.739556,0.47902 0.150981,-0.181803 0.20902,-0.436036 0.129147,-0.56518 -0.209696,-0.339509 -0.724925,-0.288448 -0.868704,0.08618 m 33.521893,1.760153 c 2.038456,6.744478 1.834389,6.243633 2.545381,6.243633 0.718409,0 0.768803,-0.117696 1.855093,-4.331155 0.279214,-1.082682 0.560465,-1.968727 0.624801,-1.968727 0.06465,0 0.508277,1.423109 0.986179,3.162319 l 0.869155,3.162084 0.694776,-0.06834 0.694774,-0.06856 1.161211,-3.937431 c 1.101359,-3.735156 1.138268,-3.941254 0.715037,-4.012799 -0.245251,-0.04141 -0.527836,0.0091 -0.628192,0.112489 -0.100382,0.103235 -0.579802,1.64518 -1.065794,3.426463 -0.485779,1.781297 -0.931259,3.148141 -0.989755,3.037442 -0.05851,-0.11066 -0.502641,-1.643814 -0.986824,-3.407337 -0.806613,-2.936646 -0.924082,-3.2062 -1.396559,-3.2062 -0.610868,0 -0.564746,-0.107095 -1.624485,3.762612 -0.459887,1.678461 -0.883776,2.961159 -0.942042,2.850689 -0.05851,-0.110426 -0.502647,-1.643593 -0.986835,-3.407113 C 44.450119,21.595696 44.4049,21.498048 43.820129,21.498048 H 43.21713 l 0.560935,1.856211 m 13.501312,-1.687496 c -0.05644,0.09282 -0.663288,1.535599 -1.348627,3.206193 -0.685117,1.670597 -1.405532,3.417231 -1.60107,3.881174 l -0.355268,0.843691 h 0.63358 c 0.556417,0 0.682874,-0.137026 1.038135,-1.124978 l 0.404528,-1.124996 h 1.883666 1.883454 l 0.483956,1.124971 c 0.395094,0.918217 0.586796,1.124978 1.042859,1.124978 0.439194,0 0.52692,-0.08437 0.409483,-0.393733 -0.08184,-0.216674 -0.814475,-2.038924 -1.627606,-4.049931 -1.418614,-3.508134 -1.504102,-3.656186 -2.111601,-3.656186 -0.348065,0 -0.679019,0.07608 -0.735502,0.168755 m 5.475939,3.88118 v 4.049915 h 2.699958 c 2.549868,0 2.699958,-0.02494 2.699958,-0.449991 0,-0.418482 -0.150124,-0.449993 -2.137473,-0.449993 h -2.13747 V 25.097863 21.49793 h -0.562484 -0.5625 v 4.049925 m 6.749864,0 v 4.049914 h 2.699968 c 2.549872,0 2.699953,-0.02494 2.699953,-0.44999 0,-0.418476 -0.150109,-0.449992 -2.137472,-0.449992 h -2.13747 V 25.097783 21.497845 H 70.067652 69.50515 v 4.049923 m 6.524885,0 v 4.049925 h 3.262438 c 3.112368,0 3.262441,-0.02077 3.262441,-0.44999 0,-0.425022 -0.150108,-0.449994 -2.699942,-0.449994 h -2.699958 v -1.349967 -1.34997 h 2.474952 c 2.32489,0 2.474952,-0.0272 2.474952,-0.450001 0,-0.422763 -0.150093,-0.449988 -2.474952,-0.449988 h -2.474952 v -1.349991 -1.349968 h 2.587449 c 2.437386,0 2.587448,-0.02599 2.587448,-0.450003 0,-0.4286 -0.150093,-0.449979 -3.149932,-0.449979 h -3.149944 v 4.049921 m 7.199863,-3.599945 c 0,0.40387 0.150124,0.449998 1.462471,0.449998 h 1.462482 v 3.599937 3.599933 h 0.562484 0.562497 v -3.59995 -3.599942 h 1.349959 c 1.199925,0 1.349983,-0.04994 1.349983,-0.449993 0,-0.429953 -0.150093,-0.449984 -3.374931,-0.449984 -3.224855,0 -3.374943,0.02006 -3.374943,0.449984 m -26.015801,2.535708 -0.690076,1.851709 1.34166,0.06766 c 0.737979,0.03703 1.391822,0.01761 1.453007,-0.0437 0.109327,-0.109311 -1.015392,-3.241752 -1.279544,-3.563259 -0.07406,-0.09024 -0.445253,0.669136 -0.825047,1.687461 M 12.379844,23.606601 c -0.374834,0.451801 -0.05502,1.077513 0.508943,0.996745 0.552591,-0.07924 0.777144,-0.82529 0.33322,-1.106536 -0.416924,-0.264379 -0.545606,-0.24749 -0.842163,0.10976 m 14.41032,-0.109729 c -0.455616,0.288666 -0.213757,1.028241 0.362902,1.110351 0.604569,0.08618 0.901351,-0.491839 0.500389,-0.974895 -0.318142,-0.383402 -0.441659,-0.402758 -0.863291,-0.135461 m -12.783367,0.603433 c -0.187654,0.488683 0.28844,0.948365 0.629321,0.607497 0.287977,-0.288004 0.109512,-0.960065 -0.254938,-0.960065 -0.131609,0 -0.299912,0.158624 -0.374383,0.352568 m 11.249771,0 c -0.187632,0.488683 0.288464,0.948365 0.629331,0.607497 0.287979,-0.288004 0.109528,-0.960065 -0.254932,-0.960065 -0.131632,0 -0.29991,0.158624 -0.374399,0.352568 m -10.525287,1.202157 c -0.217115,0.351216 0.138545,0.945654 0.521985,0.872747 0.200921,-0.03818 0.397785,-0.296304 0.437391,-0.573498 0.05396,-0.378674 -0.04063,-0.503997 -0.380461,-0.503997 -0.248839,0 -0.509389,0.09204 -0.578915,0.204748 m 9.587962,0.283504 c 0.09575,0.677462 0.97424,0.744279 0.97424,0.07425 0,-0.299913 -0.17483,-0.474741 -0.52425,-0.524227 -0.436247,-0.06191 -0.511852,0.01379 -0.44999,0.449987 m -7.538032,0.561808 c -0.25896,0.25875 -0.164025,0.524919 0.187425,0.524919 0.185617,0 0.337495,-0.151907 0.337495,-0.337496 0,-0.351454 -0.266172,-0.446392 -0.52492,-0.187423 m 5.924821,0.168747 c 0,0.195744 0.160411,0.356172 0.356154,0.356172 0.397356,0 0.328279,-0.484423 -0.08893,-0.623468 -0.147163,-0.04911 -0.267287,0.07133 -0.267287,0.267296 m -4.724921,0.262345 c 0,0.195966 0.120177,0.316343 0.267289,0.267296 0.417145,-0.138995 0.486214,-0.623458 0.08893,-0.623458 -0.195739,0 -0.356157,0.160411 -0.356157,0.356162 m 3.531069,-0.212399 c -0.17977,0.179777 0.02328,0.531223 0.307132,0.531223 0.116565,0 0.211719,-0.151922 0.211719,-0.337505 0,-0.347837 -0.265491,-0.447066 -0.518851,-0.193718"
     stroke="none"
     fill="#346491"
     fill-rule="evenodd"
     id="path2"
     style="fill:#010204;fill-opacity:1;stroke-width:0.224997" />
</svg>
